<svg xmlns="http://www.w3.org/2000/svg" viewBox="0 0 187 262"><defs><style>.cls-1{fill:#aea385;}.cls-2{fill:#98b742;}.cls-3{fill:#94bc94;}.cls-4{fill:#b1dc90;}</style></defs><title>Baby Tree 3</title><g id="Layer_25" data-name="Layer 25"><g id="Component_26_1" data-name="Component 26 1"><g id="Group_300" data-name="Group 300"><path id="Rectangle_14" data-name="Rectangle 14" class="cls-1" d="M95.69,33.63h0a2.48,2.48,0,0,1,2.5,2.46V259.54a2.48,2.48,0,0,1-2.5,2.46h0a2.47,2.47,0,0,1-2.49-2.46V36.09A2.47,2.47,0,0,1,95.69,33.63Z"/><polygon id="Rectangle_15" data-name="Rectangle 15" class="cls-1" points="68.22 79.91 71.75 76.43 97.74 102.06 94.21 105.54 68.22 79.91"/><polygon id="Rectangle_16" data-name="Rectangle 16" class="cls-1" points="33.29 143.89 36.82 140.41 97.74 200.49 94.21 203.97 33.29 143.89"/><polygon id="Rectangle_17" data-name="Rectangle 17" class="cls-1" points="97.47 161.88 93.94 158.4 121.89 130.83 125.42 134.31 97.47 161.88"/><polygon id="Rectangle_18" data-name="Rectangle 18" class="cls-1" points="97.47 103.8 93.94 100.32 121.89 72.75 125.42 76.23 97.47 103.8"/><polygon id="Rectangle_19" data-name="Rectangle 19" class="cls-1" points="97.97 243.09 94.44 239.6 145.85 188.91 149.38 192.39 97.97 243.09"/><polygon id="Rectangle_20" data-name="Rectangle 20" class="cls-1" points="62.04 168.27 58.51 164.79 75.48 148.06 79.01 151.54 62.04 168.27"/></g><ellipse id="Ellipse_96" data-name="Ellipse 96" class="cls-2" cx="48.51" cy="133.13" rx="5.7" ry="5.62"/><g id="Group_299" data-name="Group 299"><path id="Path_27" data-name="Path 27" class="cls-3" d="M103.42,142.9c-.09-.23-.2-.46-.3-.69a11.23,11.23,0,0,0-5.58-15,11.93,11.93,0,0,0-3.56-1,9,9,0,0,0-10.66-6.79,8.87,8.87,0,0,0-7,9.7c-.19,0-.37,0-.56,0a11.4,11.4,0,0,0-11.48,11.32,11.19,11.19,0,0,0,2,6.4h0a7.88,7.88,0,1,0,0,15.75,8.14,8.14,0,0,0,3-.59c0,.2,0,.39,0,.59a8,8,0,0,0,16,0,7.71,7.71,0,0,0-.49-2.73l.51-.19a8.48,8.48,0,1,0,16.8-1.15,7.33,7.33,0,0,0,1.15.09,7.87,7.87,0,0,0,.24-15.74Z"/><path id="Path_28" data-name="Path 28" class="cls-3" d="M166.45,129.2a7.83,7.83,0,0,0-4.24-10.3,8.06,8.06,0,0,0-5.11-.36,7.8,7.8,0,0,0-.75-11.11,8.09,8.09,0,0,0-9.66-.64A11.6,11.6,0,0,0,132.93,105a8,8,0,0,0-10.26,4.56,7.25,7.25,0,0,0-.27.87,7.9,7.9,0,0,0-7.2,8.56,7.75,7.75,0,0,0,2,4.53,6.69,6.69,0,0,0-1,3.61,7.17,7.17,0,0,0,.08,1,10.75,10.75,0,0,0,3.1,15,11.08,11.08,0,0,0,14.85-2.53,9.07,9.07,0,0,0,12.64,1.17,8.82,8.82,0,0,0,3.15-5.47,8.07,8.07,0,0,0,3.11.62l.26,0a8,8,0,0,0,9.71,5.68,7.83,7.83,0,0,0,3.39-13.45Z"/><path id="Path_29" data-name="Path 29" class="cls-3" d="M166.45,69.15a7.92,7.92,0,0,0-7.37-10.91,7.94,7.94,0,0,0-8-7.88,8.13,8.13,0,0,0-1.63.17A8,8,0,0,0,140.17,48a11.53,11.53,0,0,0-12.55,3.75,8,8,0,0,0-11.08,2.1,7.72,7.72,0,0,0-1.35,3.81A11.78,11.78,0,0,0,106.54,72a11.43,11.43,0,0,0,1,2.53A13.78,13.78,0,0,0,121.3,88.27a14,14,0,0,0,11.31-5.6c.17-.17.34-.34.5-.52a12.92,12.92,0,0,0,12,4.47,8.05,8.05,0,0,0,10.84,3.14,7.87,7.87,0,0,0,4.16-6.92v-.06a8.22,8.22,0,0,0,1,.06,7.85,7.85,0,0,0,5.38-13.69Z"/><path id="Path_30" data-name="Path 30" class="cls-3" d="M161.05,201a13,13,0,0,0,11.6-7.08,8.05,8.05,0,0,0,11.17,1.56,7.79,7.79,0,0,0,1.58-11,7.53,7.53,0,0,0-1-1.1A7.85,7.85,0,0,0,180.11,173a8.18,8.18,0,0,0-3.09-.61,7.9,7.9,0,0,0-7.93-7.87,8,8,0,0,0-1.89.21,11.37,11.37,0,0,0-12.15-7,8,8,0,0,0-10.88-3,7.83,7.83,0,0,0-3.49,9.81,7.92,7.92,0,0,0-7.55,7.25,11.78,11.78,0,0,0-8.65,14.32,11.63,11.63,0,0,0,1,2.53,7.79,7.79,0,0,0-1.85,11,8.06,8.06,0,0,0,11.14,1.83,7.84,7.84,0,0,0,3.34-6.41c0-.05,0-.1,0-.14a8,8,0,0,0,13,1.41A13.05,13.05,0,0,0,161.05,201Z"/><path id="Path_31" data-name="Path 31" class="cls-3" d="M89,73.82A7.93,7.93,0,0,0,81,66a7.89,7.89,0,0,0-7.9-7.88,8.21,8.21,0,0,0-1.41.12c0-.17-.09-.34-.14-.51a7.81,7.81,0,0,0-1.93-11,8.07,8.07,0,0,0-10.83,1.53,12.94,12.94,0,0,0-12.4,9.95,7.92,7.92,0,0,0-9.18,6.36,6.82,6.82,0,0,0-.1.79,11.78,11.78,0,0,0-8.64,14.35A12,12,0,0,0,50.86,81.8a13.09,13.09,0,0,0,18.21,2c.34-.28.67-.56,1-.87A16.72,16.72,0,0,0,89,73.82Z"/><path id="Path_32" data-name="Path 32" class="cls-3" d="M124.88,28.54a7.93,7.93,0,0,0-8-7.88A7.89,7.89,0,0,0,109,12.79a8.39,8.39,0,0,0-1.41.12c0-.17-.08-.34-.13-.51a7.8,7.8,0,0,0-1.94-11A8.05,8.05,0,0,0,94.69,3a12.92,12.92,0,0,0-12.4,10,7.91,7.91,0,0,0-9.18,6.35,7.28,7.28,0,0,0-.1.8,11.8,11.8,0,0,0-8.65,14.35A12,12,0,0,0,86.8,36.52a13.07,13.07,0,0,0,18.2,2,10.17,10.17,0,0,0,1-.86,16.73,16.73,0,0,0,18.89-9.15Z"/><path id="Path_26" data-name="Path 26" class="cls-3" d="M39.34,153a12.94,12.94,0,0,0,10.89-8.09,8.06,8.06,0,0,0,11.27.55,7.78,7.78,0,0,0,.56-11.11,8.16,8.16,0,0,0-1.11-1,7.94,7.94,0,0,0-8.35-10.2A7.93,7.93,0,0,0,44,116a7.8,7.8,0,0,0-1.85.38,11.41,11.41,0,0,0-12.75-5.87,8.06,8.06,0,0,0-11.12-2,7.81,7.81,0,0,0-2.56,10,7.91,7.91,0,0,0-6.85,7.9,11.76,11.76,0,0,0-7.29,15A12.24,12.24,0,0,0,2.76,144,7.8,7.8,0,0,0,2,155.09a8.06,8.06,0,0,0,11.26.81,7.85,7.85,0,0,0,2.73-6.68c0-.05,0-.1,0-.14A8,8,0,0,0,27,151.19a7.86,7.86,0,0,0,2-1.88A13,13,0,0,0,39.34,153Z"/></g><g id="Group_298" data-name="Group 298"><ellipse id="Ellipse_95" data-name="Ellipse 95" class="cls-4" cx="21.67" cy="124.69" rx="8.69" ry="8.57"/><ellipse id="Ellipse_97" data-name="Ellipse 97" class="cls-4" cx="30.09" cy="145.18" rx="4.2" ry="4.14"/><ellipse id="Ellipse_98" data-name="Ellipse 98" class="cls-4" cx="7.85" cy="143.23" rx="4.2" ry="4.14"/><ellipse id="Ellipse_99" data-name="Ellipse 99" class="cls-4" cx="87.2" cy="146.54" rx="5.7" ry="5.62"/><ellipse id="Ellipse_100" data-name="Ellipse 100" class="cls-4" cx="97.69" cy="149.99" rx="4.2" ry="4.14"/><ellipse id="Ellipse_101" data-name="Ellipse 101" class="cls-4" cx="86.71" cy="132.27" rx="4.2" ry="4.14"/><ellipse id="Ellipse_102" data-name="Ellipse 102" class="cls-4" cx="73.73" cy="149.99" rx="4.2" ry="4.14"/><ellipse id="Ellipse_103" data-name="Ellipse 103" class="cls-4" cx="150.45" cy="127.21" rx="6.34" ry="6.25"/><ellipse id="Ellipse_104" data-name="Ellipse 104" class="cls-4" cx="131.13" cy="117.01" rx="5.7" ry="5.62"/><ellipse id="Ellipse_105" data-name="Ellipse 105" class="cls-4" cx="146.6" cy="115.53" rx="4.2" ry="4.14"/><ellipse id="Ellipse_106" data-name="Ellipse 106" class="cls-4" cx="132.62" cy="130.3" rx="4.2" ry="4.14"/><ellipse id="Ellipse_107" data-name="Ellipse 107" class="cls-4" cx="137.11" cy="63.86" rx="8.69" ry="8.57"/><ellipse id="Ellipse_108" data-name="Ellipse 108" class="cls-4" cx="160.57" cy="71.24" rx="4.2" ry="4.14"/><ellipse id="Ellipse_109" data-name="Ellipse 109" class="cls-4" cx="143.6" cy="79.11" rx="4.2" ry="4.14"/><ellipse id="Ellipse_110" data-name="Ellipse 110" class="cls-4" cx="120.64" cy="74.19" rx="4.2" ry="4.14"/><ellipse id="Ellipse_111" data-name="Ellipse 111" class="cls-4" cx="146.07" cy="171.14" rx="8.69" ry="8.57"/><ellipse id="Ellipse_112" data-name="Ellipse 112" class="cls-4" cx="172.03" cy="181.97" rx="5.7" ry="5.62"/><ellipse id="Ellipse_113" data-name="Ellipse 113" class="cls-4" cx="152.56" cy="192.31" rx="4.2" ry="4.14"/><ellipse id="Ellipse_114" data-name="Ellipse 114" class="cls-4" cx="130.6" cy="188.37" rx="4.2" ry="4.14"/><ellipse id="Ellipse_115" data-name="Ellipse 115" class="cls-4" cx="59" cy="62.71" rx="8.69" ry="8.57"/><ellipse id="Ellipse_116" data-name="Ellipse 116" class="cls-4" cx="54.51" cy="77.96" rx="4.2" ry="4.14"/><ellipse id="Ellipse_117" data-name="Ellipse 117" class="cls-4" cx="39.53" cy="75.01" rx="4.2" ry="4.14"/><ellipse id="Ellipse_118" data-name="Ellipse 118" class="cls-4" cx="75.47" cy="75.01" rx="4.2" ry="4.14"/><ellipse id="Ellipse_119" data-name="Ellipse 119" class="cls-4" cx="94.93" cy="17.42" rx="8.69" ry="8.57"/><ellipse id="Ellipse_120" data-name="Ellipse 120" class="cls-4" cx="90.44" cy="32.68" rx="4.2" ry="4.14"/><ellipse id="Ellipse_121" data-name="Ellipse 121" class="cls-4" cx="75.47" cy="29.73" rx="4.2" ry="4.14"/><ellipse id="Ellipse_122" data-name="Ellipse 122" class="cls-4" cx="111.4" cy="29.73" rx="4.2" ry="4.14"/></g></g></g></svg>