<svg xmlns="http://www.w3.org/2000/svg" viewBox="0 0 167 276"><defs><style>.cls-1{fill:#aea385;}.cls-2{fill:#94bc94;}.cls-3{fill:#b1dc90;}</style></defs><title>Baby Tree 2</title><g id="Layer_25" data-name="Layer 25"><g id="Component_24_1" data-name="Component 24 1"><g id="Group_297" data-name="Group 297"><path id="Rectangle_8" data-name="Rectangle 8" class="cls-1" d="M71,40.13h0a2.5,2.5,0,0,1,2.5,2.51V273.49A2.5,2.5,0,0,1,71,276h0a2.5,2.5,0,0,1-2.5-2.51V42.64A2.5,2.5,0,0,1,71,40.13Z"/><polygon id="Rectangle_9" data-name="Rectangle 9" class="cls-1" points="43.47 71.26 47.01 67.71 73.04 93.84 69.5 97.39 43.47 71.26"/><polygon id="Rectangle_10" data-name="Rectangle 10" class="cls-1" points="83.97 129.98 87.51 126.43 101.04 140.01 97.5 143.56 83.97 129.98"/><polygon id="Rectangle_11" data-name="Rectangle 11" class="cls-1" points="37.47 184.68 41.01 181.13 73.04 213.28 69.5 216.83 37.47 184.68"/><polygon id="Rectangle_12" data-name="Rectangle 12" class="cls-1" points="72.77 173.91 69.24 170.36 129.74 109.64 133.27 113.18 72.77 173.91"/><polygon id="Rectangle_13" data-name="Rectangle 13" class="cls-1" points="73.27 234.63 69.74 231.08 105.74 194.95 109.27 198.5 73.27 234.63"/></g><g id="Group_296" data-name="Group 296"><path id="Path_20" data-name="Path 20" class="cls-2" d="M159.73,103.38c-.09-.25-.2-.48-.3-.71a11.55,11.55,0,0,0-5.59-15.3,11.38,11.38,0,0,0-3.56-1,9,9,0,0,0-17.73,3c-.19,0-.37,0-.56,0a11.55,11.55,0,0,0-9.48,18.07h0a8,8,0,1,0,3,15.45c0,.21,0,.41,0,.61A8,8,0,1,0,141,120.69l.51-.19a8.5,8.5,0,1,0,17,.93,8.67,8.67,0,0,0-.14-2.1,7.33,7.33,0,0,0,1.15.09,8,8,0,0,0,.24-16Z"/><path id="Path_21" data-name="Path 21" class="cls-2" d="M55.87,71.34a8,8,0,0,0-9.36-10.88,8,8,0,0,0-10.43-12A11.45,11.45,0,0,0,22.3,46.67,8,8,0,0,0,12,51.32a9.18,9.18,0,0,0-.28.89,8,8,0,0,0-5.2,13.34,7,7,0,0,0-1,3.69,6.32,6.32,0,0,0,.09,1.06A11,11,0,0,0,23.56,83a9,9,0,0,0,15.81-4.39,7.8,7.8,0,0,0,3.12.63h.26a8,8,0,1,0,13.12-7.93Z"/><path id="Path_22" data-name="Path 22" class="cls-2" d="M142.87,188.77a8,8,0,0,0-7.38-11.13,8,8,0,0,0-8-8,7.55,7.55,0,0,0-1.64.17,7.93,7.93,0,0,0-9.31-2.61A11.43,11.43,0,0,0,104,171a8,8,0,0,0-11.1,2.14A8.11,8.11,0,0,0,91.52,177a12,12,0,0,0-8.66,14.6,11.8,11.8,0,0,0,1,2.58A13.9,13.9,0,0,0,109,202.55c.18-.17.35-.35.51-.53a12.8,12.8,0,0,0,12,4.56,8,8,0,0,0,15-3.85v-.07a8.26,8.26,0,0,0,1,.07,8,8,0,0,0,5.38-14Z"/><path id="Path_23" data-name="Path 23" class="cls-2" d="M75.46,48.15a13,13,0,0,0,11.62-7.22,8,8,0,1,0,12.78-9.64,9,9,0,0,0-1-1.12A8,8,0,0,0,91.46,19a8,8,0,0,0-9.83-7.81A11.36,11.36,0,0,0,69.45,4.1,8,8,0,0,0,55.06,11a8,8,0,0,0-7.57,7.39,12,12,0,0,0-7.68,17.19,8,8,0,1,0,12.65,6.52V42A8,8,0,0,0,63.3,45.16a8.23,8.23,0,0,0,2.16-1.73A13,13,0,0,0,75.46,48.15Z"/><path id="Path_24" data-name="Path 24" class="cls-2" d="M111.23,125.28a8,8,0,0,0-8-8,8,8,0,0,0-7.92-8,6.72,6.72,0,0,0-1.41.12c0-.18-.09-.35-.13-.52A8,8,0,0,0,81,99.19a13,13,0,0,0-12.42,10.15,8,8,0,0,0-9.2,6.48,7.46,7.46,0,0,0-.1.81,12,12,0,1,0,13.82,16.78,12.94,12.94,0,0,0,18.23,2.08c.35-.28.68-.57,1-.88a16.66,16.66,0,0,0,18.92-9.34Z"/><path id="Path_25" data-name="Path 25" class="cls-2" d="M62.23,184.49a8,8,0,0,0-8-8,8,8,0,0,0-7.92-8,7.45,7.45,0,0,0-1.41.11c0-.17-.09-.34-.13-.51A8,8,0,0,0,32,158.41a13,13,0,0,0-12.42,10.14,8,8,0,0,0-9.2,6.49,7.46,7.46,0,0,0-.1.81,12,12,0,1,0,13.82,16.78,12.94,12.94,0,0,0,18.23,2.08c.35-.28.68-.57,1-.88a16.69,16.69,0,0,0,18.92-9.34Z"/></g><g id="Group_295" data-name="Group 295"><ellipse id="Ellipse_71" data-name="Ellipse 71" class="cls-3" cx="143.49" cy="107.09" rx="5.71" ry="5.73"/><ellipse id="Ellipse_72" data-name="Ellipse 72" class="cls-3" cx="153.99" cy="110.6" rx="4.21" ry="4.22"/><ellipse id="Ellipse_73" data-name="Ellipse 73" class="cls-3" cx="142.99" cy="92.53" rx="4.21" ry="4.22"/><ellipse id="Ellipse_74" data-name="Ellipse 74" class="cls-3" cx="129.99" cy="110.6" rx="4.21" ry="4.22"/><ellipse id="Ellipse_75" data-name="Ellipse 75" class="cls-3" cx="39.84" cy="69.3" rx="6.35" ry="6.38"/><ellipse id="Ellipse_76" data-name="Ellipse 76" class="cls-3" cx="20.49" cy="58.91" rx="5.71" ry="5.73"/><ellipse id="Ellipse_77" data-name="Ellipse 77" class="cls-3" cx="35.99" cy="57.4" rx="4.21" ry="4.22"/><ellipse id="Ellipse_78" data-name="Ellipse 78" class="cls-3" cx="21.99" cy="72.46" rx="4.21" ry="4.22"/><ellipse id="Ellipse_79" data-name="Ellipse 79" class="cls-3" cx="113.49" cy="183.37" rx="8.71" ry="8.74"/><ellipse id="Ellipse_80" data-name="Ellipse 80" class="cls-3" cx="136.99" cy="190.89" rx="4.21" ry="4.22"/><ellipse id="Ellipse_81" data-name="Ellipse 81" class="cls-3" cx="119.99" cy="198.92" rx="4.21" ry="4.22"/><ellipse id="Ellipse_82" data-name="Ellipse 82" class="cls-3" cx="96.99" cy="193.91" rx="4.21" ry="4.22"/><ellipse id="Ellipse_83" data-name="Ellipse 83" class="cls-3" cx="60.46" cy="17.75" rx="8.71" ry="8.74"/><ellipse id="Ellipse_84" data-name="Ellipse 84" class="cls-3" cx="86.46" cy="28.79" rx="5.71" ry="5.73"/><ellipse id="Ellipse_85" data-name="Ellipse 85" class="cls-3" cx="66.96" cy="39.32" rx="4.21" ry="4.22"/><ellipse id="Ellipse_86" data-name="Ellipse 86" class="cls-3" cx="44.96" cy="35.31" rx="4.21" ry="4.22"/><ellipse id="Ellipse_87" data-name="Ellipse 87" class="cls-3" cx="81.23" cy="113.94" rx="8.71" ry="8.74"/><ellipse id="Ellipse_88" data-name="Ellipse 88" class="cls-3" cx="76.73" cy="129.5" rx="4.21" ry="4.22"/><ellipse id="Ellipse_89" data-name="Ellipse 89" class="cls-3" cx="61.73" cy="126.49" rx="4.21" ry="4.22"/><ellipse id="Ellipse_90" data-name="Ellipse 90" class="cls-3" cx="97.73" cy="126.49" rx="4.21" ry="4.22"/><ellipse id="Ellipse_91" data-name="Ellipse 91" class="cls-3" cx="32.23" cy="173.16" rx="8.71" ry="8.74"/><ellipse id="Ellipse_92" data-name="Ellipse 92" class="cls-3" cx="27.73" cy="188.72" rx="4.21" ry="4.22"/><ellipse id="Ellipse_93" data-name="Ellipse 93" class="cls-3" cx="12.73" cy="185.71" rx="4.21" ry="4.22"/><ellipse id="Ellipse_94" data-name="Ellipse 94" class="cls-3" cx="48.73" cy="185.71" rx="4.21" ry="4.22"/></g></g></g></svg>