<svg xmlns="http://www.w3.org/2000/svg" viewBox="0 0 200 341"><defs><style>.cls-1{fill:#aea385;}.cls-2{fill:#94bc94;}.cls-3{fill:#b1dc90;}</style></defs><title>Baby Tree 1</title><g id="Layer_25" data-name="Layer 25"><g id="Component_25_1" data-name="Component 25 1"><path id="Rectangle_1" data-name="Rectangle 1" class="cls-1" d="M83,34h0a2.5,2.5,0,0,1,2.5,2.5v302A2.5,2.5,0,0,1,83,341h0a2.5,2.5,0,0,1-2.5-2.5v-302A2.5,2.5,0,0,1,83,34Z"/><rect id="Rectangle_2" data-name="Rectangle 2" class="cls-1" x="67.76" y="116.85" width="5" height="36.82" transform="translate(-75.06 89.3) rotate(-45)"/><rect id="Rectangle_3" data-name="Rectangle 3" class="cls-1" x="116.01" y="238.94" width="5" height="19.14" transform="translate(-141.02 156.59) rotate(-45)"/><rect id="Rectangle_4" data-name="Rectangle 4" class="cls-1" x="48.76" y="175.98" width="5" height="90.56" transform="translate(-141.45 101.05) rotate(-45)"/><rect id="Rectangle_5" data-name="Rectangle 5" class="cls-1" x="78.39" y="170.87" width="31.49" height="5" transform="translate(-95.02 117.34) rotate(-45)"/><rect id="Rectangle_6" data-name="Rectangle 6" class="cls-1" x="78.6" y="84.37" width="30.08" height="5" transform="translate(-34 91.65) rotate(-45)"/><rect id="Rectangle_7" data-name="Rectangle 7" class="cls-1" x="65.18" y="251.26" width="125.16" height="5" transform="translate(-142.02 164.66) rotate(-45)"/><path id="Path_13" data-name="Path 13" class="cls-2" d="M60.73,106c-.09-.24-.2-.47-.3-.7a11.49,11.49,0,0,0-5.59-15.24,11.66,11.66,0,0,0-3.56-1,9,9,0,0,0-17.73,3c-.19,0-.37,0-.56,0a11.49,11.49,0,0,0-9.48,18h0a8,8,0,1,0,3,15.4c0,.2,0,.4,0,.6A8,8,0,1,0,42,123.26l.51-.19a8.5,8.5,0,1,0,17,.92,8.62,8.62,0,0,0-.14-2.09,7.33,7.33,0,0,0,1.15.09,8,8,0,0,0,.24-16Z"/><circle id="Ellipse_43" data-name="Ellipse 43" class="cls-3" cx="44.49" cy="109.7" r="5.71"/><circle id="Ellipse_44" data-name="Ellipse 44" class="cls-3" cx="54.99" cy="113.2" r="4.21"/><circle id="Ellipse_45" data-name="Ellipse 45" class="cls-3" cx="43.99" cy="95.2" r="4.21"/><circle id="Ellipse_46" data-name="Ellipse 46" class="cls-3" cx="30.99" cy="113.2" r="4.21"/><path id="Path_14" data-name="Path 14" class="cls-2" d="M51.87,191.08a8,8,0,0,0-9.36-10.83,8,8,0,0,0-10.43-11.93,11.46,11.46,0,0,0-13.78-1.81A8,8,0,0,0,8,171.14a9.18,9.18,0,0,0-.28.89,8,8,0,0,0-5.2,13.29,6.9,6.9,0,0,0-1,3.67,6.23,6.23,0,0,0,.09,1.06,11,11,0,0,0,18,12.68,9,9,0,0,0,15.81-4.37,8,8,0,0,0,3.12.63h.26a8,8,0,1,0,13.12-7.9Z"/><circle id="Ellipse_47" data-name="Ellipse 47" class="cls-3" cx="35.84" cy="189.06" r="6.35"/><circle id="Ellipse_48" data-name="Ellipse 48" class="cls-3" cx="16.49" cy="178.7" r="5.71"/><circle id="Ellipse_49" data-name="Ellipse 49" class="cls-3" cx="31.99" cy="177.2" r="4.21"/><circle id="Ellipse_50" data-name="Ellipse 50" class="cls-3" cx="17.99" cy="192.2" r="4.21"/><path id="Path_15" data-name="Path 15" class="cls-2" d="M152.87,70.08A8,8,0,0,0,145.49,59a8,8,0,0,0-8-8,8.23,8.23,0,0,0-1.64.17,8,8,0,0,0-9.31-2.6A11.48,11.48,0,0,0,114,52.36a8,8,0,0,0-12.45,6,12,12,0,0,0-7.69,17.12A13.92,13.92,0,0,0,119,83.81c.18-.17.35-.35.51-.53a12.81,12.81,0,0,0,12,4.54,8,8,0,0,0,15-3.83v-.07c.33,0,.66.06,1,.07a8,8,0,0,0,5.38-13.91Z"/><circle id="Ellipse_51" data-name="Ellipse 51" class="cls-3" cx="123.49" cy="64.69" r="8.71"/><circle id="Ellipse_52" data-name="Ellipse 52" class="cls-3" cx="146.99" cy="72.19" r="4.21"/><circle id="Ellipse_53" data-name="Ellipse 53" class="cls-3" cx="129.99" cy="80.19" r="4.21"/><circle id="Ellipse_54" data-name="Ellipse 54" class="cls-3" cx="106.99" cy="75.19" r="4.21"/><path id="Path_16" data-name="Path 16" class="cls-2" d="M170.06,227.81a13,13,0,0,0,13.4-2.71,8,8,0,1,0,14.75-6,8,8,0,0,0-.38-11.31,8.11,8.11,0,0,0-2.69-1.65,8,8,0,0,0-4.66-10.27,8.47,8.47,0,0,0-1.85-.45,11.39,11.39,0,0,0-8.95-10.9,8,8,0,0,0-15.9,1.48,8,8,0,0,0-9.65,4.28A12,12,0,0,0,141,200.94a12.13,12.13,0,0,0,0,2.76,8,8,0,1,0,9.61,10.49.74.74,0,0,0,0-.14,8,8,0,0,0,11.69,5.86A13,13,0,0,0,170.06,227.81Z"/><circle id="Ellipse_55" data-name="Ellipse 55" class="cls-3" cx="166.52" cy="194.19" r="8.71"/><circle id="Ellipse_56" data-name="Ellipse 56" class="cls-3" cx="187.08" cy="213.54" r="5.71"/><circle id="Ellipse_57" data-name="Ellipse 57" class="cls-3" cx="165.15" cy="216.61" r="4.21"/><circle id="Ellipse_58" data-name="Ellipse 58" class="cls-3" cx="145.91" cy="205.21" r="4.21"/><path id="Path_17" data-name="Path 17" class="cls-2" d="M89.46,48a13,13,0,0,0,11.62-7.19,8,8,0,0,0,12.78-9.6,9,9,0,0,0-1-1.12A8,8,0,0,0,105.46,19a8,8,0,0,0-9.83-7.78A11.38,11.38,0,0,0,83.45,4.08,8,8,0,0,0,69.06,11a8,8,0,0,0-7.57,7.37,12,12,0,0,0-7.68,17.12A8,8,0,1,0,66.46,42v-.14a8,8,0,0,0,13,1.43A12.93,12.93,0,0,0,89.46,48Z"/><circle id="Ellipse_59" data-name="Ellipse 59" class="cls-3" cx="74.46" cy="17.68" r="8.71"/><circle id="Ellipse_60" data-name="Ellipse 60" class="cls-3" cx="100.46" cy="28.68" r="5.71"/><circle id="Ellipse_61" data-name="Ellipse 61" class="cls-3" cx="80.96" cy="39.18" r="4.21"/><circle id="Ellipse_62" data-name="Ellipse 62" class="cls-3" cx="58.96" cy="35.18" r="4.21"/><path id="Path_18" data-name="Path 18" class="cls-2" d="M149.23,160.82a8,8,0,0,0-8-8,8,8,0,0,0-7.92-8,8.39,8.39,0,0,0-1.41.12c0-.17-.09-.34-.13-.52A8,8,0,0,0,119,134.83a13,13,0,0,0-12.42,10.11,8,8,0,0,0-9.2,6.46,7.46,7.46,0,0,0-.1.81,12,12,0,1,0,13.82,16.72A13,13,0,0,0,129.31,171c.35-.28.68-.57,1-.88a16.68,16.68,0,0,0,18.92-9.3Z"/><circle id="Ellipse_63" data-name="Ellipse 63" class="cls-3" cx="119.23" cy="149.53" r="8.71"/><circle id="Ellipse_64" data-name="Ellipse 64" class="cls-3" cx="114.73" cy="165.03" r="4.21"/><circle id="Ellipse_65" data-name="Ellipse 65" class="cls-3" cx="99.73" cy="162.03" r="4.21"/><circle id="Ellipse_66" data-name="Ellipse 66" class="cls-3" cx="135.73" cy="162.03" r="4.21"/><path id="Path_19" data-name="Path 19" class="cls-2" d="M141.23,233.83a8,8,0,0,0-8-8,8,8,0,0,0-7.92-8,7.45,7.45,0,0,0-1.41.11c0-.17-.09-.34-.13-.51A8,8,0,0,0,111,207.84a13,13,0,0,0-12.42,10.1,8,8,0,0,0-9.2,6.46,7.46,7.46,0,0,0-.1.81,12,12,0,1,0,13.82,16.72A13,13,0,0,0,121.31,244a11.87,11.87,0,0,0,1-.88,16.67,16.67,0,0,0,18.92-9.3Z"/><circle id="Ellipse_67" data-name="Ellipse 67" class="cls-3" cx="111.23" cy="222.53" r="8.71"/><circle id="Ellipse_68" data-name="Ellipse 68" class="cls-3" cx="106.73" cy="238.04" r="4.21"/><circle id="Ellipse_69" data-name="Ellipse 69" class="cls-3" cx="91.73" cy="235.04" r="4.21"/><circle id="Ellipse_70" data-name="Ellipse 70" class="cls-3" cx="127.73" cy="235.04" r="4.21"/></g></g></svg>