<svg xmlns="http://www.w3.org/2000/svg" viewBox="0 0 164 172"><defs><style>.cls-1{fill:#aea385;}.cls-2{fill:#94bc94;}.cls-3{fill:#b1dc90;}</style></defs><title>Bush Plant 4</title><g id="Layer_25" data-name="Layer 25"><g id="Component_11_1" data-name="Component 11 1"><path id="Path_8" data-name="Path 8" class="cls-1" d="M142.45,122.51V95.68a8,8,0,0,0-7.88-7.82c-4.25-.19-7.88,3.73-7.88,7.82v.78c-.26,15.25,0,8.68,0,23.93v10.27c0,1.29-.11,2.58-.18,3.87a.24.24,0,0,0,0,.09c-.11.51-.19,1-.3,1.53-.18.8-.39,1.59-.63,2.38s-.48,1.42-.74,2.13c.22-.63-.37.84-.63,1.35a29.43,29.43,0,0,1-1.49,2.62c-.21.34-.43.67-.66,1l-.36.53c-.13.18-.32.43-.4.52l-.79.9c-.6.67-1.23,1.31-1.88,1.93s-1.17,1-1.78,1.54c0,0-1,.68-1.35.93-1.41.92-2.9,1.61-4.39,2.39l-.3.12-1.37.47c-.88.28-1.78.52-2.68.73s-1.64.32-2.46.47c1.91-.36-.5,0-1.06.05-.87,0-1.74.06-2.61.06h-18A38.68,38.68,0,0,0,90.45,140c1.24-5.79,1-11.62,1-17.49V63.9a8,8,0,0,0-7.88-7.82c-4.26-.19-7.88,3.73-7.88,7.82v.78c-.26,15.25,0,10.66,0,25.91v40.07c0,1.29-.11,2.57-.19,3.86a.36.36,0,0,1,0,.1c-.1.51-.19,1-.3,1.53-.18.8-.39,1.59-.63,2.38s-.47,1.42-.73,2.13c.22-.63-.37.84-.63,1.35-.46.89-1,1.77-1.49,2.62-.21.34-.43.67-.66,1l-.36.53-.4.51c-.26.31-.52.61-.79.91q-.9,1-1.89,1.92c-.57.54-1.16,1.05-1.77,1.55,0,0-1,.68-1.35.93-1.41.92-2.91,1.61-4.39,2.39l-.3.12c-.46.15-.91.32-1.37.46-.88.29-1.78.53-2.68.74-.67.16-1.34.27-2,.39h0c.51-.1.27-.08-.17,0s-.68-.08-.17,0h0c-.67-.12-1.34-.23-2-.39-.9-.21-1.8-.45-2.68-.74-.46-.14-.91-.31-1.37-.46l-.3-.12c-1.48-.78-3-1.48-4.39-2.39-.38-.25-1.31-.93-1.35-.93-.61-.5-1.2-1-1.77-1.55s-1.29-1.25-1.89-1.92c-.27-.3-.53-.6-.79-.91l-.4-.51-.36-.53c-.23-.33-.45-.66-.66-1-.53-.85-1-1.72-1.49-2.62-.26-.51-.85-2-.63-1.35-.26-.71-.51-1.41-.73-2.13s-.45-1.58-.63-2.38c-.11-.51-.2-1-.3-1.53,0,0,0-.06,0-.1-.08-1.29-.18-2.57-.19-3.86V90.59c0-15.25.26-30.52,0-45.77V44c0-4.09-3.62-8-7.88-7.82A8,8,0,0,0,15.65,44v78.47c0,5.87-.23,11.7,1,17.49,3.64,17.05,18.56,29.55,35.7,31.62,5.15.62,10.49.3,15.66.3,9.73,0,12.28-.12,22-.12h9a51.25,51.25,0,0,0,7.92-.62l4.26-.67a12.17,12.17,0,0,0,1.59-.35c14-4.2,25.53-15.5,28.66-30.16C142.68,134.22,142.45,128.38,142.45,122.51Zm-88.91,33.6Z"/><g id="Group_285" data-name="Group 285"><path id="Path_9" data-name="Path 9" class="cls-2" d="M105,61.57a8.93,8.93,0,0,0,1.4-17.76A8.89,8.89,0,0,0,103,30.72c0-.14,0-.29,0-.43A16.42,16.42,0,0,0,88.4,14,8.92,8.92,0,0,0,81,0a9,9,0,0,0-7.66,4.26,20,20,0,0,0-31.21,9.07A9,9,0,0,0,27,19.86a9.08,9.08,0,0,0,.1,1.28A16.39,16.39,0,0,0,17,36.25a17.31,17.31,0,0,0,.21,2.49H17a8,8,0,0,0-7.8,6.19,11.41,11.41,0,0,0,2.3,22.61h0a11.49,11.49,0,0,0,10.75-7.4,8,8,0,0,0,12.21-.84A11.51,11.51,0,0,0,57,56.11h0c0-.35,0-.69,0-1a11.51,11.51,0,0,0,5-3.22,13.62,13.62,0,0,0,1.48,1A11.17,11.17,0,0,0,63,56.11,11.46,11.46,0,0,0,74.5,67.53h0a11.54,11.54,0,0,0,8.14-3.35,11.47,11.47,0,0,0,13.73-7.35c.2-.07.39-.13.58-.21A9,9,0,0,0,105,61.57Z"/><path id="Path_10" data-name="Path 10" class="cls-2" d="M164,96.33a8,8,0,0,0-8-8,8,8,0,0,0-8-7.94,7.39,7.39,0,0,0-1.33.12c0-.18-.09-.35-.13-.52A7.87,7.87,0,0,0,148,75.47a8,8,0,0,0-14.25-5,13,13,0,0,0-12.42,10,7.39,7.39,0,0,0-1.33-.12,8,8,0,0,0-8,7.33,11.92,11.92,0,1,0,13.82,16.61,13,13,0,0,0,19.23,1.18,8,8,0,0,0,11.17-1.3A8,8,0,0,0,164,96.33Z"/></g><g id="Group_286" data-name="Group 286"><ellipse id="Ellipse_24" data-name="Ellipse 24" class="cls-3" cx="78.64" cy="27.87" rx="14.36" ry="14.26"/><ellipse id="Ellipse_25" data-name="Ellipse 25" class="cls-3" cx="39" cy="42.41" rx="8.71" ry="8.65"/><ellipse id="Ellipse_26" data-name="Ellipse 26" class="cls-3" cx="134" cy="85.11" rx="8.71" ry="8.65"/><ellipse id="Ellipse_27" data-name="Ellipse 27" class="cls-3" cx="54" cy="13.61" rx="5.71" ry="5.67"/><ellipse id="Ellipse_28" data-name="Ellipse 28" class="cls-3" cx="129.5" cy="100.51" rx="4.21" ry="4.18"/><ellipse id="Ellipse_29" data-name="Ellipse 29" class="cls-3" cx="98.5" cy="46.88" rx="4.21" ry="4.18"/><ellipse id="Ellipse_30" data-name="Ellipse 30" class="cls-3" cx="14.5" cy="54.83" rx="4.21" ry="4.18"/><ellipse id="Ellipse_31" data-name="Ellipse 31" class="cls-3" cx="114.5" cy="97.53" rx="4.21" ry="4.18"/><ellipse id="Ellipse_32" data-name="Ellipse 32" class="cls-3" cx="150.5" cy="97.53" rx="4.21" ry="4.18"/></g></g></g></svg>