<svg xmlns="http://www.w3.org/2000/svg" viewBox="0 0 173 147"><defs><style>.cls-1{fill:#aea385;}.cls-2{fill:#94bc94;}.cls-3{fill:#b1dc90;}</style></defs><title>Bush Plant 3</title><g id="Layer_25" data-name="Layer 25"><g id="Component_12_1" data-name="Component 12 1"><g id="Group_5" data-name="Group 5"><path id="Path_11" data-name="Path 11" class="cls-1" d="M151.45,97.37v-59a8,8,0,0,0-7.88-7.88c-4.25-.19-7.88,3.76-7.88,7.88v.79c-.26,15.35,0,10.73,0,26.09V100.4c0,1.72,0,3.45,0,5.17,0,1.3-.11,2.6-.18,3.89a.36.36,0,0,0,0,.1c-.11.51-.19,1-.3,1.54q-.27,1.2-.63,2.4c-.22.72-.48,1.43-.74,2.14.22-.63-.37.85-.63,1.36-.45.9-.95,1.78-1.49,2.64-.21.34-.43.68-.66,1l-.36.53c-.13.18-.32.43-.4.52-.26.3-.52.61-.79.91-.6.67-1.23,1.32-1.88,1.94s-1.17,1-1.78,1.55c0,0-1,.69-1.35.94a46.71,46.71,0,0,1-4.39,2.4l-.51.2-1.16.4c-.32.1-.65.17-1,.27a38.78,38.78,0,0,0,7-15.33c1.24-5.83,1-11.7,1-17.61v-27a8,8,0,0,0-7.88-7.88c-4.25-.19-7.88,3.76-7.88,7.88v.79c-.25,15.35,0,8.73,0,24.09v10.35c0,1.3-.11,2.59-.18,3.89a.3.3,0,0,0,0,.1c-.11.51-.19,1-.3,1.53q-.27,1.22-.63,2.4c-.22.72-.48,1.43-.74,2.14.22-.63-.37.85-.63,1.37-.45.9-1,1.77-1.49,2.63-.21.34-.43.68-.66,1l-.36.53c-.13.18-.32.43-.4.52-.26.31-.52.61-.79.91-.6.67-1.22,1.32-1.88,1.94s-1.17,1-1.77,1.55c0,0-1,.7-1.36,1-1.41.92-2.9,1.62-4.39,2.4l-.51.19-1.16.4c-.45.15-.92.26-1.38.38-.46-.12-.92-.23-1.38-.38l-1.16-.4-.51-.19c-1.48-.78-3-1.49-4.39-2.4-.38-.25-1.31-.94-1.35-1-.61-.5-1.2-1-1.77-1.55s-1.29-1.27-1.89-1.94c-.27-.3-.53-.6-.79-.91l-.4-.52-.36-.53c-.23-.33-.45-.67-.66-1-.53-.85-1-1.73-1.49-2.63-.26-.52-.85-2-.63-1.37-.26-.71-.52-1.42-.73-2.14s-.45-1.59-.63-2.4c-.11-.51-.2-1-.3-1.53a.44.44,0,0,1,0-.1c-.08-1.3-.18-2.59-.19-3.89V65.23c0-15.36.26-10.74,0-26.09v-.79c0-4.12-3.62-8.07-7.88-7.88a8,8,0,0,0-7.88,7.88v59c0,5.91-.23,11.78,1,17.61a38.93,38.93,0,0,0,7.54,16H60.42l-1.08-.22c-.9-.21-1.8-.46-2.68-.74l-1.16-.4c-.18-.06-.34-.13-.51-.2-1.49-.78-3-1.48-4.39-2.4-.39-.25-1.32-.93-1.36-.94-.6-.5-1.2-1-1.77-1.55s-1.28-1.27-1.89-1.94l-.78-.91c-.08-.09-.27-.34-.4-.52l-.37-.53-.66-1c-.53-.86-1-1.74-1.49-2.64-.26-.51-.85-2-.62-1.36-.26-.71-.52-1.42-.74-2.14s-.45-1.59-.63-2.4c-.11-.51-.2-1-.3-1.54a.36.36,0,0,0,0-.1c-.07-1.3-.18-2.58-.18-3.89V95.23c0-15.36.25-8.74,0-24.1v-.78c0-4.12-3.63-8.07-7.88-7.88a8,8,0,0,0-7.88,7.88v27c0,5.9-.23,11.78,1,17.61C28.25,132,43,144.57,60,146.77L70,147h38l7-.22c17-2.17,31.82-14.72,35.44-31.8C151.68,109.15,151.45,103.28,151.45,97.37Z"/><path id="Path_12" data-name="Path 12" class="cls-2" d="M170.38,30.09A8,8,0,0,0,163,19a8,8,0,0,0-9.83-7.78A11.45,11.45,0,0,0,151,7.76a8,8,0,0,0-15.87-1.07,11.46,11.46,0,0,0-3.67,5.66A8,8,0,0,0,119,19a7.81,7.81,0,0,0,.3,2.15,10,10,0,0,0-8.13,8,16.45,16.45,0,0,0-7.28,2.92,13.09,13.09,0,0,0-3.15.78A13.48,13.48,0,0,0,76.65,27.5,8,8,0,0,0,65.73,29a16.48,16.48,0,0,0-11.37,5.31A8.22,8.22,0,0,0,52,34a8,8,0,0,0-6.63,12.48A8,8,0,0,0,42.58,50a8.26,8.26,0,0,0-1.41.2A11.7,11.7,0,0,0,39,46.76a8,8,0,0,0-15.87-1.07,11.46,11.46,0,0,0-3.67,5.66A8,8,0,0,0,7,58v.07a8,8,0,1,0,4.33,15.2A8,8,0,0,0,26.73,73,13,13,0,0,0,45,71.29,8,8,0,0,0,57.35,61.15a7.6,7.6,0,0,0,.5-1.62,16.38,16.38,0,0,0,17.33,0,11.07,11.07,0,0,0-.18,2,11.5,11.5,0,0,0,21.21,6.15,11.49,11.49,0,0,0,21.23,3.61,11.45,11.45,0,0,0,14.82-2.33A9,9,0,0,0,138,71a8.86,8.86,0,0,0,3.85-.88,8,8,0,0,0,10.94-11.65h0a8,8,0,0,0-3.51-2.14,8,8,0,0,0-8.74-11.19,9,9,0,0,0-2.34-3.66,7.47,7.47,0,0,0,.69-2.16,12.94,12.94,0,0,0,13.2-3A8,8,0,0,0,157,38h.26a8,8,0,1,0,13.12-7.9ZM129.9,26.45l.13-.05c0,.1,0,.2,0,.29Z"/></g><circle id="Ellipse_33" data-name="Ellipse 33" class="cls-3" cx="110.64" cy="52.06" r="14.36"/><circle id="Ellipse_34" data-name="Ellipse 34" class="cls-3" cx="144" cy="17.71" r="8.71"/><circle id="Ellipse_35" data-name="Ellipse 35" class="cls-3" cx="79" cy="36.71" r="8.71"/><circle id="Ellipse_36" data-name="Ellipse 36" class="cls-3" cx="126" cy="28.71" r="5.71"/><circle id="Ellipse_37" data-name="Ellipse 37" class="cls-3" cx="87" cy="58.71" r="5.71"/><circle id="Ellipse_38" data-name="Ellipse 38" class="cls-3" cx="28" cy="60.71" r="5.71"/><circle id="Ellipse_39" data-name="Ellipse 39" class="cls-3" cx="45.5" cy="67.21" r="4.21"/><circle id="Ellipse_40" data-name="Ellipse 40" class="cls-3" cx="137.5" cy="61.21" r="4.21"/><circle id="Ellipse_41" data-name="Ellipse 41" class="cls-3" cx="14.5" cy="56.21" r="4.21"/><circle id="Ellipse_42" data-name="Ellipse 42" class="cls-3" cx="47.5" cy="53.21" r="4.21"/></g></g></svg>