<svg xmlns="http://www.w3.org/2000/svg" viewBox="0 0 172 159"><defs><style>.cls-1{fill:#aea385;}.cls-2{fill:#94bc94;}.cls-3{fill:#b1dc90;}</style></defs><title>Bush Plant 2</title><g id="Layer_25" data-name="Layer 25"><g id="Component_13_1" data-name="Component 13 1"><path id="Path_5" data-name="Path 5" class="cls-1" d="M154.45,109.29V82.35a8,8,0,0,0-7.88-7.86c-4.25-.19-7.88,3.75-7.88,7.86v.78c-.26,15.32,0,8.72,0,24v10.32c0,1.3-.11,2.58-.18,3.88l0,.1c-.1.51-.18,1-.3,1.53-.17.8-.38,1.6-.62,2.39s-.48,1.43-.74,2.14c.22-.63-.37.85-.63,1.36-.45.9-.95,1.77-1.49,2.63-.21.34-.43.67-.66,1l-.36.52c-.13.18-.32.43-.4.52-.26.31-.52.61-.79.91-.6.67-1.23,1.32-1.88,1.94s-1.17,1.05-1.78,1.54c0,0-1,.69-1.35.94-1.41.92-2.9,1.62-4.39,2.4l-.51.19-1.16.4c-.88.28-1.78.53-2.68.74s-1.64.32-2.46.47c1.91-.36-.5,0-1.06,0-.87.05-1.74.06-2.61.06h-5.14c-.87,0-1.74,0-2.61-.06-.56,0-3-.41-1.06,0-.82-.15-1.64-.28-2.46-.47s-1.8-.46-2.68-.74l-1.16-.4-.51-.19c-1.48-.78-3-1.48-4.39-2.4-.39-.25-1.31-.93-1.35-.94-.61-.49-1.2-1-1.78-1.54s-1.28-1.27-1.88-1.94c-.27-.3-.53-.6-.79-.91-.08-.09-.27-.34-.4-.52l-.36-.52c-.23-.34-.45-.67-.66-1-.54-.86-1-1.73-1.49-2.63-.26-.51-.85-2-.63-1.36-.26-.71-.52-1.41-.74-2.14s-.45-1.58-.62-2.39c-.12-.51-.2-1-.3-1.53a.36.36,0,0,1,0-.1c-.08-1.3-.19-2.58-.19-3.88V107.16c0-15.31.26-8.71,0-24v-.78c0-4.11-3.62-8-7.88-7.86a8,8,0,0,0-7.88,7.86v26.94c0,5.9-.23,11.76,1,17.57a38.86,38.86,0,0,0,7.82,16.34h-10c-.87,0-1.73,0-2.6-.06-.57,0-3-.41-1.06,0-.82-.15-1.65-.28-2.46-.47s-1.8-.45-2.68-.74c-.39-.12-.78-.27-1.17-.4l-.51-.19c-1.48-.78-3-1.48-4.39-2.39-.38-.25-1.31-.94-1.35-.94-.61-.5-1.2-1-1.77-1.55s-1.28-1.27-1.89-1.94c-.27-.3-.52-.6-.78-.91-.08-.08-.27-.34-.4-.52l-.37-.52-.66-1c-.53-.85-1-1.73-1.49-2.63-.26-.51-.85-2-.63-1.36-.26-.71-.51-1.41-.73-2.14s-.45-1.58-.63-2.39c-.11-.51-.2-1-.3-1.53,0,0,0-.06,0-.1-.08-1.29-.18-2.58-.19-3.88V77.24c0-15.31.26-30.65,0-46v-.78c0-4.11-3.62-8-7.87-7.86a8,8,0,0,0-7.88,7.86V109.3c0,5.89-.23,11.75,1,17.56,3.64,17.12,18.56,29.68,35.7,31.76,5.15.62,10.49.3,15.66.3h35l9-.48c16.61-2.52,30.89-14.87,34.44-31.57C154.68,121.05,154.45,115.19,154.45,109.29Z"/><g id="Group_287" data-name="Group 287"><path id="Path_6" data-name="Path 6" class="cls-2" d="M169.78,74.49a8,8,0,0,0-3.51-2.13,8,8,0,0,0-8.74-11.16,9,9,0,0,0-7.63-6.09A9,9,0,0,0,139,44.54a9,9,0,0,0-10-9.36,13.51,13.51,0,0,0-22.9,3,12.74,12.74,0,0,0-1.63-.1,13.44,13.44,0,0,0-9.9,4.33,9,9,0,0,0-17.5,3.93,16.47,16.47,0,0,0-7.91,7A7.73,7.73,0,0,0,67,53.08a8,8,0,0,0-8,8,6.51,6.51,0,0,0,0,.77c-.09-.1-.16-.2-.25-.29a8,8,0,0,0-11.32-.26h0A8,8,0,0,0,46,70.87a11.52,11.52,0,0,0-.89,3.21,8,8,0,0,0-4.89,13.43h0a8,8,0,0,0,11.31.26h0a8.24,8.24,0,0,0,1.18-1.44A11.67,11.67,0,0,0,56.5,87a11.49,11.49,0,0,0,8.09-3.32A11.48,11.48,0,0,0,81.05,80.9a8,8,0,0,0,14,4.34,11.49,11.49,0,0,0,18.19-1.6,11.5,11.5,0,0,0,21.23,3.61,11.49,11.49,0,0,0,14.82-2.32A9.05,9.05,0,0,0,155,87a8.86,8.86,0,0,0,3.85-.88,8,8,0,0,0,10.93-11.62Z"/><g id="Group_2" data-name="Group 2"><path id="Path_7" data-name="Path 7" class="cls-2" d="M39,48.09a13,13,0,0,0,11.62-7.17A8,8,0,1,0,62.38,30.23,8,8,0,0,0,55,19.17a8,8,0,0,0-8-8,7.51,7.51,0,0,0-1.83.22A11.49,11.49,0,0,0,34.5,4.21,10.84,10.84,0,0,0,33,4.32a8,8,0,0,0-14.4,6.89A8,8,0,0,0,11,18.55,11.93,11.93,0,0,0,3.34,35.62,8,8,0,1,0,16,42.11s0-.1,0-.15a8,8,0,0,0,13,1.43A13,13,0,0,0,39,48.09Z"/></g></g><g id="Group_289" data-name="Group 289"><g id="Group_288" data-name="Group 288"><ellipse id="Ellipse_19" data-name="Ellipse 19" class="cls-3" cx="24" cy="17.88" rx="8.71" ry="8.69"/><ellipse id="Ellipse_20" data-name="Ellipse 20" class="cls-3" cx="50" cy="28.85" rx="5.71" ry="5.69"/><ellipse id="Ellipse_21" data-name="Ellipse 21" class="cls-3" cx="30.5" cy="39.32" rx="4.21" ry="4.2"/><ellipse id="Ellipse_22" data-name="Ellipse 22" class="cls-3" cx="8.5" cy="35.33" rx="4.21" ry="4.2"/></g><ellipse id="Ellipse_13" data-name="Ellipse 13" class="cls-3" cx="119" cy="48.8" rx="8.71" ry="8.69"/><ellipse id="Ellipse_14" data-name="Ellipse 14" class="cls-3" cx="103" cy="52.79" rx="5.71" ry="5.69"/><ellipse id="Ellipse_15" data-name="Ellipse 15" class="cls-3" cx="140" cy="61.76" rx="5.71" ry="5.69"/><ellipse id="Ellipse_16" data-name="Ellipse 16" class="cls-3" cx="80.5" cy="66.25" rx="4.21" ry="4.2"/><ellipse id="Ellipse_17" data-name="Ellipse 17" class="cls-3" cx="142.5" cy="77.22" rx="4.21" ry="4.2"/><ellipse id="Ellipse_18" data-name="Ellipse 18" class="cls-3" cx="110.5" cy="70.24" rx="4.21" ry="4.2"/><ellipse id="Ellipse_23" data-name="Ellipse 23" class="cls-3" cx="59.5" cy="76.22" rx="4.21" ry="4.2"/></g></g></g></svg>