<svg xmlns="http://www.w3.org/2000/svg" viewBox="0 0 209 125"><defs><style>.cls-1{fill:#84a17f;}.cls-2{fill:#94bc94;}.cls-3{fill:#b1dc90;}</style></defs><title>Bush 3</title><g id="Layer_25" data-name="Layer 25"><g id="Component_16_1" data-name="Component 16 1"><path id="Rectangle_464" data-name="Rectangle 464" class="cls-1" d="M113.61,121.91h0a14,14,0,0,1-16.08-11.63L82.46,17.87A14.1,14.1,0,0,1,94,1.67h0A14,14,0,0,1,110.09,13.3l15.07,92.41A14.1,14.1,0,0,1,113.61,121.91Z"/><path id="Rectangle_465" data-name="Rectangle 465" class="cls-1" d="M111.86,114.46h0A13.93,13.93,0,0,1,92.07,114L27.94,46.18a14.15,14.15,0,0,1,.48-19.92h0a13.93,13.93,0,0,1,19.79.48l64.14,67.8A14.16,14.16,0,0,1,111.86,114.46Z"/><path id="Rectangle_466" data-name="Rectangle 466" class="cls-1" d="M118.64,113.79h0A14,14,0,0,1,102,124.63L11.08,105.06A14.1,14.1,0,0,1,.31,88.33h0A14,14,0,0,1,16.93,77.5l90.94,19.56A14.11,14.11,0,0,1,118.64,113.79Z"/><path id="Rectangle_467" data-name="Rectangle 467" class="cls-2" d="M107.52,120.27h0a14.1,14.1,0,0,1-10.77-16.73L116.19,12A14,14,0,0,1,132.8,1.13h0a14.11,14.11,0,0,1,10.77,16.73l-19.44,91.57A14,14,0,0,1,107.52,120.27Z"/><path id="Rectangle_468" data-name="Rectangle 468" class="cls-2" d="M102.75,122h0A14,14,0,0,1,85,113.27L54.78,24.71a14.11,14.11,0,0,1,8.7-17.9h0a14,14,0,0,1,17.78,8.75l30.19,88.56A14.13,14.13,0,0,1,102.75,122Z"/><path id="Rectangle_469" data-name="Rectangle 469" class="cls-2" d="M113.87,118.34h0a13.94,13.94,0,0,1-19.33,4.3L16.15,72.27A14.16,14.16,0,0,1,11.88,52.8h0a14,14,0,0,1,19.33-4.3L109.6,98.88A14.14,14.14,0,0,1,113.87,118.34Z"/><path id="Rectangle_470" data-name="Rectangle 470" class="cls-1" d="M91.77,114.61h0A14.12,14.12,0,0,1,101.6,97.3l89.72-24.6a14,14,0,0,1,17.18,9.89h0a14.09,14.09,0,0,1-9.82,17.3L109,124.5A14,14,0,0,1,91.77,114.61Z"/><path id="Rectangle_471" data-name="Rectangle 471" class="cls-1" d="M101,121h0a14.14,14.14,0,0,1-4.27-19.46l50-78.93A14,14,0,0,1,166,18.28h0a14.16,14.16,0,0,1,4.27,19.47l-50,78.93A13.94,13.94,0,0,1,101,121Z"/><path id="Rectangle_472" data-name="Rectangle 472" class="cls-2" d="M87.71,115.35h0a14.16,14.16,0,0,1,4.19-19.5l78.2-50.74a13.94,13.94,0,0,1,19.36,4.21h0a14.15,14.15,0,0,1-4.19,19.49l-78.2,50.75A14,14,0,0,1,87.71,115.35Z"/><g id="Group_292" data-name="Group 292"><ellipse id="Ellipse_685" data-name="Ellipse 685" class="cls-3" cx="99.23" cy="14.65" rx="3.5" ry="3.52"/><ellipse id="Ellipse_686" data-name="Ellipse 686" class="cls-3" cx="54.31" cy="63" rx="3.5" ry="3.52"/><ellipse id="Ellipse_687" data-name="Ellipse 687" class="cls-3" cx="193.43" cy="86.04" rx="3.5" ry="3.52"/><ellipse id="Ellipse_688" data-name="Ellipse 688" class="cls-3" cx="172.85" cy="96.03" rx="3.5" ry="3.52"/><ellipse id="Ellipse_689" data-name="Ellipse 689" class="cls-3" cx="97.99" cy="43.43" rx="5" ry="5.03"/><ellipse id="Ellipse_690" data-name="Ellipse 690" class="cls-3" cx="45.56" cy="34.67" rx="5" ry="5.03"/><ellipse id="Ellipse_691" data-name="Ellipse 691" class="cls-3" cx="136.69" cy="58.84" rx="5" ry="5.03"/><ellipse id="Ellipse_692" data-name="Ellipse 692" class="cls-3" cx="157.05" cy="32.23" rx="3.5" ry="3.52"/><ellipse id="Ellipse_693" data-name="Ellipse 693" class="cls-3" cx="134.41" cy="18.13" rx="3.5" ry="3.52"/><ellipse id="Ellipse_694" data-name="Ellipse 694" class="cls-3" cx="115.02" cy="55.26" rx="3.5" ry="3.52"/><ellipse id="Ellipse_695" data-name="Ellipse 695" class="cls-3" cx="179.21" cy="58.46" rx="4.5" ry="4.53"/><ellipse id="Ellipse_696" data-name="Ellipse 696" class="cls-3" cx="27.25" cy="62.19" rx="4.5" ry="4.53"/><ellipse id="Ellipse_697" data-name="Ellipse 697" class="cls-3" cx="52.19" cy="83.25" rx="4.5" ry="4.53"/><ellipse id="Ellipse_698" data-name="Ellipse 698" class="cls-3" cx="83.98" cy="77.81" rx="4.5" ry="4.53"/><ellipse id="Ellipse_699" data-name="Ellipse 699" class="cls-3" cx="151.9" cy="63.2" rx="3" ry="3.02"/><ellipse id="Ellipse_700" data-name="Ellipse 700" class="cls-3" cx="60.32" cy="28.98" rx="3" ry="3.02"/><ellipse id="Ellipse_701" data-name="Ellipse 701" class="cls-3" cx="143.01" cy="88.79" rx="3" ry="3.02"/><ellipse id="Ellipse_702" data-name="Ellipse 702" class="cls-3" cx="68.31" cy="97.15" rx="3" ry="3.02"/><ellipse id="Ellipse_703" data-name="Ellipse 703" class="cls-3" cx="89.7" cy="59.92" rx="3" ry="3.02"/><ellipse id="Ellipse_704" data-name="Ellipse 704" class="cls-3" cx="14.07" cy="92.5" rx="5" ry="5.03"/></g></g></g></svg>