<svg xmlns="http://www.w3.org/2000/svg" viewBox="0 0 147 152"><defs><style>.cls-1{fill:#aea385;}.cls-2{fill:#94bc94;}.cls-3{fill:#b1dc90;}</style></defs><title>Bush Plant 1</title><g id="Layer_25" data-name="Layer 25"><g id="Component_14_1" data-name="Component 14 1"><path id="Path_1" data-name="Path 1" class="cls-1" d="M128.45,102.44v-27a8,8,0,0,0-7.88-7.87c-4.25-.19-7.88,3.75-7.88,7.87v.78c-.26,15.34,0,8.73,0,24.06v10.33c0,1.3-.11,2.59-.18,3.89a.3.3,0,0,0,0,.1c-.11.51-.19,1-.3,1.53q-.27,1.2-.63,2.4c-.22.72-.48,1.43-.74,2.13.22-.62-.37.85-.63,1.37-.45.9-1,1.77-1.49,2.63-.21.34-.43.67-.66,1l-.36.52c-.13.19-.32.44-.4.53-.26.3-.52.61-.79.9-.6.68-1.23,1.32-1.88,1.94s-1.17,1-1.78,1.55c0,0-1,.69-1.35.94-1.41.92-2.9,1.62-4.39,2.4l-.51.19c-.39.13-.77.28-1.16.4-.88.29-1.78.53-2.68.75l-1.08.21H82.43c-.37-.06-.73-.13-1.09-.21-.9-.21-1.79-.46-2.68-.75-.39-.12-.77-.27-1.16-.4l-.51-.19c-1.48-.78-3-1.48-4.39-2.4-.38-.25-1.31-.93-1.35-.94-.61-.5-1.2-1-1.77-1.55s-1.29-1.26-1.89-1.94c-.27-.29-.53-.59-.79-.9-.08-.09-.27-.34-.4-.53l-.36-.52c-.23-.33-.45-.67-.66-1-.54-.86-1-1.73-1.49-2.63-.26-.52-.85-2-.63-1.37-.26-.7-.52-1.41-.74-2.13s-.44-1.59-.62-2.4c-.12-.51-.2-1-.3-1.53a.36.36,0,0,1,0-.1c-.08-1.3-.19-2.59-.19-3.89V70.35c0-15.34.26-30.7,0-46v-.79c0-4.11-3.62-8-7.88-7.86a8,8,0,0,0-7.88,7.86v78.91c0,5.9-.23,11.77,1,17.59a38.94,38.94,0,0,0,7,15.3l-1-.27c-.39-.12-.77-.27-1.16-.4l-.51-.19c-1.48-.78-3-1.48-4.39-2.4-.38-.25-1.31-.93-1.35-.94-.61-.5-1.2-1-1.77-1.55s-1.29-1.27-1.89-1.94c-.27-.3-.53-.6-.79-.91-.07-.08-.26-.34-.4-.52l-.36-.52c-.23-.34-.45-.67-.66-1-.53-.86-1-1.73-1.49-2.64-.26-.51-.85-2-.63-1.36-.26-.71-.51-1.41-.73-2.14s-.45-1.58-.63-2.39c-.11-.51-.2-1-.3-1.53,0,0,0-.07,0-.1-.08-1.3-.18-2.59-.19-3.89V100.3c0-15.33.26-8.72,0-24.06v-.78c0-4.12-3.62-8.06-7.88-7.87a8,8,0,0,0-7.87,7.87v27c0,5.9-.23,11.76,1,17.58,3.61,17,18.36,29.55,35.36,31.75l2,.23H90l7.11-1.2c14.81-3.79,27.08-15.45,30.33-30.78C128.68,114.21,128.45,108.34,128.45,102.44Z"/><g id="Group_290" data-name="Group 290"><path id="Path_2" data-name="Path 2" class="cls-2" d="M45.24,70.13c-.09-.24-.2-.47-.3-.71A11.35,11.35,0,0,0,46,64.62a11.48,11.48,0,0,0-10.21-11.4A9,9,0,0,0,18,55.14a8.72,8.72,0,0,0,.06,1l-.56,0A11.47,11.47,0,0,0,8,74.11H8a8,8,0,1,0,3,15.38c0,.2,0,.4,0,.6a8,8,0,1,0,15.51-2.73l.51-.19A8.5,8.5,0,1,0,43.85,86a7.33,7.33,0,0,0,1.15.09,8,8,0,0,0,.24-16Z"/><path id="Path_3" data-name="Path 3" class="cls-2" d="M85.38,22.28A8,8,0,0,0,78,11.2a8,8,0,0,0-8-8,8.23,8.23,0,0,0-1.64.17A8,8,0,0,0,62,.22a8.05,8.05,0,0,0-3,.56,11.52,11.52,0,0,0-12.57,3.8,8,8,0,0,0-12.45,6,12,12,0,0,0-7.69,17.09,8,8,0,1,0,11.51,10.6A8,8,0,0,0,51.48,36a6.26,6.26,0,0,0,.51-.52,13,13,0,0,0,10,4.7A13.23,13.23,0,0,0,64,40a8,8,0,0,0,15-3.83V36.1a8.39,8.39,0,0,0,1,.06,8,8,0,0,0,5.38-13.88Z"/><path id="Path_4" data-name="Path 4" class="cls-2" d="M144.38,69.21A8,8,0,0,0,137,58.13a8.27,8.27,0,0,0-2,.26,8,8,0,0,0-10.43-11.91,11.46,11.46,0,0,0-13.78-1.81,8.18,8.18,0,0,0-2.81-.52,8,8,0,0,0-7.75,6,8,8,0,0,0-5.2,13.28,6.89,6.89,0,0,0-1,3.66,6.32,6.32,0,0,0,.09,1.06,8,8,0,1,0,5.29,14.61,8,8,0,0,0,12.69-2,9,9,0,0,0,15.82-4.36,8.08,8.08,0,0,0,3.11.63l.26,0a8,8,0,1,0,13.12-7.88Z"/></g><g id="Group_291" data-name="Group 291"><ellipse id="Ellipse_1" data-name="Ellipse 1" class="cls-3" cx="56" cy="16.9" rx="8.71" ry="8.7"/><ellipse id="Ellipse_2" data-name="Ellipse 2" class="cls-3" cx="128.35" cy="67.19" rx="6.35" ry="6.34"/><ellipse id="Ellipse_3" data-name="Ellipse 3" class="cls-3" cx="29" cy="73.82" rx="5.71" ry="5.7"/><ellipse id="Ellipse_4" data-name="Ellipse 4" class="cls-3" cx="109" cy="56.84" rx="5.71" ry="5.7"/><ellipse id="Ellipse_5" data-name="Ellipse 5" class="cls-3" cx="79.5" cy="24.39" rx="4.21" ry="4.2"/><ellipse id="Ellipse_6" data-name="Ellipse 6" class="cls-3" cx="39.5" cy="77.32" rx="4.21" ry="4.2"/><ellipse id="Ellipse_7" data-name="Ellipse 7" class="cls-3" cx="28.5" cy="59.34" rx="4.21" ry="4.2"/><ellipse id="Ellipse_8" data-name="Ellipse 8" class="cls-3" cx="15.5" cy="77.32" rx="4.21" ry="4.2"/><ellipse id="Ellipse_9" data-name="Ellipse 9" class="cls-3" cx="124.5" cy="55.35" rx="4.21" ry="4.2"/><ellipse id="Ellipse_10" data-name="Ellipse 10" class="cls-3" cx="110.5" cy="70.33" rx="4.21" ry="4.2"/><ellipse id="Ellipse_11" data-name="Ellipse 11" class="cls-3" cx="62.5" cy="32.38" rx="4.21" ry="4.2"/><ellipse id="Ellipse_12" data-name="Ellipse 12" class="cls-3" cx="39.5" cy="27.39" rx="4.21" ry="4.2"/></g></g></g></svg>