<svg xmlns="http://www.w3.org/2000/svg" viewBox="0 0 215 126"><defs><style>.cls-1{fill:#84a17f;}.cls-2{fill:#94bc94;}.cls-3{fill:#b1dc90;}</style></defs><title>Bush 1</title><g id="Layer_25" data-name="Layer 25"><g id="Component_17_1" data-name="Component 17 1"><path id="Rectangle_455" data-name="Rectangle 455" class="cls-1" d="M113.75,0h0a14,14,0,0,1,13.18,14.82l-5.4,93A14,14,0,0,1,106.72,121h0a14,14,0,0,1-13.18-14.81l5.41-93A14,14,0,0,1,113.75,0Z"/><path id="Rectangle_456" data-name="Rectangle 456" class="cls-1" d="M183.91,31.12h0a14,14,0,0,1,.2,19.84l-65.17,66.56a14,14,0,0,1-19.83.2h0a14,14,0,0,1-.2-19.84l65.18-66.56A14,14,0,0,1,183.91,31.12Z"/><path id="Rectangle_457" data-name="Rectangle 457" class="cls-1" d="M214.49,83.18h0a14,14,0,0,1-9.77,17.26L115,125.32a14,14,0,0,1-17.25-9.77h0a14,14,0,0,1,9.76-17.26L197.23,73.4A14,14,0,0,1,214.49,83.18Z"/><path id="Rectangle_458" data-name="Rectangle 458" class="cls-2" d="M74.54,9.23h0A14,14,0,0,1,92.07,18.5l27.44,89.06a14,14,0,0,1-9.27,17.54h0a14,14,0,0,1-17.53-9.28l-27.43-89A14,14,0,0,1,74.54,9.23Z"/><path id="Rectangle_459" data-name="Rectangle 459" class="cls-2" d="M154.13,14h0a14,14,0,0,1,7.13,18.52l-37.79,85.17a14,14,0,0,1-18.5,7.13h0a14,14,0,0,1-7.13-18.52L135.63,21.1A14,14,0,0,1,154.13,14Z"/><path id="Rectangle_460" data-name="Rectangle 460" class="cls-2" d="M201.28,54.85h0a14,14,0,0,1-4.55,19.31l-79.21,49a14,14,0,0,1-19.3-4.56h0a14,14,0,0,1,4.55-19.31L182,50.3A14,14,0,0,1,201.28,54.85Z"/><path id="Rectangle_461" data-name="Rectangle 461" class="cls-1" d="M.44,84.25h0A14,14,0,0,1,17.5,74.13l90.24,23.11a14,14,0,0,1,10.11,17.08h0a14,14,0,0,1-17.07,10.11L10.55,101.32A14,14,0,0,1,.44,84.25Z"/><path id="Rectangle_462" data-name="Rectangle 462" class="cls-1" d="M46.5,24.92h0a14,14,0,0,1,19.59,3.13l54.66,75.48a14,14,0,0,1-3.13,19.6h0A14,14,0,0,1,98,120L43.38,44.52A14,14,0,0,1,46.5,24.92Z"/><path id="Rectangle_463" data-name="Rectangle 463" class="cls-2" d="M22.38,51.83h0a14,14,0,0,1,19.44-3.92L119.37,99.5A14,14,0,0,1,123.28,119h0a14,14,0,0,1-19.43,3.92L26.3,71.28A14,14,0,0,1,22.38,51.83Z"/><g id="Group_294" data-name="Group 294"><circle id="Ellipse_665" data-name="Ellipse 665" class="cls-3" cx="113.17" cy="18.56" r="3.5"/><circle id="Ellipse_666" data-name="Ellipse 666" class="cls-3" cx="157.47" cy="67.32" r="3.5"/><circle id="Ellipse_667" data-name="Ellipse 667" class="cls-3" cx="17.83" cy="88.28" r="3.5"/><circle id="Ellipse_668" data-name="Ellipse 668" class="cls-3" cx="38.3" cy="98.51" r="3.5"/><circle id="Ellipse_669" data-name="Ellipse 669" class="cls-3" cx="114.01" cy="47.22" r="5.01"/><circle id="Ellipse_670" data-name="Ellipse 670" class="cls-3" cx="166.63" cy="39.25" r="5.01"/><circle id="Ellipse_671" data-name="Ellipse 671" class="cls-3" cx="75.03" cy="62.01" r="5.01"/><circle id="Ellipse_672" data-name="Ellipse 672" class="cls-3" cx="55.03" cy="35.24" r="3.5"/><circle id="Ellipse_673" data-name="Ellipse 673" class="cls-3" cx="77.9" cy="21.52" r="3.5"/><circle id="Ellipse_674" data-name="Ellipse 674" class="cls-3" cx="96.79" cy="58.76" r="3.5"/><circle id="Ellipse_675" data-name="Ellipse 675" class="cls-3" cx="32.46" cy="61.03" r="4.51"/><circle id="Ellipse_676" data-name="Ellipse 676" class="cls-3" cx="184.58" cy="66.9" r="4.51"/><circle id="Ellipse_677" data-name="Ellipse 677" class="cls-3" cx="159.31" cy="87.51" r="4.51"/><circle id="Ellipse_678" data-name="Ellipse 678" class="cls-3" cx="127.55" cy="81.64" r="4.51"/><circle id="Ellipse_679" data-name="Ellipse 679" class="cls-3" cx="59.75" cy="66.13" r="3"/><circle id="Ellipse_680" data-name="Ellipse 680" class="cls-3" cx="151.93" cy="33.37" r="3"/><circle id="Ellipse_681" data-name="Ellipse 681" class="cls-3" cx="68.29" cy="91.73" r="3"/><circle id="Ellipse_682" data-name="Ellipse 682" class="cls-3" cx="142.97" cy="101.11" r="3"/><circle id="Ellipse_683" data-name="Ellipse 683" class="cls-3" cx="122.07" cy="63.75" r="3"/><circle id="Ellipse_684" data-name="Ellipse 684" class="cls-3" cx="197.35" cy="97.25" r="5.01"/></g></g></g></svg>