<svg xmlns="http://www.w3.org/2000/svg" viewBox="0 0 186 123"><defs><style>.cls-1{fill:#84a17f;}.cls-2{fill:#94bc94;}.cls-3{fill:#b1dc90;}</style></defs><title>Bush 2</title><g id="Layer_25" data-name="Layer 25"><g id="Component_15_1" data-name="Component 15 1"><path id="Rectangle_473" data-name="Rectangle 473" class="cls-1" d="M132.42,1.63h0a14.16,14.16,0,0,1,7.51,18.47L104,106.61a14,14,0,0,1-18.32,7.57h0a14.15,14.15,0,0,1-7.51-18.47L114.09,9.2A14,14,0,0,1,132.42,1.63Z"/><path id="Rectangle_474" data-name="Rectangle 474" class="cls-1" d="M183.46,46.49h0A14.18,14.18,0,0,1,180,66.15L103.85,120a13.93,13.93,0,0,1-19.51-3.46h0a14.19,14.19,0,0,1,3.44-19.66L164,43A13.92,13.92,0,0,1,183.46,46.49Z"/><path id="Rectangle_475" data-name="Rectangle 475" class="cls-2" d="M94.26,1.07h0a14.07,14.07,0,0,1,13.45,14.65l-3.64,93.71A14.05,14.05,0,0,1,89.54,123h0a14.08,14.08,0,0,1-13.45-14.66l3.63-93.71A14,14,0,0,1,94.26,1.07Z"/><path id="Rectangle_476" data-name="Rectangle 476" class="cls-2" d="M161.93,30h0a14.21,14.21,0,0,1,.59,20L98.71,118.22a13.93,13.93,0,0,1-19.8.59h0a14.2,14.2,0,0,1-.59-20l63.81-68.27A13.92,13.92,0,0,1,161.93,30Z"/><path id="Rectangle_477" data-name="Rectangle 477" class="cls-1" d="M3.14,40.11h0a13.93,13.93,0,0,1,19.7-2L95,97.24a14.21,14.21,0,0,1,2,19.87h0a13.93,13.93,0,0,1-19.7,2L5.17,60A14.2,14.2,0,0,1,3.14,40.11Z"/><path id="Rectangle_478" data-name="Rectangle 478" class="cls-1" d="M56.34,3.11h0a14,14,0,0,1,17.41,9.51l26.47,89.9a14.13,14.13,0,0,1-9.43,17.55h0a14,14,0,0,1-17.41-9.51L46.9,20.66A14.12,14.12,0,0,1,56.34,3.11Z"/><path id="Rectangle_479" data-name="Rectangle 479" class="cls-2" d="M29.15,21.29h0a13.93,13.93,0,0,1,19.61,2.77l56,74.84A14.19,14.19,0,0,1,102,118.66h0a13.91,13.91,0,0,1-19.6-2.77l-56-74.83A14.19,14.19,0,0,1,29.15,21.29Z"/><g id="Group_293" data-name="Group 293"><ellipse id="Ellipse_705" data-name="Ellipse 705" class="cls-3" cx="125.73" cy="19.03" rx="3.5" ry="3.53"/><ellipse id="Ellipse_706" data-name="Ellipse 706" class="cls-3" cx="151.33" cy="80.12" rx="3.5" ry="3.53"/><ellipse id="Ellipse_707" data-name="Ellipse 707" class="cls-3" cx="12.81" cy="53.37" rx="3.5" ry="3.53"/><ellipse id="Ellipse_708" data-name="Ellipse 708" class="cls-3" cx="28.71" cy="69.92" rx="3.5" ry="3.53"/><ellipse id="Ellipse_709" data-name="Ellipse 709" class="cls-3" cx="117.03" cy="46.52" rx="5" ry="5.04"/><ellipse id="Ellipse_710" data-name="Ellipse 710" class="cls-3" cx="169.26" cy="56.53" rx="5" ry="5.04"/><ellipse id="Ellipse_711" data-name="Ellipse 711" class="cls-3" cx="75.41" cy="47.54" rx="5" ry="5.04"/><ellipse id="Ellipse_712" data-name="Ellipse 712" class="cls-3" cx="65.42" cy="15.45" rx="3.5" ry="3.53"/><ellipse id="Ellipse_713" data-name="Ellipse 713" class="cls-3" cx="91.51" cy="10.06" rx="3.5" ry="3.53"/><ellipse id="Ellipse_714" data-name="Ellipse 714" class="cls-3" cx="96.98" cy="51.72" rx="3.5" ry="3.53"/><ellipse id="Ellipse_715" data-name="Ellipse 715" class="cls-3" cx="35.62" cy="32.38" rx="4.5" ry="4.54"/><ellipse id="Ellipse_716" data-name="Ellipse 716" class="cls-3" cx="118.4" cy="83.71" rx="4.5" ry="4.54"/><ellipse id="Ellipse_717" data-name="Ellipse 717" class="cls-3" cx="59.64" cy="46.35" rx="3" ry="3.03"/><ellipse id="Ellipse_718" data-name="Ellipse 718" class="cls-3" cx="157.35" cy="46.04" rx="3" ry="3.03"/><ellipse id="Ellipse_719" data-name="Ellipse 719" class="cls-3" cx="59.21" cy="73.5" rx="3" ry="3.03"/><ellipse id="Ellipse_720" data-name="Ellipse 720" class="cls-3" cx="119.16" cy="64.9" rx="3" ry="3.03"/></g></g></g></svg>