<svg xmlns="http://www.w3.org/2000/svg" viewBox="0 0 145 162"><defs><style>.cls-1{fill:#3d5363;}.cls-2{fill:#2e4451;}.cls-3{fill:#896a6a;}.cls-4{fill:#684b4b;}.cls-5{fill:#fff;}</style></defs><title>Down Sign</title><g id="Layer_25" data-name="Layer 25"><rect class="cls-1" x="57.24" y="86.66" width="32.81" height="75.34"/><polygon class="cls-2" points="90.05 94 57.24 92 57.24 86.66 90.05 86.66 90.05 94"/><rect class="cls-3" x="63.49" y="95.17" width="7.29" height="58.93" rx="3.65" transform="translate(134.27 249.27) rotate(-180)"/><rect class="cls-3" x="9.36" y="35.07" width="14" height="30.72" transform="translate(-34.76 64.46) rotate(-87.37)"/><path class="cls-3" d="M34,1.18,24.38.74a21.09,21.09,0,0,0-22,20.1l0,.91L33,23.16Z"/><rect class="cls-3" x="12.67" y="17.58" width="9" height="30.72" transform="translate(-16.53 48.58) rotate(-87.37)"/><path class="cls-3" d="M31.11,64.12.43,62.71.37,64A20.79,20.79,0,0,0,.7,68.73l30.14,1.38Z"/><path class="cls-3" d="M2.83,74.83A21,21,0,0,0,20.47,86l9.62.44.47-10.35Z"/><rect class="cls-4" x="14.51" y="10.09" width="6" height="30.72" transform="matrix(0.05, -1, 1, 0.05, -8.72, 41.78)"/><rect class="cls-4" x="13.82" y="25.08" width="6" height="30.72" transform="translate(-24.34 55.39) rotate(-87.37)"/><rect class="cls-4" x="12.91" y="45.06" width="6" height="30.72" transform="translate(-45.17 73.53) rotate(-87.37)"/><path class="cls-4" d="M30.84,70.11.7,68.73a21.05,21.05,0,0,0,2.13,6.1L30.56,76.1Z"/><rect class="cls-1" x="7.28" y="3.14" width="136.72" height="85.36" rx="21.09" transform="matrix(1, 0.05, -0.05, 1, 2.18, -3.42)"/><rect class="cls-3" x="93.63" y="9.09" width="7" height="3" rx="1.5" transform="translate(0.59 -4.44) rotate(2.63)"/><rect class="cls-3" x="58.66" y="8.08" width="33" height="3" rx="1.5" transform="translate(0.52 -3.44) rotate(2.63)"/><rect class="cls-3" x="46.68" y="6.93" width="7" height="3" rx="1.5" transform="translate(0.44 -2.29) rotate(2.63)"/><rect class="cls-3" x="72.26" y="82.44" width="18" height="3" rx="1.5" transform="translate(3.93 -3.64) rotate(2.63)"/><rect class="cls-3" x="95.24" y="83.24" width="7" height="3" rx="1.5" transform="translate(3.99 -4.44) rotate(2.63)"/><circle class="cls-2" cx="125.71" cy="31.42" r="4"/><circle class="cls-2" cx="59.64" cy="31.39" r="4"/><circle class="cls-2" cx="44.13" cy="53.2" r="2.5"/><circle class="cls-2" cx="102.97" cy="57.9" r="2.5"/><circle class="cls-2" cx="23.42" cy="46.24" r="2.5"/><circle class="cls-2" cx="128.62" cy="66.09" r="2.5"/><circle class="cls-2" cx="104.58" cy="22.94" r="1.5"/><circle class="cls-2" cx="22.21" cy="7.15" r="1.5"/><circle class="cls-2" cx="43.25" cy="72.18" r="1.5"/><circle class="cls-2" cx="32.29" cy="27.63" r="1.5"/><rect class="cls-5" x="64.35" y="15.75" width="11.73" height="61.24" rx="5.86" transform="translate(153.35 33.31) rotate(137.63)"/><rect class="cls-5" x="74.56" y="51.28" width="11.73" height="25.1" rx="5.86" transform="translate(147.88 -13.58) rotate(92.63)"/><rect class="cls-5" x="81.21" y="45.22" width="11.73" height="25.1" rx="5.86" transform="translate(171.41 119.47) rotate(-177.37)"/></g></svg>