<svg xmlns="http://www.w3.org/2000/svg" viewBox="0 0 143 161"><defs><style>.cls-1{fill:#896a6a;}.cls-2{fill:#684b4b;}.cls-3{fill:#3d5363;}.cls-4{fill:#2e4451;}.cls-5{fill:#fff;}</style></defs><title>Exclamation Sign</title><g id="Layer_25" data-name="Layer 25"><rect class="cls-1" x="0.28" y="43" width="30.72" height="14"/><path class="cls-1" d="M31,0H21.37A21.09,21.09,0,0,0,.28,21.09V22H31Z"/><rect class="cls-1" x="0.28" y="28" width="30.72" height="9"/><path class="cls-1" d="M31,63H.28v1.27A21.63,21.63,0,0,0,.83,69H31Z"/><path class="cls-1" d="M3.24,75A21.06,21.06,0,0,0,21.37,85.36H31V75Z"/><rect class="cls-2" x="0.28" y="22" width="30.72" height="6"/><rect class="cls-2" x="0.28" y="37" width="30.72" height="6"/><rect class="cls-2" x="0.28" y="57" width="30.72" height="6"/><path class="cls-2" d="M31,69H.83a21.14,21.14,0,0,0,2.41,6H31Z"/><rect class="cls-3" x="6.28" width="136.72" height="85.36" rx="21.09"/><rect class="cls-3" x="56.24" y="85.66" width="32.81" height="75.34"/><rect class="cls-4" x="56.24" y="85.66" width="32.81" height="7.34"/><rect class="cls-1" x="62.49" y="94.17" width="7.29" height="58.93" rx="3.65" transform="translate(132.27 247.27) rotate(-180)"/><rect class="cls-5" x="67.57" y="12.76" width="11.73" height="43.75" rx="5.86"/><rect class="cls-5" x="67.57" y="60.57" width="11.73" height="11.73" rx="5.86"/><rect class="cls-1" x="64" y="5" width="63" height="3" rx="1.5"/><rect class="cls-1" x="55" y="5" width="7" height="3" rx="1.5"/><rect class="cls-1" x="44" y="5" width="7" height="3" rx="1.5"/><rect class="cls-1" x="39" y="79" width="18" height="3" rx="1.5"/><rect class="cls-1" x="28" y="79" width="7" height="3" rx="1.5"/><circle class="cls-4" cx="121" cy="53" r="4"/><circle class="cls-4" cx="58" cy="29" r="4"/><circle class="cls-4" cx="31.5" cy="35.5" r="2.5"/><circle class="cls-4" cx="91.5" cy="45.5" r="2.5"/><circle class="cls-4" cx="18.5" cy="65.5" r="2.5"/><circle class="cls-4" cx="122.5" cy="72.5" r="2.5"/><circle class="cls-4" cx="102.5" cy="18.5" r="1.5"/><circle class="cls-4" cx="19.5" cy="6.5" r="1.5"/><circle class="cls-4" cx="43.5" cy="70.5" r="1.5"/><circle class="cls-4" cx="41.5" cy="16.5" r="1.5"/></g></svg>