<svg xmlns="http://www.w3.org/2000/svg" viewBox="0 0 2208 803"><defs><style>.cls-1{fill:#d2ebea;}</style></defs><title>Forest Back</title><g id="Sky_amd_Clouds" data-name="Sky amd Clouds"><path class="cls-1" d="M2207.88,178.83a37.12,37.12,0,0,0-6.44-16.48,25.49,25.49,0,0,0-5.44-22.42q.12-1.2.12-2.43a25.5,25.5,0,0,0-43.56-18,25.5,25.5,0,0,0-36.46-8,25.54,25.54,0,0,0-23-15.54,25.48,25.48,0,0,0-15.53-8.7,25.51,25.51,0,0,0-38.91-8.66,25.52,25.52,0,0,0-38.12,7.15,25.52,25.52,0,0,0-35.57,5.79,26.39,26.39,0,0,0,.19-3.08,25.5,25.5,0,0,0-49.65-8.21,25.51,25.51,0,0,0-40.91,7.31,25.52,25.52,0,0,0-32.69-6.19,25.51,25.51,0,0,0-45.74,6.94,25.5,25.5,0,0,0-38.91-2.51,25.51,25.51,0,0,0-48.64,4.79,25.5,25.5,0,0,0-43.23,5.43c-.58,0-1.15-.06-1.73-.06a25.43,25.43,0,0,0-18.5,8,25.5,25.5,0,0,0-35.5-1.46,25.5,25.5,0,0,0-39.84-8.14,25.51,25.51,0,0,0-47.28-8.56,25.52,25.52,0,0,0-27.38-1.52,25.36,25.36,0,0,0-12.5-3.27l-1.09,0a25.5,25.5,0,0,0-45.69-9.3,25.6,25.6,0,0,0-15.88-.84,25.51,25.51,0,0,0-32.34-5.32,25.6,25.6,0,0,0-20.38-2.48,25.51,25.51,0,0,0-36.87-.4,25.54,25.54,0,0,0-29.64-9.09,25.5,25.5,0,0,0-42.61,18.91c0,.7,0,1.39.08,2.08a25.49,25.49,0,0,0-31.08,1.48,25.49,25.49,0,0,0-33.3.26,25.51,25.51,0,0,0-39.49,17.84,25.51,25.51,0,0,0-41.4,8.87c-.43,0-.87,0-1.31,0a25.46,25.46,0,0,0-18.26,7.69,25.51,25.51,0,0,0-39.46,14.5,25.5,25.5,0,0,0-37.78-18.92,25.36,25.36,0,0,0-12.5-3.27c-.77,0-1.54,0-2.29.1a25.5,25.5,0,0,0-49,12.9h-.49a25.5,25.5,0,0,0-35.11-5.22,25.5,25.5,0,0,0-48.64,10.72c0,.56,0,1.12,0,1.68l-.59.1A25.51,25.51,0,0,0,823.17,112a25.48,25.48,0,0,0-21.28,12.15A25.54,25.54,0,0,0,767.56,139a25.25,25.25,0,0,0-3.62-1.22c-.59-.55-1.2-1.06-1.84-1.55a25.5,25.5,0,0,0-41.45-29.61,25.53,25.53,0,0,0-35-18.6,25.49,25.49,0,0,0-21-11c-.78,0-1.54,0-2.29.1a25.51,25.51,0,0,0-45.21-4.32A25.53,25.53,0,0,0,587,62.48c.05-.65.08-1.31.08-2a25.5,25.5,0,0,0-42.89-18.65,25.51,25.51,0,0,0-46.11-2.36,25.5,25.5,0,0,0-42.52-3.78,25.67,25.67,0,0,0-6-.71,25.36,25.36,0,0,0-10.77,2.38,25.55,25.55,0,0,0-28.61-10.3,25.51,25.51,0,0,0-31.12-4.81A25.52,25.52,0,0,0,348,27.08,25.58,25.58,0,0,0,340.62,26a25.3,25.3,0,0,0-6.54.85c0-.45,0-.9,0-1.35a25.51,25.51,0,0,0-50.56-4.78,25.6,25.6,0,0,0-9.33,4.44A25.5,25.5,0,0,0,233.93,35c-.43,0-.87,0-1.31,0A25.45,25.45,0,0,0,212,45.56a25.8,25.8,0,0,0-5.33-.56,25.42,25.42,0,0,0-13.39,3.79,25.55,25.55,0,0,0-23.77.29A25.5,25.5,0,0,0,130.12,70.5a25.94,25.94,0,0,0,.3,3.94A25.52,25.52,0,0,0,93.81,87.35a25.51,25.51,0,0,0-29.37,9.94A25.89,25.89,0,0,0,60.61,97a25.5,25.5,0,0,0-25.49,25h-.51a25.5,25.5,0,0,0-25.5,25.5,25.2,25.2,0,0,0,.42,4.59C3.46,161.72.22,171.72.12,182V803H2207.88Z"/></g></svg>