<svg xmlns="http://www.w3.org/2000/svg" viewBox="0 0 2208 523"><defs><style>.cls-1{fill:#c9ddd6;}</style></defs><title>Forest Front</title><g id="Sky_amd_Clouds" data-name="Sky amd Clouds"><path id="Subtraction_30" data-name="Subtraction 30" class="cls-1" d="M2208,523.48H0V84.07a34.89,34.89,0,0,1,5.48.85A37.26,37.26,0,0,1,57.81,68.44a37.26,37.26,0,0,1,49.75,11.83,37.16,37.16,0,0,1,31.15-16.79,38,38,0,0,1,5.63.42,37.38,37.38,0,0,1,13.25-12.63,37.5,37.5,0,0,1,33.34-1.64A37.2,37.2,0,0,1,203,58.18a37.3,37.3,0,0,1,51.85-2.33,36.53,36.53,0,0,1,4.48-12,37.06,37.06,0,0,1,8.14-9.63,37.21,37.21,0,0,1,24-8.71,37.12,37.12,0,0,1,22.38,7.45,37.46,37.46,0,0,1,5.69,5.28,36.59,36.59,0,0,1,4.77-11.43,37.27,37.27,0,0,1,65.19,4.08,36.84,36.84,0,0,1,8.35-3.23A37.5,37.5,0,0,1,407,26.49a37.17,37.17,0,0,1,34.26,22.6,36.52,36.52,0,0,1,2.92,14.4c0,.34,0,.71,0,1.1a37.5,37.5,0,0,1,30.58,5.72,36.72,36.72,0,0,1,7.64-12.13,37.19,37.19,0,0,1,11.64-8.35,37.33,37.33,0,0,1,50.09-20,37.13,37.13,0,0,1,12.31,9.09,37.48,37.48,0,0,1,19.92-.22A37.83,37.83,0,0,1,582,33.64a37.2,37.2,0,0,1,22-7.15,37.19,37.19,0,0,1,34.26,22.59,36.6,36.6,0,0,1,2.92,14.4v0l1,0a37.94,37.94,0,0,1,9.54,1.23A37.36,37.36,0,0,1,673.57,80.6a37.71,37.71,0,0,1,7.54-3.36,36.69,36.69,0,0,1,4.58-11.81,37.27,37.27,0,0,1,65,2.21,37.41,37.41,0,0,1,31-1.48,37.35,37.35,0,0,1,45.62-16.23,37.14,37.14,0,0,1,23.51,29.36,37.28,37.28,0,0,1,38.52,3.42,37.75,37.75,0,0,1,5.66,5.13A37.28,37.28,0,0,1,955.1,74.53a37,37,0,0,1,13.14-19.37,37.26,37.26,0,0,1,49.32,3.5,37.28,37.28,0,0,1,59.61,11.78,36.5,36.5,0,0,1,3.18,14.06l1,0a37.14,37.14,0,0,1,29,13.8,37.34,37.34,0,0,1,47.59-20.38A37.16,37.16,0,0,1,1181.46,107a37.43,37.43,0,0,1,33.89-2.62,37.31,37.31,0,0,1,53.31-11.08,37.29,37.29,0,0,1,62.15-2.18,36.6,36.6,0,0,1,5-11,37.26,37.26,0,0,1,57.31-5.76A36.77,36.77,0,0,1,1404,100.48c0,.67,0,1.35,0,2a37.48,37.48,0,0,1,32.39,4A37.19,37.19,0,0,1,1456.76,87a37.19,37.19,0,0,1,34.64-23.53,37.19,37.19,0,0,1,9.44,1.2,36.78,36.78,0,0,1,8.54,3.4,37.34,37.34,0,0,1,13.17,12.18,37.37,37.37,0,0,1,13.18-12.18,36.43,36.43,0,0,1,8.54-3.4,37.27,37.27,0,0,1,42.6,19,37.35,37.35,0,0,1,50.27-16.12,37.61,37.61,0,0,1,12.93,11,37.32,37.32,0,0,1,12.73-10.32,36.72,36.72,0,0,1,7.9-2.85,37.41,37.41,0,0,1,8.63-1h1.06c0-.65-.06-1.33-.06-2a36.77,36.77,0,0,1,10.89-26.16,37.37,37.37,0,0,1,38.7-8.73,37,37,0,0,1,5-10.83,37.35,37.35,0,0,1,43.72-14,37.31,37.31,0,0,1,19.09,15.84,36.77,36.77,0,0,1,4.54,11.91,37,37,0,0,1,8.87-3.72A37.24,37.24,0,0,1,1853.26,44a37.12,37.12,0,0,1,37.11-34.54,37.16,37.16,0,0,1,33.54,21,37.27,37.27,0,0,1,52.38,16.26,37.94,37.94,0,0,1,4.52-.27,37,37,0,0,1,15.7,3.44,38,38,0,0,1,6.71,4,37.59,37.59,0,0,1,5.69,5.3,37.32,37.32,0,0,1,50.79.43,36.83,36.83,0,0,1,11.51,24.82l1.06,0a37.35,37.35,0,0,1,11.06,1.67,37.37,37.37,0,0,1,36.49-9.21,37.25,37.25,0,0,1,61.85,9.61,37.31,37.31,0,0,1,9.75,3.92,34.12,34.12,0,0,1,6.77-3.81,33.57,33.57,0,0,1,9.81-2.5V523.48Z"/></g></svg>