<svg xmlns="http://www.w3.org/2000/svg" viewBox="0 0 143 160"><defs><style>.cls-1{fill:#3d5363;}.cls-2{fill:#2e4451;}.cls-3{fill:#896a6a;}.cls-4{fill:#684b4b;}.cls-5{fill:#fff;}</style></defs><title>Left Sign</title><g id="Layer_25" data-name="Layer 25"><rect class="cls-1" x="56.24" y="84.66" width="32.81" height="75.34"/><rect class="cls-2" x="56.24" y="84.66" width="32.81" height="7.34"/><rect class="cls-3" x="62.49" y="93.17" width="7.29" height="58.93" rx="3.65" transform="translate(132.27 245.27) rotate(-180)"/><rect class="cls-3" x="0.28" y="43" width="30.72" height="14"/><path class="cls-3" d="M31,0H21.37A21.09,21.09,0,0,0,.28,21.09V22H31Z"/><rect class="cls-3" x="0.28" y="28" width="30.72" height="9"/><path class="cls-3" d="M31,63H.28v1.27A21.63,21.63,0,0,0,.83,69H31Z"/><path class="cls-3" d="M3.24,75A21.06,21.06,0,0,0,21.37,85.36H31V75Z"/><rect class="cls-4" x="0.28" y="22" width="30.72" height="6"/><rect class="cls-4" x="0.28" y="37" width="30.72" height="6"/><rect class="cls-4" x="0.28" y="57" width="30.72" height="6"/><path class="cls-4" d="M31,69H.83a21.14,21.14,0,0,0,2.41,6H31Z"/><rect class="cls-1" x="6.28" width="136.72" height="85.36" rx="21.09"/><rect class="cls-3" x="59" y="5" width="7" height="3" rx="1.5"/><rect class="cls-3" x="77" y="5" width="7" height="3" rx="1.5"/><rect class="cls-3" x="29" y="5" width="22" height="3" rx="1.5"/><rect class="cls-3" x="92" y="79" width="18" height="3" rx="1.5"/><rect class="cls-3" x="81" y="79" width="7" height="3" rx="1.5"/><rect class="cls-3" x="114" y="79" width="7" height="3" rx="1.5"/><circle class="cls-2" cx="116" cy="61" r="4"/><circle class="cls-2" cx="66" cy="59" r="4"/><circle class="cls-2" cx="77.5" cy="18.5" r="2.5"/><circle class="cls-2" cx="91.5" cy="45.5" r="2.5"/><circle class="cls-2" cx="30.5" cy="59.5" r="2.5"/><circle class="cls-2" cx="135.5" cy="63.5" r="2.5"/><circle class="cls-2" cx="118.5" cy="11.5" r="1.5"/><circle class="cls-2" cx="15.5" cy="18.5" r="1.5"/><circle class="cls-2" cx="62.5" cy="79.5" r="1.5"/><circle class="cls-2" cx="41.5" cy="16.5" r="1.5"/><rect class="cls-5" x="64.41" y="12.37" width="11.73" height="61.24" rx="5.86" transform="translate(27.29 113.27) rotate(-90)"/><rect class="cls-5" x="44.64" y="26.22" width="11.73" height="25.1" rx="5.86" transform="translate(58.79 101.9) rotate(-135)"/><rect class="cls-5" x="44.64" y="35.22" width="11.73" height="25.1" rx="5.86" transform="translate(-18.99 49.7) rotate(-45)"/></g></svg>