<svg xmlns="http://www.w3.org/2000/svg" viewBox="0 0 2208 831"><defs><style>.cls-1{fill:#d2ebea;}.cls-2{fill:#fff;isolation:isolate;}</style></defs><title>Mountains Back</title><g id="Sky_amd_Clouds" data-name="Sky amd Clouds"><path id="Path_398" data-name="Path 398" class="cls-1" d="M1703,54.81V70.23a9,9,0,1,1-18,0v14a9,9,0,1,1-18,0v-25a9,9,0,1,1-18,0v7a9,9,0,1,1-18,0v18a9,9,0,1,1-18,0v-25a9,9,0,1,1-18,0v-7a9,9,0,1,1-18,0v-7a9,9,0,1,1-18,0v39a9,9,0,1,1-18,0v-14a9,9,0,1,1-18,0v-11a9,9,0,1,1-18,0v25a9,9,0,1,1-18,0V53.43L990,272.23l-365-179v15a9,9,0,1,1-18,0v14a9,9,0,1,1-18,0v-25a9,9,0,1,1-18,0v7a9,9,0,1,1-18,0v18a9,9,0,1,1-18,0v-25a9,9,0,1,1-18,0v-7a9,9,0,1,1-18,0v-7a9,9,0,1,1-18,0v39a9,9,0,0,1-18,0v-14a9,9,0,1,1-18,0v-11a9,9,0,1,1-18,0v25a9,9,0,0,1-18,0V93.11L0,307.23v524H2208v-524Z"/><path id="Path_399" data-name="Path 399" class="cls-2" d="M1496,93.23a9,9,0,0,0,9-9h0v-25a9,9,0,1,0,18,0v11a9,9,0,1,0,18,0v14a9,9,0,1,0,18,0v-39a9,9,0,1,0,18,0v7a9,9,0,1,0,18,0v7a9,9,0,1,0,18,0v25a9,9,0,1,0,18,0v-18a9,9,0,1,0,18,0v-7a9,9,0,1,0,18,0v25a9,9,0,1,0,18,0v-14a9,9,0,1,0,18,0V54.81L1595,.23l-108,53.2v30.8a9,9,0,0,0,9,9Z"/><path id="Path_400" data-name="Path 400" class="cls-2" d="M525,44.23l-13-7L410,92.7l-1,.41v29.12a9,9,0,0,0,18,0v-25a9,9,0,1,0,18,0v11a9,9,0,1,0,18,0v14a9,9,0,0,0,18,0v-39a9,9,0,1,0,18,0v7a9,9,0,1,0,18,0v7a9,9,0,1,0,18,0v25a9,9,0,1,0,18,0v-18a9,9,0,1,0,18,0v-7a9,9,0,1,0,18,0v25a9,9,0,1,0,18,0v-14a9,9,0,1,0,18,0v-15Z"/></g></svg>