<svg xmlns="http://www.w3.org/2000/svg" viewBox="0 0 126 121"><defs><style>.cls-1{fill:#94bc94;}.cls-2{fill:#84a17f;}.cls-3{fill:#c48769;}.cls-4{fill:#e2ae95;}.cls-5{fill:#fff;}</style></defs><title>Mushrooms 1</title><g id="Layer_25" data-name="Layer 25"><g id="Component_18_1" data-name="Component 18 1"><path id="Path_336" data-name="Path 336" class="cls-1" d="M66.35,44.48v70.06A6.24,6.24,0,0,0,72.43,121h0V38.06a6.24,6.24,0,0,0-6.13,6.35Z"/><path id="Path_337" data-name="Path 337" class="cls-2" d="M72.48,38.06V121c3.52.26,7.25-1.88,7.25-6.42V44.48C79.73,40,76,37.81,72.48,38.06ZM73,114.54Z"/><path id="Path_338" data-name="Path 338" class="cls-3" d="M72.48,0a18.92,18.92,0,0,0-3.9.41c14.78,3,26.2,23.1,26.2,47.41h7.81C102.59,21.41,89.11,0,72.48,0Z"/><path id="Path_339" data-name="Path 339" class="cls-4" d="M68.58.41c-14.79,3-26.21,23.1-26.21,47.41H94.78C94.78,23.51,83.36,3.45,68.58.41Z"/><ellipse id="Ellipse_721" data-name="Ellipse 721" class="cls-5" cx="90.32" cy="37.81" rx="4.46" ry="4.45"/><ellipse id="Ellipse_722" data-name="Ellipse 722" class="cls-5" cx="69.13" cy="10.01" rx="3.35" ry="3.34"/><ellipse id="Ellipse_723" data-name="Ellipse 723" class="cls-5" cx="75.83" cy="28.91" rx="3.35" ry="3.34"/><ellipse id="Ellipse_724" data-name="Ellipse 724" class="cls-5" cx="60.22" cy="34.47" rx="6.69" ry="6.67"/><path id="Path_340" data-name="Path 340" class="cls-1" d="M100.91,84.23V115.5c0,3.86,3.18,5.68,6.18,5.47V78.76C104.09,78.55,100.91,80.37,100.91,84.23Zm5.7,31.27Z"/><path id="Path_341" data-name="Path 341" class="cls-2" d="M107.09,78.76V121a5.34,5.34,0,0,0,5.23-5.42V84.23a5.33,5.33,0,0,0-5.18-5.47Z"/><path id="Path_342" data-name="Path 342" class="cls-3" d="M107,38.76a8.1,8.1,0,0,0-3.32.76c8.88,4,15.63,23.77,15.63,47.56H126C126,60.39,117.52,38.76,107,38.76Z"/><path id="Path_343" data-name="Path 343" class="cls-4" d="M103.72,39.52c-8.88,4-15.63,23.77-15.63,47.56h31.26C119.35,63.29,112.61,43.53,103.72,39.52Z"/><ellipse id="Ellipse_725" data-name="Ellipse 725" class="cls-5" cx="104.71" cy="64.81" rx="4.27" ry="4.26"/><ellipse id="Ellipse_726" data-name="Ellipse 726" class="cls-5" cx="97.59" cy="53.92" rx="2.85" ry="2.84"/><ellipse id="Ellipse_727" data-name="Ellipse 727" class="cls-5" cx="97.59" cy="52.97" rx="2.85" ry="2.84"/><ellipse id="Ellipse_728" data-name="Ellipse 728" class="cls-5" cx="113.74" cy="50.13" rx="2.85" ry="2.84"/><ellipse id="Ellipse_729" data-name="Ellipse 729" class="cls-5" cx="117.54" cy="78.55" rx="2.85" ry="2.84"/><ellipse id="Ellipse_730" data-name="Ellipse 730" class="cls-5" cx="95.69" cy="75.71" rx="5.7" ry="5.68"/><path id="Path_344" data-name="Path 344" class="cls-1" d="M40.06,84.08V78.57a5.39,5.39,0,0,0-5.71,5.07c0,.15,0,.29,0,.44v31.39A5.39,5.39,0,0,0,39.63,121c.15,0,.29,0,.43,0Z"/><path id="Path_345" data-name="Path 345" class="cls-2" d="M40.06,78.57V121a5.41,5.41,0,0,0,5.72-5.07c0-.15,0-.3,0-.44V84.09a5.41,5.41,0,0,0-5.29-5.53Z"/><path id="Path_346" data-name="Path 346" class="cls-3" d="M39.59,51.77c-1.13,0-2.24.06-3.34.15,20.29,1.63,36.24,18,36.24,37.87h6.68C79.17,68.79,61.45,51.77,39.59,51.77Z"/><path id="Path_347" data-name="Path 347" class="cls-4" d="M36.25,51.92C16,53.55,0,69.87,0,89.79H72.49C72.49,69.87,56.55,53.55,36.25,51.92Z"/><ellipse id="Ellipse_731" data-name="Ellipse 731" class="cls-5" cx="46.74" cy="66.01" rx="3.82" ry="3.81"/><ellipse id="Ellipse_732" data-name="Ellipse 732" class="cls-5" cx="59.14" cy="78.37" rx="2.86" ry="2.85"/><ellipse id="Ellipse_733" data-name="Ellipse 733" class="cls-5" cx="32.43" cy="63.15" rx="2.86" ry="2.85"/><ellipse id="Ellipse_734" data-name="Ellipse 734" class="cls-5" cx="26.71" cy="81.23" rx="4.77" ry="4.76"/></g></g></svg>