<svg xmlns="http://www.w3.org/2000/svg" viewBox="0 0 148 126"><defs><style>.cls-1{fill:#94bc94;}.cls-2{fill:#84a17f;}.cls-3{fill:#e2ae95;}.cls-4{fill:#c48769;}.cls-5{fill:#fff;}</style></defs><title>Mushrooms 3</title><g id="Layer_25" data-name="Layer 25"><g id="Component_20_1" data-name="Component 20 1"><path id="Path_368" data-name="Path 368" class="cls-1" d="M78.53,42.18v78.67A5.06,5.06,0,0,0,84.24,126V37A5.06,5.06,0,0,0,78.53,42.18Zm5.28,78.67Z"/><path id="Path_369" data-name="Path 369" class="cls-2" d="M84.24,37V126a5,5,0,0,0,4.84-5.08V42.18a5,5,0,0,0-4.8-5.13Z"/><g id="Group_239" data-name="Group 239"><path id="Path_372" data-name="Path 372" class="cls-1" d="M56.41,87.62V81.88a5.52,5.52,0,0,0-5.79,5.28,3.49,3.49,0,0,0,0,.46v32.64A5.56,5.56,0,0,0,56,126h.44Z"/><path id="Path_373" data-name="Path 373" class="cls-2" d="M56.41,81.88V126a5.53,5.53,0,0,0,5.79-5.27c0-.16,0-.31,0-.46V87.62a5.57,5.57,0,0,0-5.37-5.74Z"/></g><path id="Path_376" data-name="Path 376" class="cls-1" d="M118.42,75.45V71.19a4.12,4.12,0,0,0-4.32,3.91c0,.12,0,.23,0,.35v46.29a4.13,4.13,0,0,0,4,4.26h.33Z"/><path id="Path_377" data-name="Path 377" class="cls-2" d="M118.42,71.19V126a4.1,4.1,0,0,0,4.32-3.91c0-.11,0-.23,0-.34V75.45a4.13,4.13,0,0,0-4-4.26Z"/><g id="Group_301" data-name="Group 301"><path id="Path_371" data-name="Path 371" class="cls-3" d="M81.13.7c-8.23,3.71-14.47,22-14.47,44H95.6C95.6,22.71,89.35,4.41,81.13.7Z"/><path id="Path_375" data-name="Path 375" class="cls-3" d="M52.54,54.87C32,56.52,15.82,73.07,15.82,93.26H89.27C89.27,73.07,73.11,56.52,52.54,54.87Z"/><path id="Path_379" data-name="Path 379" class="cls-3" d="M115.54,51c-15.36,1.23-27.42,13.58-27.42,28.65H143C143,64.61,130.89,52.26,115.54,51Z"/><path id="Path_383" data-name="Path 383" class="cls-3" d="M21.18,37.53C9.23,40,0,56.2,0,75.86H42.36C42.36,56.2,33.13,40,21.18,37.53Z"/></g><path id="Path_370" data-name="Path 370" class="cls-4" d="M84.21,0a7.42,7.42,0,0,0-3.08.7c8.22,3.71,14.47,22,14.47,44h6.16C101.76,20,93.9,0,84.21,0Z"/><ellipse id="Ellipse_761" data-name="Ellipse 761" class="cls-5" cx="82.05" cy="24.13" rx="3.96" ry="3.95"/><ellipse id="Ellipse_762" data-name="Ellipse 762" class="cls-5" cx="75.45" cy="14.04" rx="2.64" ry="2.63"/><ellipse id="Ellipse_763" data-name="Ellipse 763" class="cls-5" cx="75.45" cy="13.16" rx="2.64" ry="2.63"/><ellipse id="Ellipse_764" data-name="Ellipse 764" class="cls-5" cx="90.4" cy="10.53" rx="2.64" ry="2.63"/><ellipse id="Ellipse_765" data-name="Ellipse 765" class="cls-5" cx="93.92" cy="36.85" rx="2.64" ry="2.63"/><ellipse id="Ellipse_766" data-name="Ellipse 766" class="cls-5" cx="73.69" cy="34.22" rx="5.28" ry="5.26"/><path id="Path_374" data-name="Path 374" class="cls-4" d="M55.92,54.73c-1.14,0-2.26.05-3.38.14,20.57,1.65,36.73,18.2,36.73,38.39H96C96,72,78.07,54.73,55.92,54.73Z"/><ellipse id="Ellipse_767" data-name="Ellipse 767" class="cls-5" cx="63.17" cy="69.15" rx="3.87" ry="3.86"/><ellipse id="Ellipse_768" data-name="Ellipse 768" class="cls-5" cx="75.74" cy="81.69" rx="2.9" ry="2.89"/><ellipse id="Ellipse_769" data-name="Ellipse 769" class="cls-5" cx="48.68" cy="66.26" rx="2.9" ry="2.89"/><ellipse id="Ellipse_770" data-name="Ellipse 770" class="cls-5" cx="42.88" cy="84.58" rx="4.83" ry="4.82"/><path id="Path_378" data-name="Path 378" class="cls-4" d="M118.06,50.92c-.85,0-1.69,0-2.52.11C130.89,52.26,143,64.61,143,79.68H148C148,63.8,134.6,50.92,118.06,50.92Z"/><ellipse id="Ellipse_771" data-name="Ellipse 771" class="cls-5" cx="123.47" cy="61.69" rx="2.89" ry="2.88"/><ellipse id="Ellipse_772" data-name="Ellipse 772" class="cls-5" cx="132.85" cy="71.04" rx="2.16" ry="2.16"/><ellipse id="Ellipse_773" data-name="Ellipse 773" class="cls-5" cx="112.65" cy="59.53" rx="2.16" ry="2.16"/><ellipse id="Ellipse_774" data-name="Ellipse 774" class="cls-5" cx="108.32" cy="73.2" rx="3.61" ry="3.6"/><path id="Path_380" data-name="Path 380" class="cls-1" d="M19.38,80.34v41.15c0,2.84,2.41,4.33,5,4.49V75.86C21.79,76,19.38,77.51,19.38,80.34Z"/><path id="Path_381" data-name="Path 381" class="cls-2" d="M24.34,75.87V126c2.84.17,5.85-1.32,5.85-4.49V80.36C30.19,77.19,27.18,75.7,24.34,75.87Zm.45,45.63Z"/><path id="Path_382" data-name="Path 382" class="cls-4" d="M24.34,37.19a15.92,15.92,0,0,0-3.16.34C33.13,40,42.36,56.2,42.36,75.86h6.31C48.67,54.5,37.77,37.19,24.34,37.19Z"/><ellipse id="Ellipse_775" data-name="Ellipse 775" class="cls-5" cx="38.76" cy="67.76" rx="3.61" ry="3.6"/><ellipse id="Ellipse_776" data-name="Ellipse 776" class="cls-5" cx="21.63" cy="45.29" rx="2.7" ry="2.7"/><ellipse id="Ellipse_777" data-name="Ellipse 777" class="cls-5" cx="27.04" cy="60.57" rx="2.7" ry="2.7"/><ellipse id="Ellipse_778" data-name="Ellipse 778" class="cls-5" cx="14.42" cy="65.07" rx="5.41" ry="5.4"/></g></g></svg>