<svg xmlns="http://www.w3.org/2000/svg" viewBox="0 0 148 130"><defs><style>.cls-1{fill:#94bc94;}.cls-2{fill:#84a17f;}.cls-3{fill:#c48769;}.cls-4{fill:#e2ae95;}.cls-5{fill:#fff;}</style></defs><title>Mushrooms 2</title><g id="Layer_25" data-name="Layer 25"><g id="Component_19_1" data-name="Component 19 1"><path id="Path_348" data-name="Path 348" class="cls-1" d="M73.39,53.42v70.12c0,4.53,3.81,6.68,7.4,6.43V47C77.2,46.74,73.39,48.88,73.39,53.42Zm6.83,70.12Z"/><path id="Path_349" data-name="Path 349" class="cls-2" d="M80.79,47v83a6.3,6.3,0,0,0,6.26-6.36V53.42A6.3,6.3,0,0,0,80.84,47Z"/><path id="Path_350" data-name="Path 350" class="cls-3" d="M80.74,0a9.72,9.72,0,0,0-4,.89C87.4,5.6,95.48,28.81,95.48,56.76h8C103.45,25.41,93.28,0,80.74,0Z"/><path id="Path_351" data-name="Path 351" class="cls-4" d="M76.76.89C66.12,5.6,58,28.81,58,56.76H95.48C95.48,28.81,87.39,5.6,76.76.89Z"/><ellipse id="Ellipse_735" data-name="Ellipse 735" class="cls-5" cx="77.94" cy="30.61" rx="5.12" ry="5.01"/><ellipse id="Ellipse_736" data-name="Ellipse 736" class="cls-5" cx="69.41" cy="17.81" rx="3.41" ry="3.34"/><ellipse id="Ellipse_737" data-name="Ellipse 737" class="cls-5" cx="69.41" cy="16.7" rx="3.41" ry="3.34"/><ellipse id="Ellipse_738" data-name="Ellipse 738" class="cls-5" cx="88.75" cy="13.36" rx="3.41" ry="3.34"/><ellipse id="Ellipse_739" data-name="Ellipse 739" class="cls-5" cx="93.31" cy="46.75" rx="3.41" ry="3.34"/><ellipse id="Ellipse_740" data-name="Ellipse 740" class="cls-5" cx="67.14" cy="43.41" rx="6.83" ry="6.68"/><path id="Path_352" data-name="Path 352" class="cls-1" d="M124.61,81.65V125c0,3.53,3,5.2,5.75,5V76.65C127.57,76.45,124.61,78.12,124.61,81.65ZM129.92,125Z"/><path id="Path_353" data-name="Path 353" class="cls-2" d="M130.36,76.65V130a4.91,4.91,0,0,0,4.88-5V81.65a4.91,4.91,0,0,0-4.83-5Z"/><path id="Path_354" data-name="Path 354" class="cls-3" d="M130.32,40.07a7.57,7.57,0,0,0-3.1.69c8.29,3.66,14.58,21.73,14.58,43.49H148C148,59.85,140.09,40.07,130.32,40.07Z"/><path id="Path_355" data-name="Path 355" class="cls-4" d="M127.23,40.76c-8.29,3.66-14.58,21.73-14.58,43.49H141.8C141.8,62.49,135.51,44.42,127.23,40.76Z"/><ellipse id="Ellipse_741" data-name="Ellipse 741" class="cls-5" cx="128.15" cy="63.89" rx="3.99" ry="3.9"/><ellipse id="Ellipse_742" data-name="Ellipse 742" class="cls-5" cx="121.51" cy="53.93" rx="2.66" ry="2.6"/><ellipse id="Ellipse_743" data-name="Ellipse 743" class="cls-5" cx="121.51" cy="53.06" rx="2.66" ry="2.6"/><ellipse id="Ellipse_744" data-name="Ellipse 744" class="cls-5" cx="136.56" cy="50.46" rx="2.66" ry="2.6"/><ellipse id="Ellipse_745" data-name="Ellipse 745" class="cls-5" cx="140.11" cy="76.46" rx="2.66" ry="2.6"/><ellipse id="Ellipse_746" data-name="Ellipse 746" class="cls-5" cx="119.73" cy="73.86" rx="5.31" ry="5.2"/><path id="Path_356" data-name="Path 356" class="cls-1" d="M37,48.26V125c0,3.53,3,5.2,5.76,5V43.26C40,43.06,37,44.73,37,48.26ZM42.3,125Z"/><path id="Path_357" data-name="Path 357" class="cls-2" d="M42.75,43.26V130a4.91,4.91,0,0,0,4.87-5V48.26a4.92,4.92,0,0,0-4.83-5Z"/><path id="Path_358" data-name="Path 358" class="cls-3" d="M42.71,6.68a7.54,7.54,0,0,0-3.1.69C47.9,11,54.19,29.11,54.19,50.86h6.2C60.38,26.46,52.47,6.68,42.71,6.68Z"/><path id="Path_359" data-name="Path 359" class="cls-4" d="M39.61,7.37C31.33,11,25,29.11,25,50.86H54.19C54.19,29.1,47.89,11,39.61,7.37Z"/><ellipse id="Ellipse_747" data-name="Ellipse 747" class="cls-5" cx="40.53" cy="30.5" rx="3.99" ry="3.9"/><ellipse id="Ellipse_748" data-name="Ellipse 748" class="cls-5" cx="33.89" cy="20.54" rx="2.66" ry="2.6"/><ellipse id="Ellipse_749" data-name="Ellipse 749" class="cls-5" cx="33.89" cy="19.67" rx="2.66" ry="2.6"/><ellipse id="Ellipse_750" data-name="Ellipse 750" class="cls-5" cx="48.95" cy="17.07" rx="2.66" ry="2.6"/><ellipse id="Ellipse_751" data-name="Ellipse 751" class="cls-5" cx="52.49" cy="43.07" rx="2.66" ry="2.6"/><ellipse id="Ellipse_752" data-name="Ellipse 752" class="cls-5" cx="32.12" cy="40.47" rx="5.31" ry="5.2"/><path id="Path_360" data-name="Path 360" class="cls-1" d="M92,81.1V77a4.08,4.08,0,0,0-4.35,3.78c0,.12,0,.23,0,.34v44.77a4.08,4.08,0,0,0,4,4.13H92Z"/><path id="Path_361" data-name="Path 361" class="cls-2" d="M92,77v53a4.09,4.09,0,0,0,4.36-3.78V81.1a4.08,4.08,0,0,0-4-4.13Z"/><path id="Path_362" data-name="Path 362" class="cls-3" d="M91.6,57c-.86,0-1.71,0-2.54.11,15.46,1.22,27.61,13.41,27.61,28.3h5.08C121.75,69.68,108.25,57,91.6,57Z"/><path id="Path_363" data-name="Path 363" class="cls-4" d="M89.06,57.07c-15.47,1.22-27.61,13.41-27.61,28.3h55.22C116.67,70.49,104.52,58.29,89.06,57.07Z"/><ellipse id="Ellipse_753" data-name="Ellipse 753" class="cls-5" cx="97.05" cy="67.6" rx="2.91" ry="2.84"/><ellipse id="Ellipse_754" data-name="Ellipse 754" class="cls-5" cx="106.49" cy="76.84" rx="2.18" ry="2.13"/><ellipse id="Ellipse_755" data-name="Ellipse 755" class="cls-5" cx="86.15" cy="65.46" rx="2.18" ry="2.13"/><ellipse id="Ellipse_756" data-name="Ellipse 756" class="cls-5" cx="81.79" cy="78.97" rx="3.63" ry="3.55"/><path id="Path_364" data-name="Path 364" class="cls-1" d="M19.52,91.17v33.68A5,5,0,0,0,24.47,130h0V86a5,5,0,0,0-5,5.08Z"/><path id="Path_365" data-name="Path 365" class="cls-2" d="M24.51,86V130c2.87.21,5.9-1.5,5.9-5.12V91.17C30.41,87.55,27.37,85.84,24.51,86ZM25,124.85Z"/><path id="Path_366" data-name="Path 366" class="cls-3" d="M24.51,55.65a15.47,15.47,0,0,0-3.18.33c12,2.43,21.33,18.44,21.33,37.85H49C49,72.74,38.05,55.65,24.51,55.65Z"/><path id="Path_367" data-name="Path 367" class="cls-4" d="M21.33,56C9.3,58.41,0,74.42,0,93.83H42.66C42.66,74.42,33.37,58.41,21.33,56Z"/><ellipse id="Ellipse_757" data-name="Ellipse 757" class="cls-5" cx="39.03" cy="85.84" rx="3.63" ry="3.55"/><ellipse id="Ellipse_758" data-name="Ellipse 758" class="cls-5" cx="21.79" cy="63.64" rx="2.72" ry="2.66"/><ellipse id="Ellipse_759" data-name="Ellipse 759" class="cls-5" cx="27.23" cy="78.74" rx="2.72" ry="2.66"/><ellipse id="Ellipse_760" data-name="Ellipse 760" class="cls-5" cx="14.52" cy="83.18" rx="5.45" ry="5.33"/></g></g></svg>