<svg xmlns="http://www.w3.org/2000/svg" viewBox="0 0 2208 1242"><defs><style>.cls-1{fill:#e6f9f9;}.cls-2{fill:#fff;}</style></defs><title>Sky</title><g id="Sky_amd_Clouds" data-name="Sky amd Clouds"><rect class="cls-1" width="2208" height="1242"/><circle class="cls-2" cx="792" cy="277" r="27.5"/><circle class="cls-2" cx="859.5" cy="277.5" r="27.5"/><path class="cls-2" d="M723.5,248H680.65A43.84,43.84,0,0,0,694,216.45h0a44,44,0,0,0-44-44H620.51a43.78,43.78,0,0,0,6.49-23h0a44,44,0,0,0-44-44H466a44,44,0,0,0-44,44h0a43.78,43.78,0,0,0,6.49,23H417a44,44,0,0,0-44,44h0A43.84,43.84,0,0,0,386.35,248H294.5a27.5,27.5,0,0,0,0,55h429a27.5,27.5,0,0,0,0-55Z"/><circle class="cls-2" cx="625" cy="105" r="15"/><circle class="cls-2" cx="827" cy="245" r="15"/><circle class="cls-2" cx="655.5" cy="73.5" r="7.5"/><circle class="cls-2" cx="706.5" cy="196.5" r="7.5"/><circle class="cls-2" cx="879.5" cy="237.5" r="7.5"/><path class="cls-2" d="M1923.5,355h-137a38.5,38.5,0,0,0,38.5-38.5h0a38.5,38.5,0,0,0-38.5-38.5h-204a38.5,38.5,0,0,0-38.5,38.5h0a38.5,38.5,0,0,0,38.5,38.5h-88a27.5,27.5,0,0,0,0,55h429a27.5,27.5,0,0,0,0-55Z"/><circle class="cls-2" cx="1430.5" cy="382.5" r="27.5"/><circle class="cls-2" cx="1525" cy="322" r="15"/><circle class="cls-2" cx="1970" cy="378" r="15"/><circle class="cls-2" cx="1842" cy="337" r="15"/><circle class="cls-2" cx="1517.5" cy="299.5" r="7.5"/><circle class="cls-2" cx="1492.5" cy="344.5" r="7.5"/><circle class="cls-2" cx="1827.5" cy="285.5" r="7.5"/><circle class="cls-2" cx="1992.5" cy="392.5" r="7.5"/></g></svg>