<svg xmlns="http://www.w3.org/2000/svg" viewBox="0 0 121 75"><defs><style>.cls-1{fill:#787e77;}.cls-2{fill:#e4e4e4;}.cls-3{fill:#899287;}.cls-4{fill:#a9b3a9;}</style></defs><title>Stone 3</title><g id="Layer_25" data-name="Layer 25"><g id="Component_21_1" data-name="Component 21 1"><path id="Path_390" data-name="Path 390" class="cls-1" d="M105.17,45a59.87,59.87,0,0,1,8,11.1C107.71,23.75,89.89,0,68.73,0c-.94,0-1.86.06-2.78.15C83.42,1.87,98.26,19.78,105.17,45Z"/><path id="Path_391" data-name="Path 391" class="cls-2" d="M82.57,33.75a25.58,25.58,0,0,0-2.77.17c10.83,1.21,20.58,9.45,27.81,22.2A111.14,111.14,0,0,0,105.17,45C98.59,37.87,90.85,33.75,82.57,33.75Z"/><path id="Path_392" data-name="Path 392" class="cls-3" d="M66,.15C54.53,1.28,44.23,9.33,36.54,21.82c7,2.95,13.25,11.3,17.92,23.18q.88,2.25,1.7,4.66c6.63-9,14.76-14.74,23.63-15.74a25.74,25.74,0,0,1,2.77-.17c8.29,0,16,4.13,22.61,11.27C98.26,19.78,83.42,1.87,66,.15Z"/><path id="Path_393" data-name="Path 393" class="cls-1" d="M113.15,56.12C105.31,42.3,94.5,33.75,82.57,33.75a24.86,24.86,0,0,0-3.76.29c10.49,1.54,19.92,9.67,27,22.08A90.47,90.47,0,0,1,113.62,75H121A90.47,90.47,0,0,0,113.15,56.12Z"/><path id="Path_394" data-name="Path 394" class="cls-4" d="M78.81,34C70.33,35.33,62.55,41,56.16,49.66A133.89,133.89,0,0,1,61.78,75h51.84a90.47,90.47,0,0,0-7.85-18.88C98.73,43.71,89.3,35.57,78.81,34Z"/><path id="Path_395" data-name="Path 395" class="cls-1" d="M56.16,49.66C51.36,35.3,44.45,25.14,36.54,21.82a14,14,0,0,0-11.21-.05l.13.05c7.91,3.32,14.82,13.48,19.63,27.84A134.65,134.65,0,0,1,50.7,75H61.78A133.89,133.89,0,0,0,56.16,49.66Z"/><path id="Path_396" data-name="Path 396" class="cls-3" d="M25.46,21.82l-.13-.05C13.27,26.75,3.51,47.63,0,75H50.7a134.65,134.65,0,0,0-5.61-25.34C40.28,35.3,33.37,25.14,25.46,21.82Z"/><ellipse id="Ellipse_789" data-name="Ellipse 789" class="cls-4" cx="28.12" cy="37.5" rx="3.69" ry="3.75"/><ellipse id="Ellipse_790" data-name="Ellipse 790" class="cls-4" cx="38.27" cy="60.94" rx="2.77" ry="2.81"/><ellipse id="Ellipse_791" data-name="Ellipse 791" class="cls-4" cx="13.36" cy="65.62" rx="3.69" ry="3.75"/><ellipse id="Ellipse_792" data-name="Ellipse 792" class="cls-1" cx="66.88" cy="56.25" rx="3.69" ry="3.75"/><ellipse id="Ellipse_793" data-name="Ellipse 793" class="cls-1" cx="99.18" cy="68.44" rx="2.77" ry="2.81"/><ellipse id="Ellipse_794" data-name="Ellipse 794" class="cls-1" cx="87.18" cy="54.37" rx="3.69" ry="3.75"/><ellipse id="Ellipse_795" data-name="Ellipse 795" class="cls-2" cx="63.19" cy="11.25" rx="3.69" ry="3.75"/><ellipse id="Ellipse_796" data-name="Ellipse 796" class="cls-2" cx="86.26" cy="29.06" rx="2.77" ry="2.81"/><ellipse id="Ellipse_797" data-name="Ellipse 797" class="cls-2" cx="62.27" cy="32.81" rx="2.77" ry="2.81"/><ellipse id="Ellipse_798" data-name="Ellipse 798" class="cls-2" cx="74.26" cy="26.25" rx="3.69" ry="3.75"/></g></g></svg>