<svg xmlns="http://www.w3.org/2000/svg" viewBox="0 0 135 65"><defs><style>.cls-1{fill:#787e77;}.cls-2{fill:#899287;}.cls-3{fill:#a9b3a9;}.cls-4{fill:#e4e4e4;}</style></defs><title>Stone 1</title><g id="Layer_25" data-name="Layer 25"><g id="Component_23_1" data-name="Component 23 1"><path id="Path_384" data-name="Path 384" class="cls-1" d="M22.65,48.09c.44-.07.88-.14,1.33-.19a23.78,23.78,0,0,1,2.67-.17C37.07,47.73,46.5,54.34,53.3,65H45.18C39.28,55.77,31.42,49.58,22.65,48.09Z"/><path id="Path_385" data-name="Path 385" class="cls-2" d="M22.65,48.09C31.42,49.58,39.28,55.77,45.18,65H0C5.92,55.74,13.83,49.55,22.65,48.09Z"/><path id="Path_386" data-name="Path 386" class="cls-2" d="M92.66.68A19.67,19.67,0,0,1,97.73,0c19.17,0,35,28.37,37.27,65H124.85C122.77,31.67,109.49,5.18,92.66.68Z"/><path id="Path_387" data-name="Path 387" class="cls-3" d="M72.3,19.57C77.82,9.55,84.86,2.76,92.66.68c16.83,4.5,30.11,31,32.19,64.32H101.17C95.47,43.09,85,26.36,72.3,19.57Z"/><path id="Path_388" data-name="Path 388" class="cls-1" d="M63.16,19.57a28.21,28.21,0,0,0-8.1-2.89,25.21,25.21,0,0,1,4.59-.43A26.67,26.67,0,0,1,72.3,19.57C85,26.36,95.47,43.09,101.18,65H92C86.33,43.09,75.86,26.36,63.16,19.57Z"/><path id="Path_389" data-name="Path 389" class="cls-2" d="M26.65,47.73A23.78,23.78,0,0,0,24,47.9C31.54,30.66,42.57,19,55.06,16.68a28.21,28.21,0,0,1,8.1,2.89C75.86,26.36,86.33,43.09,92,65H53.3C46.5,54.34,37.07,47.73,26.65,47.73Z"/><circle id="Ellipse_779" data-name="Ellipse 779" class="cls-4" cx="19.78" cy="60.7" r="1.8"/><circle id="Ellipse_780" data-name="Ellipse 780" class="cls-4" cx="25.87" cy="57.66" r="1.8"/><circle id="Ellipse_781" data-name="Ellipse 781" class="cls-4" cx="48.59" cy="31.88" r="6.24"/><circle id="Ellipse_782" data-name="Ellipse 782" class="cls-4" cx="59.13" cy="57.66" r="1.8"/><circle id="Ellipse_783" data-name="Ellipse 783" class="cls-4" cx="35.77" cy="43.44" r="1.8"/><circle id="Ellipse_784" data-name="Ellipse 784" class="cls-2" cx="100.76" cy="12.97" r="1.8"/><circle id="Ellipse_785" data-name="Ellipse 785" class="cls-4" cx="63.59" cy="43.04" r="3.43"/><circle id="Ellipse_786" data-name="Ellipse 786" class="cls-2" cx="106.47" cy="32.9" r="6.24"/><circle id="Ellipse_787" data-name="Ellipse 787" class="cls-2" cx="86.79" cy="16.02" r="2.81"/><circle id="Ellipse_788" data-name="Ellipse 788" class="cls-2" cx="106.08" cy="49.53" r="2.81"/></g></g></svg>