<svg xmlns="http://www.w3.org/2000/svg" viewBox="0 0 137 75"><defs><style>.cls-1{fill:#787e77;}.cls-2{fill:#899287;}.cls-3{fill:#a9b3a9;}.cls-4{fill:#e4e4e4;}.cls-5{fill:#7c7c7c;}</style></defs><title>Stone 2</title><g id="Layer_25" data-name="Layer 25"><g id="Component_22_1" data-name="Component 22 1"><path id="Path_35" data-name="Path 35" class="cls-1" d="M107.79,42.19C99.81,16.89,85.39,0,68.94,0A23.74,23.74,0,0,0,66,.2c15.17,2,28.29,18.29,35.77,42A146.36,146.36,0,0,1,107.92,75h6A146.34,146.34,0,0,0,107.79,42.19Z"/><path id="Path_36" data-name="Path 36" class="cls-2" d="M66,.2C54.64,1.59,44.39,11.06,36.8,25.7,55,26,70,47.2,72.92,75h35a146.92,146.92,0,0,0-6.13-32.81C94.32,18.48,81.19,2.16,66,.2Z"/><path id="Path_37" data-name="Path 37" class="cls-1" d="M71.67,66.77c-1.88-19.89-8.9-34.72-17.31-34.91h-.17A7.7,7.7,0,0,0,53,32,26.37,26.37,0,0,0,36.8,25.7l-.34,0a22.66,22.66,0,0,0-3.08.21A27.2,27.2,0,0,1,47,32a6.6,6.6,0,0,1,1.17-.1h.16c8.41.19,15.44,15,17.32,34.9.53,2.68.95,5.42,1.25,8.24h6Q72.48,70.77,71.67,66.77Z"/><path id="Path_38" data-name="Path 38" class="cls-2" d="M48.36,31.86H48.2A7.59,7.59,0,0,0,47,32a27.28,27.28,0,0,0-13.65-6.06c-6.49.86-12.51,4.4-17.62,9.94-.6-.92-1.24-1.42-1.9-1.42-1.9,0-3.6,4.13-4.76,10.63A77.42,77.42,0,0,0,0,75H66.93q-.45-4.23-1.25-8.23C63.8,46.88,56.77,32.05,48.36,31.86Z"/><path id="Path_39" data-name="Path 39" class="cls-1" d="M107.79,42.19c.17.55.33,1.11.49,1.66C117.69,48,125.77,59.37,131,75h6C130.59,55.88,119.94,43.1,107.79,42.19Z"/><path id="Path_40" data-name="Path 40" class="cls-3" d="M108.28,43.85A146.87,146.87,0,0,1,113.91,75H131C125.77,59.37,117.69,48,108.28,43.85Z"/><ellipse id="Ellipse_159" data-name="Ellipse 159" class="cls-4" cx="65.83" cy="18.89" rx="6.14" ry="6.32"/><ellipse id="Ellipse_160" data-name="Ellipse 160" class="cls-4" cx="99.18" cy="55.24" rx="2.77" ry="2.84"/><ellipse id="Ellipse_161" data-name="Ellipse 161" class="cls-4" cx="78.2" cy="33.67" rx="2.77" ry="2.84"/><ellipse id="Ellipse_162" data-name="Ellipse 162" class="cls-4" cx="78.2" cy="69.63" rx="2.77" ry="2.84"/><ellipse id="Ellipse_163" data-name="Ellipse 163" class="cls-4" cx="65.21" cy="26.48" rx="2.77" ry="2.84"/><ellipse id="Ellipse_164" data-name="Ellipse 164" class="cls-5" cx="122.17" cy="65.52" rx="1.77" ry="1.82"/><ellipse id="Ellipse_165" data-name="Ellipse 165" class="cls-5" cx="118.67" cy="63.98" rx="3.27" ry="3.36"/><ellipse id="Ellipse_166" data-name="Ellipse 166" class="cls-3" cx="29.97" cy="45.72" rx="3.5" ry="3.6"/><ellipse id="Ellipse_167" data-name="Ellipse 167" class="cls-3" cx="39.96" cy="41.61" rx="3.5" ry="3.6"/><ellipse id="Ellipse_168" data-name="Ellipse 168" class="cls-3" cx="54.95" cy="70.38" rx="2.5" ry="2.57"/><ellipse id="Ellipse_169" data-name="Ellipse 169" class="cls-3" cx="15.98" cy="69.35" rx="2.5" ry="2.57"/></g></g></svg>