<svg xmlns="http://www.w3.org/2000/svg" viewBox="0 0 426 729"><defs><style>.cls-1{fill:#bcb194;}.cls-2{fill:#aea385;}.cls-3{fill:#bee4b3;}.cls-4{fill:#fff;}.cls-5{fill:#a8d29c;}.cls-6{fill:#d1cab7;}</style></defs><title>Tree 4</title><g id="Layer_25" data-name="Layer 25"><g id="Component_61_1" data-name="Component 61 1"><path id="Path_407" data-name="Path 407" class="cls-1" d="M233,551.94v-281H186V458.31H154.67c-.87,0-1.74,0-2.61-.06-.56,0-3-.41-1.06-.05-.82-.15-1.64-.28-2.45-.47s-1.8-.46-2.69-.74l-1.16-.4-.51-.2c-1.48-.78-3-1.48-4.39-2.4-.38-.25-1.31-.93-1.35-.94-.61-.5-1.2-1-1.77-1.55s-1.28-1.27-1.89-1.94c-.27-.3-.52-.61-.79-.91l-.39-.52-.37-.53-.66-1c-.53-.86-1-1.74-1.49-2.64-.26-.51-.85-2-.63-1.36-.26-.71-.51-1.42-.73-2.14s-.45-1.59-.63-2.4c-.11-.51-.2-1-.3-1.54,0,0,0-.06,0-.1-.08-1.3-.18-2.58-.18-3.89,0-1.72,0-3.45,0-5.17V372.17c0-15.36.25-67.74,0-83.09,0-.27,0-.53,0-.79,0-4.12-3.63-8.07-7.88-7.88a8,8,0,0,0-7.88,7.88v136c0,5.91-.23,11.78,1,17.61,3.63,17.17,18.55,29.76,35.69,31.84,5.15.62,10.49.3,15.66.3H186V728.94h47Z"/><path id="Path_408" data-name="Path 408" class="cls-2" d="M332.93,478.56V282.8c0-9.53-7.79-16.6-17-17s-17,8.11-17,17v1.7c-.56,33.15,0,17.36,0,50.5V485.1c0,3.73,0,7.45,0,11.17,0,2.81-.24,5.6-.4,8.4,0,.07,0,.13,0,.21-.23,1.1-.41,2.21-.65,3.31q-.58,2.61-1.36,5.18c-.47,1.56-1,3.09-1.59,4.62.48-1.35-.79,1.84-1.35,2.94-1,2-2.06,3.84-3.22,5.69-.46.74-.94,1.46-1.43,2.19,0,0-.41.6-.78,1.13s-.7.94-.86,1.13c-.57.66-1.12,1.32-1.7,2q-1.95,2.18-4.07,4.18c-1.24,1.17-2.52,2.28-3.83,3.36-.08,0-2.09,1.49-2.92,2-.24.16-.49.3-.74.45-2.83,1.77-5.79,3.19-8.73,4.74l-1.1.42c-.84.28-1.67.59-2.51.86q-2.86.93-5.79,1.6c-1.76.41-3.54.68-5.3,1,4.12-.78-1.07,0-2.29.11-1.88.1-3.75.11-5.63.12H233v34.17a157.58,157.58,0,0,0,20.72-.8A91.23,91.23,0,0,0,274,580.43c28-10.21,50.41-33.78,56.79-63.85C333.42,504,332.93,491.31,332.93,478.56Z"/><path id="Path_409" data-name="Path 409" class="cls-3" d="M404.82,255.28c.08-1.1.14-2.22.14-3.34a46,46,0,0,0-39.76-45.57A32.49,32.49,0,0,0,341,157.13c0-.23,0-.46,0-.69,0-1.63-.08-3.23-.23-4.82a47.5,47.5,0,0,0-57.94-69.27c.11-1.29.18-2.59.18-3.91a46.48,46.48,0,0,0-46.45-46.5,47,47,0,0,0-6.7.48,46.5,46.5,0,1,0-88.58,28.3c.25.78.52,1.55.81,2.32a20.15,20.15,0,0,0-2.06-.1,21,21,0,0,0-21,21c0,.44,0,.86.06,1.29a38,38,0,0,0-15.78,21.93,56.05,56.05,0,0,0-36.1,64.23,38,38,0,0,0-29.92,50.44A51,51,0,0,0,51,321.94a51.91,51.91,0,0,0,5.29-.27,52.44,52.44,0,0,0,78.38,6.79,71.21,71.21,0,0,0,46.81,17.48l.89,0a56,56,0,0,0,99.2,0c.85,0,1.7,0,2.54-.08a57,57,0,0,0,78.76-17,57.73,57.73,0,0,0,3.32-5.89A39,39,0,1,0,407.9,257c-1-.63-2-1.22-3.08-1.76Z"/><circle id="Ellipse_821" data-name="Ellipse 821" class="cls-4" cx="155.48" cy="202.44" r="18.5"/><circle id="Ellipse_822" data-name="Ellipse 822" class="cls-4" cx="303.47" cy="122.44" r="6.5"/><g id="Group_278" data-name="Group 278"><ellipse id="Ellipse_823" data-name="Ellipse 823" class="cls-5" cx="292.97" cy="246.94" rx="45.99" ry="46"/><circle id="Ellipse_824" data-name="Ellipse 824" class="cls-5" cx="202.98" cy="86.94" r="23"/><circle id="Ellipse_825" data-name="Ellipse 825" class="cls-5" cx="160.98" cy="292.94" r="23"/><circle id="Ellipse_826" data-name="Ellipse 826" class="cls-5" cx="281.97" cy="177.94" r="9"/><circle id="Ellipse_827" data-name="Ellipse 827" class="cls-5" cx="222.98" cy="53.94" r="9"/></g><g id="Group_281" data-name="Group 281"><path id="Rectangle_489" data-name="Rectangle 489" class="cls-6" d="M310,359.94h0a5,5,0,0,1,5,5v60a5,5,0,0,1-5,5h0a5,5,0,0,1-5-5v-60A5,5,0,0,1,310,359.94Z"/><path id="Rectangle_490" data-name="Rectangle 490" class="cls-6" d="M120,382.94h0a3,3,0,0,1,3,3v18.38a3,3,0,0,1-3,3h0a3,3,0,0,1-3-3V385.94A3,3,0,0,1,120,382.94Z"/><path id="Rectangle_491" data-name="Rectangle 491" class="cls-6" d="M120,339.94h0a3,3,0,0,1,3,3v18.38a3,3,0,0,1-3,3h0a3,3,0,0,1-3-3V342.94A3,3,0,0,1,120,339.94Z"/><path id="Rectangle_492" data-name="Rectangle 492" class="cls-6" d="M202,512.94h0a5,5,0,0,1,5,5v110a5,5,0,0,1-5,5h0a5,5,0,0,1-5-5v-110A5,5,0,0,1,202,512.94Z"/><path id="Rectangle_493" data-name="Rectangle 493" class="cls-6" d="M202,373.94h0a5,5,0,0,1,5,5v110a5,5,0,0,1-5,5h0a5,5,0,0,1-5-5v-110A5,5,0,0,1,202,373.94Z"/></g></g></g></svg>