<svg xmlns="http://www.w3.org/2000/svg" viewBox="0 0 552 911"><defs><style>.cls-1{fill:#bcb194;}.cls-2{fill:#aea385;}.cls-3{fill:#bee4b3;}.cls-4{fill:#fff;}.cls-5{fill:#a8d29c;}.cls-6{fill:#d1cab7;}</style></defs><title>Tree 3</title><g id="Layer_25" data-name="Layer 25"><g id="Component_60_1" data-name="Component 60 1"><path id="Path_410" data-name="Path 410" class="cls-1" d="M328.93,551.34V355.14H269.19v259.3c-17.76,0-23.26.16-49.42.12-1.75,0-3.5,0-5.25-.11-1.14-.07-6-.83-2.14-.1-1.65-.32-3.3-.57-4.94-1q-2.73-.64-5.4-1.5c-.79-.26-1.56-.55-2.34-.8l-1-.39c-3-1.58-6-3-8.83-4.84-.77-.51-2.65-1.89-2.73-1.9-1.22-1-2.41-2-3.56-3.13q-2-1.86-3.8-3.9c-.54-.6-1.06-1.21-1.59-1.83-.15-.18-.53-.69-.81-1.05s-.7-1-.72-1.06c-.46-.67-.9-1.34-1.33-2q-1.62-2.58-3-5.3c-.53-1-1.71-4-1.27-2.75-.52-1.43-1-2.85-1.48-4.31s-.9-3.2-1.26-4.83c-.23-1-.4-2.06-.61-3.08a1.77,1.77,0,0,1,0-.2c-.16-2.62-.37-5.21-.38-7.83,0-3.47,0-6.94,0-10.41V480.62c0-30.91.52-35.18,0-66.08,0-.53,0-1.05,0-1.58,0-8.29-7.29-16.24-15.85-15.86s-15.86,7-15.86,15.86V546.15c0,11.89-.46,23.72,2,35.45,7.33,34.55,37.36,59.89,71.85,64.08,10.36,1.26,21.1.6,31.51.6h28.26V911h59.73V571.36h.28v-20Z"/><path id="Path_411" data-name="Path 411" class="cls-2" d="M421.69,508.13V382.28a10.18,10.18,0,0,0-10-10c-5.4-.24-10,4.78-10,10,0,.34,0,.67,0,1-.33,19.52,0,39.07,0,58.59V512c0,2.19,0,4.39,0,6.58,0,1.65-.14,3.3-.23,4.94l0,.13c-.14.64-.24,1.29-.39,1.94-.22,1-.49,2-.8,3s-.6,1.82-.93,2.72c.28-.8-.47,1.09-.8,1.74-.58,1.14-1.21,2.26-1.9,3.35-.27.43-.55.86-.84,1.28,0,0-.24.36-.46.67s-.41.55-.51.67c-.33.38-.66.77-1,1.15-.76.86-1.56,1.68-2.4,2.47s-1.48,1.34-2.25,2c-.05,0-1.23.88-1.72,1.2-1.79,1.17-3.69,2.06-5.58,3.06l-.65.24-1,.34-.5.17c-1.12.36-2.25.68-3.4.94s-2.09.4-3.13.6c2.43-.46-.63,0-1.35.07-1.1.06-2.21.07-3.31.07q-19.65,0-39.31,0v20h25.94c6.57,0,13.36.42,19.9-.37q2.61-.33,5.16-.9c19.56-4.36,36-19.5,40.21-39.57C422,523.11,421.69,515.64,421.69,508.13Z"/><path id="Path_412" data-name="Path 412" class="cls-3" d="M502.24,320.29a49.1,49.1,0,0,0-5.81.35A45.11,45.11,0,0,0,484,312.58a71.19,71.19,0,0,0-30.11-96,72.42,72.42,0,0,0-11.14-4.66,66.42,66.42,0,0,0,1-11.69q0-3.1-.29-6.12a60.36,60.36,0,0,0-51.17-92.38h0a60.14,60.14,0,0,0-41.06,16.13c-1.59-1.28-3.24-2.48-4.94-3.62A83.26,83.26,0,0,0,269,0h0a83.2,83.2,0,0,0-81.17,101.69,48.28,48.28,0,0,0-46.7,58.66,72.93,72.93,0,0,0-26.55,56.35c0,1.11,0,2.21.08,3.3a48.3,48.3,0,0,0-58.42,35.38c-.28,1.14-.52,2.29-.71,3.44a82.62,82.62,0,1,0,62.52,152.71,66.73,66.73,0,0,0,58.19,2.31A90.54,90.54,0,0,0,241.05,441l1.14,0a71.17,71.17,0,0,0,126.1,0,72.05,72.05,0,0,0,32.84-8.25,58.47,58.47,0,0,0,93.08-14,49.57,49.57,0,1,0,8-98.48Z"/><circle id="Ellipse_828" data-name="Ellipse 828" class="cls-4" cx="138.7" cy="262.5" r="18.5"/><circle id="Ellipse_829" data-name="Ellipse 829" class="cls-4" cx="281.7" cy="63.5" r="18.5"/><circle id="Ellipse_830" data-name="Ellipse 830" class="cls-4" cx="424.7" cy="384.5" r="6.5"/><g id="Group_279" data-name="Group 279"><circle id="Ellipse_831" data-name="Ellipse 831" class="cls-5" cx="354.2" cy="225" r="23"/><circle id="Ellipse_832" data-name="Ellipse 832" class="cls-5" cx="100.2" cy="359" r="23"/><circle id="Ellipse_833" data-name="Ellipse 833" class="cls-5" cx="366.7" cy="335.5" r="38.5"/><circle id="Ellipse_834" data-name="Ellipse 834" class="cls-5" cx="276.2" cy="387" r="9"/><circle id="Ellipse_835" data-name="Ellipse 835" class="cls-5" cx="298.2" cy="137" r="9"/><circle id="Ellipse_836" data-name="Ellipse 836" class="cls-5" cx="241.7" cy="163.5" r="38.5"/></g><g id="Group_280" data-name="Group 280"><path id="Rectangle_494" data-name="Rectangle 494" class="cls-6" d="M290.2,586h0a5,5,0,0,1,5,5V810a5,5,0,0,1-5,5h0a5,5,0,0,1-5-5V591A5,5,0,0,1,290.2,586Z"/><path id="Rectangle_495" data-name="Rectangle 495" class="cls-6" d="M290.2,550h0a5,5,0,0,1,5,5v9a5,5,0,0,1-5,5h0a5,5,0,0,1-5-5v-9A5,5,0,0,1,290.2,550Z"/><path id="Rectangle_496" data-name="Rectangle 496" class="cls-6" d="M411.2,491h0a3,3,0,0,1,3,3v18.38a3,3,0,0,1-3,3h0a3,3,0,0,1-3-3V494A3,3,0,0,1,411.2,491Z"/><path id="Rectangle_497" data-name="Rectangle 497" class="cls-6" d="M411.2,448h0a3,3,0,0,1,3,3v18.38a3,3,0,0,1-3,3h0a3,3,0,0,1-3-3V451A3,3,0,0,1,411.2,448Z"/><path id="Rectangle_498" data-name="Rectangle 498" class="cls-6" d="M149.2,429h0a5,5,0,0,1,5,5v60a5,5,0,0,1-5,5h0a5,5,0,0,1-5-5V434A5,5,0,0,1,149.2,429Z"/><path id="Rectangle_499" data-name="Rectangle 499" class="cls-6" d="M149.2,506h0a5,5,0,0,1,5,5v10a5,5,0,0,1-5,5h0a5,5,0,0,1-5-5V511A5,5,0,0,1,149.2,506Z"/></g></g></g></svg>