<svg xmlns="http://www.w3.org/2000/svg" viewBox="0 0 381 663"><defs><style>.cls-1{fill:#aea385;}.cls-2{fill:#bcb194;}.cls-3{fill:#bee4b3;}.cls-4{fill:#fff;}.cls-5{fill:#a8d29c;}.cls-6{fill:#d1cab7;}</style></defs><title>Tree 2</title><g id="Layer_25" data-name="Layer 25"><g id="Tree_3-2" data-name="Tree 3"><g id="Group_254" data-name="Group 254"><path id="Path_403" data-name="Path 403" class="cls-1" d="M281.12,459.5V258.81c0-6.54-5.34-11.38-11.65-11.66s-11.65,5.56-11.65,11.66V260c-.38,22.72,0,128.63,0,151.36v60.31c0,1.93-.16,3.84-.28,5.76l0,.14c-.16.76-.28,1.52-.45,2.27-.26,1.2-.57,2.38-.93,3.55s-.7,2.12-1.09,3.17c.33-.93-.54,1.26-.92,2q-1,2-2.2,3.9c-.32.5-.64,1-1,1.5l-.53.78c-.2.26-.49.64-.6.77l-1.16,1.35c-.87,1-1.77,1.89-2.71,2.79a.3.3,0,0,0-.08.08c-.85.8-1.73,1.55-2.62,2.3-.06,0-1.44,1-2,1.4-2.09,1.36-4.3,2.4-6.49,3.55l-.76.29-1.72.59c-1.31.42-2.63.79-4,1.1s-2.42.47-3.63.7c2.82-.54-.73,0-1.57.07-1.29.08-2.57.08-3.86.08h-1.3v23.32H224a16.62,16.62,0,0,1,2.81-.45,63.09,63.09,0,0,0,19.1-5.52c16.71-7.86,29.74-22.88,33.7-41.59C281.47,476.94,281.12,468.24,281.12,459.5Z"/><path id="Path_404" data-name="Path 404" class="cls-2" d="M217.64,509.79V240.6h-43.9V411.41l-.47-.16-.48-.18c-1.38-.73-2.78-1.39-4.1-2.25-.35-.23-1.22-.87-1.26-.88-.57-.47-1.12-.95-1.65-1.45s-1.2-1.18-1.77-1.81c-.25-.28-.49-.57-.73-.85l-.38-.49-.34-.49c-.21-.31-.41-.63-.61-1-.5-.8-1-1.62-1.39-2.46-.25-.48-.8-1.86-.59-1.28-.24-.66-.48-1.32-.69-2s-.42-1.48-.58-2.24c-.1-.47-.19-.95-.29-1.43l0-.09c-.07-1.21-.17-2.42-.17-3.64,0-1.61,0-3.22,0-4.83V332.38c0-14.35.24-28.72,0-43.07v-.73c0-3.85-3.39-7.54-7.36-7.36a7.48,7.48,0,0,0-7.36,7.36V381.1c0,5.52-.21,11,.94,16.45,3.11,14.68,15,25.76,29.3,29v50.48c-4.83,0-10.49,0-19.51,0-1.28,0-2.57,0-3.85-.08-.84-.05-4.4-.61-1.57-.08-1.22-.23-2.43-.42-3.64-.7s-2.66-.68-4-1.1c-.57-.18-1.14-.4-1.72-.59l-.75-.28c-2.19-1.16-4.4-2.2-6.49-3.56-.57-.37-2-1.39-2-1.4-.9-.74-1.78-1.5-2.62-2.3s-1.9-1.87-2.79-2.87c-.4-.44-.78-.9-1.17-1.34-.11-.13-.39-.51-.59-.78l-.54-.78c-.33-.49-.66-1-1-1.5-.8-1.26-1.53-2.56-2.21-3.9-.38-.75-1.26-2.94-.93-2-.38-1.05-.76-2.1-1.09-3.17s-.66-2.36-.92-3.55c-.17-.75-.29-1.51-.45-2.27,0-.06,0-.09,0-.14-.12-1.92-.27-3.83-.28-5.76V378.62c0-22.72.38-72.57,0-95.29v-1.16c0-6.1-5.36-11.94-11.65-11.66s-11.65,5.12-11.65,11.66V426.8c0,8.74-.34,17.44,1.48,26.06,5.39,25.4,27.46,44,52.8,47.1,7.62.93,15.51.44,23.16.44h4V662.47h43.9V533.11h.3V509.79Z"/><path id="Path_405" data-name="Path 405" class="cls-3" d="M371.67,245.79a43,43,0,0,0-30.5-65.52,30.36,30.36,0,0,0-22.66-46c0-.21,0-.43,0-.64a48.82,48.82,0,0,0-6.69-24.72,37.83,37.83,0,0,0-40.93-34.47,37.41,37.41,0,0,0-9.52,2.07,43.44,43.44,0,0,0-50-58.16,36.89,36.89,0,1,0-63.14,38.18,38.65,38.65,0,0,0,2.42,3.53c-.35.21-.68.44-1,.66a19.6,19.6,0,0,0-38.52,5.17c0,.41,0,.8.06,1.2a35.5,35.5,0,0,0-1.61,58.13,35.52,35.52,0,0,0-7.55,7.64A19.59,19.59,0,0,0,73,147.5a35.45,35.45,0,0,0-38.26,23.19,38.3,38.3,0,0,0-15.3,71.5,38.29,38.29,0,0,0,47.83,44.64,43.4,43.4,0,0,0,68.53,14.71,66.43,66.43,0,0,0,33.7,9.14l.84,0a52.3,52.3,0,0,0,92.67,0c.79,0,1.58,0,2.36-.07a53.22,53.22,0,0,0,52.15,3.12,19.61,19.61,0,0,0,34-19c.5,0,1,0,1.5,0a28,28,0,0,0,18.58-49Z"/><ellipse id="Ellipse_814" data-name="Ellipse 814" class="cls-4" cx="210.64" cy="160.71" rx="22.89" ry="22.89"/><circle id="Ellipse_815" data-name="Ellipse 815" class="cls-4" cx="337.67" cy="241.07" r="12.61"/><g id="Group_282" data-name="Group 282"><ellipse id="Ellipse_816" data-name="Ellipse 816" class="cls-5" cx="138.25" cy="258.35" rx="21.48" ry="21.49"/><ellipse id="Ellipse_817" data-name="Ellipse 817" class="cls-5" cx="180.28" cy="77.09" rx="21.48" ry="21.49"/><circle id="Ellipse_818" data-name="Ellipse 818" class="cls-5" cx="67.73" cy="205.56" r="12.61"/><circle id="Ellipse_819" data-name="Ellipse 819" class="cls-5" cx="265.28" cy="169.59" r="8.41"/><ellipse id="Ellipse_820" data-name="Ellipse 820" class="cls-5" cx="268.55" cy="241.07" rx="35.96" ry="35.97"/></g><g id="Group_283" data-name="Group 283"><path id="Rectangle_481" data-name="Rectangle 481" class="cls-6" d="M103.22,359.26h0a4.22,4.22,0,0,1,4.21,4.21v14.37a4.21,4.21,0,0,1-4.21,4.2h0a4.2,4.2,0,0,1-4.2-4.2V363.47A4.21,4.21,0,0,1,103.22,359.26Z"/><path id="Rectangle_482" data-name="Rectangle 482" class="cls-6" d="M103.22,319.09h0a4.21,4.21,0,0,1,4.21,4.2v14.37a4.21,4.21,0,0,1-4.21,4.2h0a4.2,4.2,0,0,1-4.2-4.2V323.29A4.2,4.2,0,0,1,103.22,319.09Z"/><path id="Rectangle_483" data-name="Rectangle 483" class="cls-6" d="M186.82,477h0a4.67,4.67,0,0,1,4.67,4.67V584.44a4.67,4.67,0,0,1-4.67,4.67h0a4.67,4.67,0,0,1-4.67-4.67V481.66A4.67,4.67,0,0,1,186.82,477Z"/><path id="Rectangle_484" data-name="Rectangle 484" class="cls-6" d="M186.82,350.85h0a4.68,4.68,0,0,1,4.67,4.68v56.06a4.67,4.67,0,0,1-4.67,4.67h0a4.67,4.67,0,0,1-4.67-4.67V355.53A4.68,4.68,0,0,1,186.82,350.85Z"/><path id="Rectangle_485" data-name="Rectangle 485" class="cls-6" d="M269,330.3h0a4.67,4.67,0,0,1,4.67,4.67V391A4.67,4.67,0,0,1,269,395.7h0a4.67,4.67,0,0,1-4.67-4.67V335A4.67,4.67,0,0,1,269,330.3Z"/><rect id="Rectangle_486" data-name="Rectangle 486" class="cls-6" x="145.72" y="311.61" width="6.54" height="65.4" rx="3.27"/><path id="Rectangle_487" data-name="Rectangle 487" class="cls-6" d="M186.82,450.83h0a4.67,4.67,0,0,1,4.67,4.67V462a4.67,4.67,0,0,1-4.67,4.67h0a4.67,4.67,0,0,1-4.67-4.67V455.5A4.67,4.67,0,0,1,186.82,450.83Z"/><path id="Rectangle_488" data-name="Rectangle 488" class="cls-6" d="M186.82,424.67h0a4.67,4.67,0,0,1,4.67,4.67v6.54a4.67,4.67,0,0,1-4.67,4.67h0a4.67,4.67,0,0,1-4.67-4.67v-6.54A4.67,4.67,0,0,1,186.82,424.67Z"/></g></g></g></g></svg>