<svg xmlns="http://www.w3.org/2000/svg" viewBox="0 0 584 963"><defs><style>.cls-1{fill:#aea385;}.cls-2{fill:#bcb194;}.cls-3{fill:#bee4b3;}.cls-4{fill:#fff;}.cls-5{fill:#a8d29c;}.cls-6{fill:#d1cab7;}</style></defs><title>Tree 1</title><g id="Tree_1" data-name="Tree 1"><g id="Component_62_1" data-name="Component 62 1"><path id="Path_413" data-name="Path 413" class="cls-1" d="M461.6,579V433.23c0-9.73-8-16.93-17.35-17.35s-17.34,8.27-17.34,17.35V435c-.57,33.82,0,38.49,0,72.31v78.39c0,3.8,0,7.6,0,11.4,0,2.87-.25,5.71-.41,8.57l-.05.21c-.23,1.12-.42,2.26-.67,3.38q-.58,2.67-1.38,5.28c-.48,1.6-1,3.16-1.62,4.72.49-1.39-.81,1.87-1.38,3-1,2-2.1,3.92-3.28,5.8-.47.76-1,1.5-1.46,2.23,0,0-.42.61-.8,1.16s-.71,1-.88,1.15c-.58.67-1.14,1.35-1.74,2-1.32,1.48-2.71,2.91-4.15,4.27-1.25,1.2-2.56,2.33-3.9,3.43-.09,0-2.13,1.52-3,2.07-3.11,2-6.39,3.58-9.66,5.3l-1.13.43c-.85.28-1.69.6-2.56.87q-2.91.95-5.9,1.64c-1.79.42-3.61.7-5.41,1,4.2-.8-1.09,0-2.34.11l-1.5.06c-1.41,0-2.83.06-4.24.06-28.44,0-34.57-.07-53.71-.12v34.82h30.56c9,0,18.28.44,27.39-.06,2.37-.13,4.73-.31,7.08-.59,37.73-4.59,70.58-32.31,78.59-70.12C462.1,604.94,461.6,592,461.6,579Z"/><path id="Path_414" data-name="Path 414" class="cls-2" d="M315.41,653.72V370H250.06V584.66c-14.43,0-1.06,0-15.48,0-1.21,0-2.42,0-3.63-.07-.79-.05-4.13-.58-1.47-.07-1.15-.22-2.29-.4-3.42-.66s-2.5-.64-3.73-1c-.54-.17-1.08-.37-1.62-.55L220,582c-2.06-1.09-4.14-2.06-6.1-3.34-.53-.35-1.83-1.3-1.88-1.31-.84-.7-1.67-1.41-2.46-2.16s-1.79-1.77-2.63-2.7l-1.1-1.27c-.1-.12-.37-.47-.55-.72l-.5-.74c-.32-.46-.62-.93-.92-1.4-.75-1.19-1.44-2.41-2.07-3.67-.36-.71-1.18-2.77-.88-1.9-.36-1-.72-2-1-3s-.62-2.21-.87-3.33c-.16-.71-.28-1.42-.43-2.13,0-.06,0-.09,0-.14-.11-1.8-.26-3.6-.26-5.41,0-2.4,0-4.8,0-7.2V464.86c0-21.36.36-94.21,0-115.57,0-.37,0-.73,0-1.09,0-5.73-5-11.23-11-11a11.14,11.14,0,0,0-10.95,11V537.38c0,8.21-.32,16.39,1.4,24.49,5.06,23.88,25.8,41.39,49.63,44.28,7.16.87.68.41,7.87.41h14.77v88.16H182.23c-1.35,0-2.7,0-4-.09-.88,0-4.62-.64-1.65-.08-1.27-.24-2.55-.44-3.82-.73s-2.79-.71-4.17-1.16l-1.8-.62-.8-.3c-2.3-1.21-4.62-2.3-6.82-3.73-.6-.39-2-1.46-2.1-1.47-.94-.78-1.87-1.57-2.75-2.41s-2-2-2.94-3c-.41-.46-.82-.94-1.22-1.41-.12-.14-.41-.53-.62-.82l-.57-.82c-.35-.51-.69-1-1-1.57-.84-1.33-1.61-2.69-2.32-4.1-.4-.8-1.32-3.09-1-2.12-.41-1.1-.81-2.2-1.15-3.33s-.7-2.47-1-3.73c-.18-.79-.31-1.59-.48-2.38,0-.06,0-.1,0-.15-.12-2-.28-4-.29-6V560.81c0-23.88.4-209.13,0-233v-1.22c0-6.41-5.63-12.55-12.24-12.25s-12.25,5.38-12.25,12.25V641.87c0,9.18-.35,18.32,1.57,27.38,5.65,26.69,28.84,46.26,55.48,49.5,8,1,16.29.46,24.33.46h51.49V963.5h65.34v-275h.35V653.72Z"/><path id="Path_415" data-name="Path 415" class="cls-3" d="M529.76,329.63a54.14,54.14,0,0,0-6.36.38,49.17,49.17,0,0,0-8.25-6.08,59.13,59.13,0,0,0-12.53-60.48,73,73,0,0,0-68.1-99.33c-.88,0-1.76,0-2.64.07a45.24,45.24,0,0,0-38.75-31.84A63.26,63.26,0,0,0,340.2,34.78a41,41,0,0,0-75.5-15.22,63.29,63.29,0,0,0-90.23,72.2,52.88,52.88,0,0,0-40.64,45.63,41,41,0,0,0-28.07,76.45c0,.81-.06,1.62-.06,2.44,0,1.21,0,2.41.09,3.61a52.85,52.85,0,0,0-58,78.38,41,41,0,0,0-20.57,63,41,41,0,1,0,42.3,68.15,60.55,60.55,0,0,0,51.83,5.15,73,73,0,0,0,51.8-2.52A99.1,99.1,0,0,0,244,461.76c.42,0,.82,0,1.24,0a77.84,77.84,0,0,0,137.94,0,78.83,78.83,0,0,0,35.93-9A64,64,0,0,0,521,437.39a54.24,54.24,0,1,0,8.79-107.76Z"/><ellipse id="Ellipse_837" data-name="Ellipse 837" class="cls-4" cx="457.81" cy="403.32" rx="12.45" ry="12.45"/><ellipse id="Ellipse_838" data-name="Ellipse 838" class="cls-4" cx="157.57" cy="189.21" rx="23.46" ry="23.47"/><ellipse id="Ellipse_839" data-name="Ellipse 839" class="cls-4" cx="304.57" cy="454.1" rx="15.32" ry="15.33"/><g id="Group_277" data-name="Group 277"><ellipse id="Ellipse_840" data-name="Ellipse 840" class="cls-5" cx="297.87" cy="207.89" rx="44.05" ry="44.07"/><ellipse id="Ellipse_841" data-name="Ellipse 841" class="cls-5" cx="408" cy="320.93" rx="22.03" ry="22.03"/><ellipse id="Ellipse_842" data-name="Ellipse 842" class="cls-5" cx="190.13" cy="323.33" rx="36.87" ry="36.88"/><circle id="Ellipse_843" data-name="Ellipse 843" class="cls-5" cx="237.53" cy="322.85" r="8.62"/><circle id="Ellipse_844" data-name="Ellipse 844" class="cls-5" cx="407.05" cy="286.45" r="8.62"/><circle id="Ellipse_845" data-name="Ellipse 845" class="cls-5" cx="304.57" cy="92.93" r="8.62"/></g><g id="Group_284" data-name="Group 284"><path id="Rectangle_500" data-name="Rectangle 500" class="cls-6" d="M266.66,612.35h0a6.14,6.14,0,0,1,6.15,6.14V887.68a6.14,6.14,0,0,1-6.15,6.14h0a6.14,6.14,0,0,1-6.14-6.14V618.49A6.14,6.14,0,0,1,266.66,612.35Z"/><path id="Rectangle_501" data-name="Rectangle 501" class="cls-6" d="M266.66,568.1h0a6.14,6.14,0,0,1,6.15,6.14v11.07a6.14,6.14,0,0,1-6.15,6.14h0a6.14,6.14,0,0,1-6.14-6.14V574.24A6.14,6.14,0,0,1,266.66,568.1Z"/><path id="Rectangle_502" data-name="Rectangle 502" class="cls-6" d="M266.66,526.9h0a6.15,6.15,0,0,1,6.15,6.15v11.06a6.15,6.15,0,0,1-6.15,6.15h0a6.14,6.14,0,0,1-6.14-6.15V533.05A6.15,6.15,0,0,1,266.66,526.9Z"/><rect id="Rectangle_503" data-name="Rectangle 503" class="cls-6" x="122.61" y="497.21" width="8.62" height="23.35" rx="4.31"/><rect id="Rectangle_504" data-name="Rectangle 504" class="cls-6" x="122.61" y="456.01" width="8.62" height="23.35" rx="4.31"/><path id="Rectangle_505" data-name="Rectangle 505" class="cls-6" d="M439.61,488.58h0a4.8,4.8,0,0,1,4.79,4.79v57.48a4.79,4.79,0,0,1-4.79,4.79h0a4.78,4.78,0,0,1-4.79-4.79V493.37A4.79,4.79,0,0,1,439.61,488.58Z"/><path id="Rectangle_506" data-name="Rectangle 506" class="cls-6" d="M185.82,452.18h0a4.8,4.8,0,0,1,4.79,4.79v57.48a4.79,4.79,0,0,1-4.79,4.79h0a4.78,4.78,0,0,1-4.79-4.79V457A4.79,4.79,0,0,1,185.82,452.18Z"/></g></g></g></svg>