<svg xmlns="http://www.w3.org/2000/svg" viewBox="0 0 145 161"><defs><style>.cls-1{fill:#3d5363;}.cls-2{fill:#2e4451;}.cls-3{fill:#896a6a;}.cls-4{fill:#684b4b;}.cls-5{fill:#fff;}</style></defs><title>Up Sign</title><g id="Layer_25" data-name="Layer 25"><rect class="cls-1" x="57.24" y="85.66" width="32.81" height="75.34"/><polygon class="cls-2" points="90.05 91 57.24 93 57.24 85.66 90.05 85.66 90.05 91"/><rect class="cls-3" x="63.49" y="94.17" width="7.29" height="44.83" rx="3.65" transform="translate(134.27 233.17) rotate(180)"/><rect class="cls-3" x="63.49" y="149" width="7.29" height="8" rx="3.65" transform="translate(134.27 306) rotate(-180)"/><rect class="cls-3" x="1.63" y="47.3" width="30.72" height="14" transform="translate(-2.22 0.75) rotate(-2.36)"/><path class="cls-3" d="M30.27,3.71l-9.62.4A21.09,21.09,0,0,0,.45,26.05l0,.91,30.69-1.27Z"/><rect class="cls-3" x="0.91" y="32.32" width="30.72" height="9" transform="translate(-1.5 0.7) rotate(-2.36)"/><path class="cls-3" d="M32.87,66.66,2.18,67.93l0,1.27A21.45,21.45,0,0,0,3,73.9l30.14-1.25Z"/><path class="cls-3" d="M5.63,79.79A21.06,21.06,0,0,0,24.17,89.4l9.62-.4-.42-10.35Z"/><rect class="cls-4" x="0.6" y="26.32" width="30.72" height="6" transform="translate(-1.2 0.68) rotate(-2.36)"/><rect class="cls-4" x="1.22" y="41.31" width="30.72" height="6" transform="translate(-1.81 0.72) rotate(-2.36)"/><rect class="cls-4" x="2.05" y="61.29" width="30.72" height="6" transform="translate(-2.64 0.77) rotate(-2.36)"/><path class="cls-4" d="M33.12,72.65,3,73.9a20.77,20.77,0,0,0,2.65,5.89l27.74-1.14Z"/><rect class="cls-1" x="7.28" y="1.88" width="136.72" height="85.36" rx="21.09" transform="translate(-1.77 3.16) rotate(-2.36)"/><rect class="cls-3" x="37.53" y="8.27" width="7" height="3" rx="1.5" transform="translate(-0.37 1.7) rotate(-2.36)"/><rect class="cls-3" x="49.51" y="7.28" width="31" height="3" rx="1.5" transform="translate(-0.31 2.69) rotate(-2.36)"/><rect class="cls-3" x="24.54" y="8.81" width="7" height="3" rx="1.5" transform="translate(-0.4 1.17) rotate(-2.36)"/><rect class="cls-3" x="106.52" y="79.26" width="18" height="3" rx="1.5" transform="translate(-3.23 4.83) rotate(-2.36)"/><rect class="cls-3" x="30.59" y="82.62" width="7" height="3" rx="1.5" transform="translate(-3.44 1.48) rotate(-2.36)"/><rect class="cls-3" x="41.58" y="82.17" width="7" height="3" rx="1.5" transform="translate(-3.41 1.93) rotate(-2.36)"/><circle class="cls-2" cx="129.72" cy="36.64" r="4"/><circle class="cls-2" cx="58.9" cy="42.56" r="4"/><circle class="cls-2" cx="18.13" cy="36.74" r="2.5"/><circle class="cls-2" cx="92.6" cy="46.68" r="2.5"/><circle class="cls-2" cx="92.63" cy="71.7" r="2.5"/><circle class="cls-2" cx="126.27" cy="62.3" r="2.5"/><circle class="cls-2" cx="103.38" cy="41.23" r="1.5"/><circle class="cls-2" cx="31.37" cy="18.18" r="1.5"/><circle class="cls-2" cx="29.64" cy="73.3" r="1.5"/><circle class="cls-2" cx="102.23" cy="13.25" r="1.5"/><rect class="cls-5" x="67.6" y="16.92" width="11.73" height="61.24" rx="5.86" transform="translate(51.62 -37.19) rotate(42.64)"/><rect class="cls-5" x="84.1" y="23.3" width="11.73" height="25.1" rx="5.86" transform="translate(-1.4 3.74) rotate(-2.36)"/><rect class="cls-5" x="77.48" y="17.21" width="11.73" height="25.1" rx="5.86" transform="translate(109.64 -54.74) rotate(87.64)"/></g></svg>