<svg xmlns="http://www.w3.org/2000/svg" viewBox="0 0 2208 712"><defs><style>.cls-1{fill:#d2ebea;}</style></defs><title>Valley Back</title><g id="Layer_25" data-name="Layer 25"><path class="cls-1" d="M2144-.12c-25.79,0-52.13.65-78.27,1.94-25,1.22-50.54,3.05-75.84,5.45-24.1,2.28-48.67,5.14-73,8.48-23.14,3.18-46.65,6.88-69.88,11a1923.72,1923.72,0,0,0-240.72,59.11c-14.5,4.56-29.12,9.36-43.45,14.25-30.19-7.94-61.23-14.93-92.25-20.77-29.87-5.62-60.55-10.34-91.19-14-29.43-3.54-59.59-6.21-89.65-7.94-28.8-1.66-58.29-2.5-87.65-2.5-246.38,0-462.75,58.22-600.89,107.05-8.7-4.87-18.36-9.93-28.71-15-14.64-7.2-31.2-14.75-49.24-22.45-18.6-7.94-39.32-16.27-61.57-24.74C438.77,91,413.59,81.86,386.81,72.56c-16.34-5.67-33.09-11.1-49.77-16.14-16.31-4.93-33-9.61-49.65-13.93-16.29-4.22-32.94-8.19-49.48-11.81-16.2-3.55-32.76-6.85-49.23-9.81-16.09-2.9-32.54-5.56-48.9-7.9-16-2.29-32.3-4.34-48.51-6.09-15.85-1.71-32-3.18-48-4.37C31.15,1.61,18.5,1.15,6.37,1L0,1.21V712H2208V1.21C2186.92.33,2165.39-.12,2144-.12Z"/></g></svg>