<svg xmlns="http://www.w3.org/2000/svg" viewBox="0 0 2208 444"><defs><style>.cls-1{fill:#c9ddd6;}</style></defs><title>Valley Front</title><g id="Layer_25" data-name="Layer 25"><path id="Subtraction_15" data-name="Subtraction 15" class="cls-1" d="M2208,444.23H0V43.07C73.33,29.33,152.57,18.7,235.51,11.48,321.15,4,410.25.23,500.36.23c63.68,0,127.32,1.9,189.15,5.66C749.78,9.55,809.06,15,865.69,22.12c55.6,7,109.24,15.62,159.42,25.68,49.71,10,96.44,21.4,138.9,34,14.28,4.24,28.3,8.68,41.68,13.21,43-4.66,87.57-8.4,132.3-11.11,61.81-3.76,125.45-5.66,189.15-5.66,65.6,0,131.1,2,194.68,6,61.94,3.88,122.76,9.66,180.78,17.18,20,2.59,40,5.44,59.36,8.45,20.66-8,43-15.8,66.48-23.12,53.59-16.7,114-31.4,179.55-43.67V444.23Z"/></g></svg>