<svg xmlns="http://www.w3.org/2000/svg" viewBox="0 0 140 140"><defs><style>.cls-1{fill:#896a6a;}.cls-2{fill:#664e4e;}.cls-3{fill:#c4c4c4;}.cls-4{fill:#fff;}.cls-5{fill:#7c7c7c;}.cls-6{fill:#7c5e5e;}</style></defs><title>Barrel</title><g id="Layer_25" data-name="Layer 25"><path class="cls-1" d="M117,11V5.39c0-3-1.62-5.39-3.62-5.39H25.62C23.62,0,22,2.42,22,5.39V11C18.59,23.3,12,49.31,12,66.47c0,16,6.16,43.35,10,58.88v9.26c0,3,1.62,5.39,3.62,5.39h87.76c2,0,3.62-2.42,3.62-5.39v-9.26c3.84-15.53,10-42.93,10-58.88C127,49.31,120.41,23.3,117,11Z"/><path class="cls-2" d="M52.91,6.68l-2.82-.36c-.08.61-7.93,61.92,0,126.35l2.82-.34C45,68.26,52.83,7.29,52.91,6.68Z"/><path class="cls-2" d="M33.84,7,31.16,6c-.21.61-20.91,61.21,0,126.9l2.7-.86C13.25,67.31,33.63,7.56,33.84,7Z"/><polygon class="cls-2" points="68.75 7 68.58 7 68.58 132 68.75 132 71.42 132 71.58 132 71.58 7 71.42 7 68.75 7"/><path class="cls-2" d="M87.26,6.67c7.89,64.07.08,125,0,125.65l2.81.36c.08-.61,7.93-61.92,0-126.35Z"/><path class="cls-2" d="M109,6.07l-2.7.86c20.6,64.76.22,124.51,0,125.1L109,133C109.22,132.36,129.92,71.76,109,6.07Z"/><rect class="cls-3" x="17.06" width="105.94" height="15" rx="4.56"/><rect class="cls-3" x="16" y="125" width="105.94" height="15" rx="4.56"/><rect class="cls-3" x="8" y="60" width="124" height="15" rx="4.56"/><rect class="cls-4" x="29.85" y="3.71" width="38.65" height="2.98" rx="1.49"/><rect class="cls-4" x="70.85" y="3.71" width="3.65" height="2.98" rx="1.49"/><rect class="cls-4" x="86" y="63.71" width="19" height="2.98" rx="1.49"/><rect class="cls-4" x="20" y="63.71" width="5" height="2.98" rx="1.49"/><rect class="cls-4" x="108" y="63.71" width="7" height="2.98" rx="1.49"/><rect class="cls-5" x="26.85" y="132.71" width="29.15" height="2.98" rx="1.49"/><rect class="cls-5" x="59" y="132.71" width="7" height="2.98" rx="1.49"/><circle class="cls-6" cx="103.21" cy="21.68" r="2.18"/><circle class="cls-5" cx="94.97" cy="69.99" r="2.18"/><circle class="cls-6" cx="74.38" cy="49.57" r="1.38"/><circle class="cls-6" cx="99.64" cy="49.39" r="2.18"/><circle class="cls-6" cx="98.34" cy="97.52" r="1.38"/><circle class="cls-6" cx="96.34" cy="31.13" r="1.38"/><circle class="cls-6" cx="35.91" cy="51.9" r="2.18"/><circle class="cls-6" cx="63.66" cy="115.82" r="2.18"/><circle class="cls-6" cx="35.95" cy="100.05" r="1.38"/><circle class="cls-5" cx="56.39" cy="71.77" r="1.38"/><circle class="cls-6" cx="32.11" cy="33.74" r="1.38"/></g></svg>