<svg xmlns="http://www.w3.org/2000/svg" viewBox="0 0 140 38"><defs><style>.cls-1{fill:#c2e207;}.cls-2{fill:#b0c105;}</style></defs><title>Continuous Vegetation Tile</title><g id="Layer_25" data-name="Layer 25"><path class="cls-1" d="M140,38V3.15A13.16,13.16,0,0,0,138,3a13,13,0,0,0-12.56,9.67,9,9,0,0,0-4-2.35A3.45,3.45,0,0,0,122,8.46a3.49,3.49,0,0,0-6.54-1.7,8,8,0,0,0-10.32,3.09A5.91,5.91,0,0,0,102,9a6,6,0,0,0-3.15.9,10,10,0,0,0-10-1A6,6,0,0,0,81.3,4.23,13,13,0,0,0,62.08,9.76a8,8,0,0,0-12.94,1.08,6,6,0,0,0-7.93,1.5,9.55,9.55,0,0,0-1.52.58A9.07,9.07,0,0,0,34,10a10.49,10.49,0,1,0-20.36,4c-.2,0-.41,0-.62,0a9.41,9.41,0,0,0-2.13.26A13,13,0,0,0,0,3.15V38Z"/><ellipse class="cls-1" cx="42.5" cy="3.48" rx="3.5" ry="3.48"/><ellipse class="cls-2" cx="87" cy="18.9" rx="5" ry="4.97"/><ellipse class="cls-2" cx="39.5" cy="27.36" rx="6.5" ry="6.47"/><ellipse class="cls-2" cx="75" cy="33.83" rx="3" ry="2.98"/><ellipse class="cls-2" cx="128" cy="20.89" rx="3" ry="2.98"/><ellipse class="cls-2" cx="13" cy="20.89" rx="3" ry="2.98"/><ellipse class="cls-2" cx="117" cy="32.83" rx="3" ry="2.98"/></g></svg>