<svg xmlns="http://www.w3.org/2000/svg" viewBox="0 0 140 140"><defs><style>.cls-1{fill:#3d5363;}.cls-2{fill:#664e4e;}.cls-3{fill:#896a6a;}.cls-4{fill:#c2e207;}.cls-5{fill:#b0c105;}</style></defs><title>Continous Floor Tile</title><g id="Layer_25" data-name="Layer 25"><rect class="cls-1" y="34" width="140" height="106"/><path class="cls-2" d="M85.5,67a19.45,19.45,0,0,0-7.68,1.57,19.48,19.48,0,1,0-9.64,26.86A19.49,19.49,0,1,0,85.5,67Z"/><circle class="cls-2" cx="38" cy="97" r="8"/><path class="cls-2" d="M17,73a8.94,8.94,0,0,0-1.17.09A19.43,19.43,0,0,0,17,66.5,19.49,19.49,0,0,0,0,47.18V85.82a19.29,19.29,0,0,0,9.09-3.67A8,8,0,1,0,17,73Z"/><circle class="cls-2" cx="103" cy="116" r="11"/><circle class="cls-2" cx="63.5" cy="107.5" r="8.5"/><circle class="cls-2" cx="14.5" cy="104.5" r="7.5"/><circle class="cls-2" cx="30" cy="110" r="5"/><circle class="cls-2" cx="72" cy="123" r="5"/><circle class="cls-2" cx="131" cy="107" r="5"/><circle class="cls-2" cx="113.5" cy="129.5" r="3.5"/><circle class="cls-2" cx="45.5" cy="107.5" r="3.5"/><circle class="cls-2" cx="6.5" cy="91.5" r="3.5"/><path class="cls-2" d="M137.5,46.5A19.62,19.62,0,0,0,118,66.25a20.05,20.05,0,0,0,.85,5.78A14.49,14.49,0,1,0,134,86.5c0-.28,0-.56,0-.84a19.67,19.67,0,0,0,3.54.34,18.74,18.74,0,0,0,2.5-.18V46.68A18.74,18.74,0,0,0,137.5,46.5Z"/><path class="cls-3" d="M139.9,25H.1a.11.11,0,0,0-.1.1V35H0V53H.19A13.9,13.9,0,0,1,14,66.91V85.25A13.76,13.76,0,0,0,27.75,99h.5A13.76,13.76,0,0,0,42,85.25v-12A6.25,6.25,0,0,1,48.25,67h15.5A6.25,6.25,0,0,1,70,73.25v.5A6.25,6.25,0,0,0,76.25,80h15.5A6.25,6.25,0,0,1,98,86.25v10A13.76,13.76,0,0,0,111.75,110h.5A13.76,13.76,0,0,0,126,96.25V66.9A13.9,13.9,0,0,1,139.9,53h.1V25.1A.11.11,0,0,0,139.9,25Z"/><circle class="cls-4" cx="42.5" cy="3.5" r="3.5"/><path class="cls-4" d="M138,3a13,13,0,0,0-12.56,9.71,9.06,9.06,0,0,0-4-2.36A3.45,3.45,0,0,0,122,8.5a3.49,3.49,0,0,0-6.54-1.7A7.89,7.89,0,0,0,112,6a8,8,0,0,0-6.86,3.9,5.95,5.95,0,0,0-6.29,0,9.95,9.95,0,0,0-10-1A6,6,0,0,0,81.3,4.25,13,13,0,0,0,62.08,9.81,8,8,0,0,0,49.14,10.9,5.91,5.91,0,0,0,46,10a6,6,0,0,0-4.79,2.4,10.65,10.65,0,0,0-1.52.59A9,9,0,0,0,34,10.06a10.49,10.49,0,1,0-20.36,4c-.2,0-.41,0-.62,0a9.34,9.34,0,0,0-2.13.26A13,13,0,0,0,0,3.17V44a4,4,0,0,0,.5,0,3.39,3.39,0,0,0,.91-.14,6,6,0,0,0,8.77.44,6,6,0,0,0,7.6-1.68,9.66,9.66,0,0,0,1.84-1.53A6,6,0,0,0,24,43h.05a3.49,3.49,0,0,0,2.45,1,3.57,3.57,0,0,0,.74-.08A9,9,0,0,0,39.69,43,9.85,9.85,0,0,0,44,44a10,10,0,0,0,6.93-2.8,6,6,0,0,0,10.18-.07,6,6,0,0,0,11.25,1.55,8,8,0,0,0,11.14.12,8,8,0,0,0,11.9-1,6,6,0,0,0,7.11.07l.55.08a3.43,3.43,0,0,0-.06.56,3.5,3.5,0,0,0,6.93.7,8,8,0,0,0,10.32,1.57,3.48,3.48,0,0,0,6.5,0A7.91,7.91,0,0,0,131,46a8,8,0,0,0,6.63-3.52A3.52,3.52,0,0,0,140,44V3.17A13.16,13.16,0,0,0,138,3Z"/><circle class="cls-5" cx="87" cy="19" r="5"/><circle class="cls-5" cx="39.5" cy="27.5" r="6.5"/><circle class="cls-5" cx="75" cy="34" r="3"/><circle class="cls-5" cx="128" cy="21" r="3"/><circle class="cls-5" cx="13" cy="21" r="3"/><circle class="cls-5" cx="117" cy="33" r="3"/></g></svg>