<svg xmlns="http://www.w3.org/2000/svg" viewBox="0 0 140 140"><defs><style>.cls-1{fill:#3d5363;}.cls-2{fill:#664e4e;}.cls-3{fill:#896a6a;}.cls-4{fill:#c2e207;}.cls-5{fill:#b0c105;}</style></defs><title>Floor Right Corner Tile</title><g id="Layer_25" data-name="Layer 25"><path class="cls-1" d="M140,59a11,11,0,0,0-4-8.5A9,9,0,0,0,131,34H0V140H140a17,17,0,0,0-3-9.68c-1-1.32-4-3.32-4.4-2.07a11.49,11.49,0,0,0,3.22-19.64A9,9,0,0,0,136,93.5c0-.17,0-.33,0-.5a9,9,0,0,0-2.43-6.14,8.9,8.9,0,0,0,.89-7.89,14.41,14.41,0,0,0,.83-11A11,11,0,0,0,140,59Z"/><path class="cls-2" d="M85.5,67a19.45,19.45,0,0,0-7.68,1.57,19.48,19.48,0,1,0-9.64,26.86A19.49,19.49,0,1,0,85.5,67Z"/><circle class="cls-2" cx="38" cy="97" r="8"/><path class="cls-2" d="M17,73a8.94,8.94,0,0,0-1.17.09A19.43,19.43,0,0,0,17,66.5,19.49,19.49,0,0,0,0,47.18V85.82a19.29,19.29,0,0,0,9.09-3.67A8,8,0,1,0,17,73Z"/><circle class="cls-2" cx="103" cy="116" r="11"/><circle class="cls-2" cx="63.5" cy="107.5" r="8.5"/><circle class="cls-2" cx="14.5" cy="104.5" r="7.5"/><circle class="cls-2" cx="30" cy="110" r="5"/><circle class="cls-2" cx="72" cy="123" r="5"/><circle class="cls-2" cx="131" cy="107" r="5"/><circle class="cls-2" cx="113.5" cy="129.5" r="3.5"/><circle class="cls-2" cx="45.5" cy="107.5" r="3.5"/><circle class="cls-2" cx="6.5" cy="91.5" r="3.5"/><path class="cls-2" d="M136.82,63.3A10,10,0,1,0,120,56a10.12,10.12,0,0,0,.1,1.36,19.93,19.93,0,0,0-2.1,8.89c0,.34,0,.67,0,1s0,.49,0,.74a10,10,0,0,0,.85,4A14.49,14.49,0,1,0,134,86.5c0-.12,0-.23,0-.35.14-.14.28-.28.41-.43a10,10,0,0,0,1.41-11.47,10,10,0,0,0,1-11Z"/><path class="cls-3" d="M136,53.56a5.87,5.87,0,0,0-2.91-1.45A10,10,0,0,0,124.49,38a6,6,0,0,0-3.4-1.92A6.5,6.5,0,0,0,116.5,25H.1a.11.11,0,0,0-.1.1V35H0V53H.19A13.9,13.9,0,0,1,14,66.91V85.25A13.76,13.76,0,0,0,27.75,99h.5A13.76,13.76,0,0,0,42,85.25v-12A6.25,6.25,0,0,1,48.25,67h15.5A6.25,6.25,0,0,1,70,73.25v.5A6.25,6.25,0,0,0,76.25,80h15.5A6.25,6.25,0,0,1,98,86.25v10A13.76,13.76,0,0,0,111.75,110h.5A13.76,13.76,0,0,0,126,96.25V66.9a13.87,13.87,0,0,1,1.1-5.44,6,6,0,1,0,8.92-7.9Z"/><path class="cls-4" d="M137.16,26a9,9,0,0,0-4.73-8,9.35,9.35,0,0,0-1-.46,6.49,6.49,0,0,0-3-4.62,5.83,5.83,0,0,0-3.75-.82,9,9,0,0,0-1-2.57,8.58,8.58,0,0,0-4.81-4.06A9.86,9.86,0,0,0,110.2,0a10.19,10.19,0,0,0-9.91,10.06A8.34,8.34,0,0,0,94.89,13a10.11,10.11,0,0,0-1.44-.59A5.56,5.56,0,0,0,88.92,10a5.36,5.36,0,0,0-3,.9A7.48,7.48,0,0,0,79.46,7a7.35,7.35,0,0,0-5.75,2.81A12.31,12.31,0,0,0,62.43,2a11.77,11.77,0,0,0-6.91,2.25A5.3,5.3,0,0,0,53.92,4a5.78,5.78,0,0,0-5.58,4.89A8.88,8.88,0,0,0,44.46,8a9,9,0,0,0-5.53,1.9,5.38,5.38,0,0,0-6,0A7.47,7.47,0,0,0,26.49,6a7.13,7.13,0,0,0-3.28.8A3.26,3.26,0,0,0,20.34,5,3.41,3.41,0,0,0,17,8.5a3.61,3.61,0,0,0,.51,1.85,8.4,8.4,0,0,0-3.76,2.36A12.44,12.44,0,0,0,1.89,3,11.86,11.86,0,0,0,0,3.17V44a3.3,3.3,0,0,0,2.24-1.47A7.47,7.47,0,0,0,8.51,46a7.17,7.17,0,0,0,4-1.23,3.24,3.24,0,0,0,6.16,0,7.17,7.17,0,0,0,4,1.23,7.41,7.41,0,0,0,5.75-2.8A3.35,3.35,0,0,0,31.69,46,3.41,3.41,0,0,0,35,42.5a5.07,5.07,0,0,0,0-.56l.51-.08a5.41,5.41,0,0,0,6.73-.07A7.42,7.42,0,0,0,48.24,45a7.34,7.34,0,0,0,5.21-2.2A7.26,7.26,0,0,0,64,42.68,5.64,5.64,0,0,0,69.05,46a5.79,5.79,0,0,0,5.58-4.87,5.51,5.51,0,0,0,9.63.07A9.15,9.15,0,0,0,90.81,44a8.94,8.94,0,0,0,4.08-1,8.3,8.3,0,0,0,6.33,3,8.2,8.2,0,0,0,5.44-2.08,3.27,3.27,0,0,0,.7.08,3.2,3.2,0,0,0,2.1-.81A5.48,5.48,0,0,0,113.51,45a5.41,5.41,0,0,0,3.3-1.15,5.52,5.52,0,0,0,.53-.43,5,5,0,0,0,2.32.58,5.07,5.07,0,0,0,3.48-1.41A6,6,0,0,0,132.92,39a4.47,4.47,0,0,0,2.64-7.74A9.28,9.28,0,0,0,137.16,26Z"/><circle class="cls-5" cx="72" cy="22" r="5"/><circle class="cls-5" cx="20.5" cy="25.5" r="6.5"/><circle class="cls-5" cx="87" cy="34" r="3"/><circle class="cls-5" cx="120" cy="26" r="3"/><circle class="cls-5" cx="50" cy="31" r="3"/></g></svg>