<svg xmlns="http://www.w3.org/2000/svg" viewBox="0 0 140 140"><defs><style>.cls-1{fill:#3d5363;}.cls-2{fill:#664e4e;}.cls-3{fill:#896a6a;}.cls-4{fill:#c2e207;}.cls-5{fill:#b0c105;}</style></defs><title>Floor Left Corner Tile</title><g id="Layer_25" data-name="Layer 25"><path class="cls-1" d="M0,59a11,11,0,0,1,4-8.5A9,9,0,0,1,9,34H140V140H0a17,17,0,0,1,3-9.68c1-1.32,4-3.32,4.4-2.07a11.49,11.49,0,0,1-3.22-19.64A9,9,0,0,1,4,93.5c0-.17,0-.33,0-.5a9,9,0,0,1,2.43-6.14A8.9,8.9,0,0,1,5.54,79a14.41,14.41,0,0,1-.83-11A11,11,0,0,1,0,59Z"/><path class="cls-2" d="M54.5,67a19.45,19.45,0,0,1,7.68,1.57,19.48,19.48,0,1,1,9.64,26.86A19.49,19.49,0,1,1,54.5,67Z"/><circle class="cls-2" cx="102" cy="97" r="8"/><path class="cls-2" d="M123,73a8.94,8.94,0,0,1,1.17.09A19.42,19.42,0,0,1,140,47.18V85.82a19.29,19.29,0,0,1-9.09-3.67A8,8,0,1,1,123,73Z"/><circle class="cls-2" cx="37" cy="116" r="11"/><circle class="cls-2" cx="76.5" cy="107.5" r="8.5"/><circle class="cls-2" cx="125.5" cy="104.5" r="7.5"/><circle class="cls-2" cx="110" cy="110" r="5"/><circle class="cls-2" cx="68" cy="123" r="5"/><circle class="cls-2" cx="9" cy="107" r="5"/><circle class="cls-2" cx="26.5" cy="129.5" r="3.5"/><circle class="cls-2" cx="94.5" cy="107.5" r="3.5"/><circle class="cls-2" cx="133.5" cy="91.5" r="3.5"/><path class="cls-2" d="M3.18,63.3A10,10,0,1,1,20,56a10.12,10.12,0,0,1-.1,1.36A19.93,19.93,0,0,1,22,66.25c0,.34,0,.67,0,1s0,.49,0,.74a10,10,0,0,1-.85,4A14.49,14.49,0,1,1,6,86.5c0-.12,0-.23,0-.35s-.28-.28-.41-.43A10,10,0,0,1,4.2,74.25a10,10,0,0,1-1-11Z"/><path class="cls-3" d="M4,53.56a5.87,5.87,0,0,1,2.91-1.45A10,10,0,0,1,15.51,38a6,6,0,0,1,3.4-1.92A6.5,6.5,0,0,1,23.5,25H139.9a.11.11,0,0,1,.1.1V35h0V53h-.19A13.9,13.9,0,0,0,126,66.91V85.25A13.76,13.76,0,0,1,112.25,99h-.5A13.76,13.76,0,0,1,98,85.25v-12A6.25,6.25,0,0,0,91.75,67H76.25A6.25,6.25,0,0,0,70,73.25v.5A6.25,6.25,0,0,1,63.75,80H48.25A6.25,6.25,0,0,0,42,86.25v10A13.76,13.76,0,0,1,28.25,110h-.5A13.76,13.76,0,0,1,14,96.25V66.9a13.87,13.87,0,0,0-1.1-5.44A6,6,0,1,1,4,53.56Z"/><path class="cls-4" d="M2.84,26a9,9,0,0,1,4.73-8,9.35,9.35,0,0,1,1-.46,6.49,6.49,0,0,1,3-4.62,5.83,5.83,0,0,1,3.75-.82,9,9,0,0,1,1-2.57,8.58,8.58,0,0,1,4.81-4.06A9.86,9.86,0,0,1,29.8,0a10.19,10.19,0,0,1,9.91,10.06A8.34,8.34,0,0,1,45.11,13a10.11,10.11,0,0,1,1.44-.59A5.56,5.56,0,0,1,51.08,10a5.36,5.36,0,0,1,3,.9A7.48,7.48,0,0,1,60.54,7a7.35,7.35,0,0,1,5.75,2.81A12.31,12.31,0,0,1,77.57,2a11.77,11.77,0,0,1,6.91,2.25A5.3,5.3,0,0,1,86.08,4a5.78,5.78,0,0,1,5.58,4.89A8.88,8.88,0,0,1,95.54,8a9,9,0,0,1,5.53,1.9,5.38,5.38,0,0,1,6,0A7.47,7.47,0,0,1,113.51,6a7.13,7.13,0,0,1,3.28.8A3.26,3.26,0,0,1,119.66,5,3.41,3.41,0,0,1,123,8.5a3.61,3.61,0,0,1-.51,1.85,8.4,8.4,0,0,1,3.76,2.36A12.44,12.44,0,0,1,138.11,3a11.86,11.86,0,0,1,1.89.17V44a3.3,3.3,0,0,1-2.24-1.47A7.47,7.47,0,0,1,131.49,46a7.17,7.17,0,0,1-4-1.23,3.24,3.24,0,0,1-6.16,0,7.17,7.17,0,0,1-4,1.23,7.41,7.41,0,0,1-5.75-2.8,3.35,3.35,0,0,1-3.24,2.8A3.41,3.41,0,0,1,105,42.5a5.07,5.07,0,0,1,0-.56l-.51-.08a5.41,5.41,0,0,1-6.73-.07,7.42,7.42,0,0,1-6,3.21,7.34,7.34,0,0,1-5.21-2.2A7.26,7.26,0,0,1,76,42.68,5.64,5.64,0,0,1,71,46a5.79,5.79,0,0,1-5.58-4.87,5.51,5.51,0,0,1-9.63.07A9.15,9.15,0,0,1,49.19,44a8.94,8.94,0,0,1-4.08-1,8.3,8.3,0,0,1-6.33,3,8.2,8.2,0,0,1-5.44-2.08,3.27,3.27,0,0,1-.7.08,3.2,3.2,0,0,1-2.1-.81A5.48,5.48,0,0,1,26.49,45a5.41,5.41,0,0,1-3.3-1.15,5.52,5.52,0,0,1-.53-.43,5,5,0,0,1-2.32.58,5.07,5.07,0,0,1-3.48-1.41A6,6,0,0,1,7.08,39a4.47,4.47,0,0,1-2.64-7.74A9.28,9.28,0,0,1,2.84,26Z"/><circle class="cls-5" cx="33" cy="16" r="5"/><circle class="cls-5" cx="124" cy="26" r="5"/><circle class="cls-5" cx="58.5" cy="20.5" r="6.5"/><circle class="cls-5" cx="90" cy="31" r="3"/><circle class="cls-5" cx="102" cy="19" r="3"/><circle class="cls-5" cx="25" cy="34" r="3"/></g></svg>