<svg xmlns="http://www.w3.org/2000/svg" viewBox="0 0 140 140"><defs><style>.cls-1{fill:#4b4b4b;}.cls-2,.cls-4{fill:#727272;isolation:isolate;}.cls-2{opacity:0.29;}.cls-3{fill:#606060;}.cls-4{opacity:0.58;}.cls-5{fill:#656565;}</style></defs><title>Foreground Gray Brick Wall Tile</title><g id="Layer_25" data-name="Layer 25"><rect id="Rectangle_427" data-name="Rectangle 427" class="cls-1" x="-0.05" y="0.1" width="140" height="140"/><rect id="Rectangle_428" data-name="Rectangle 428" class="cls-2" x="69.95" y="0.1" width="70" height="38.62"/><path id="Path_329" data-name="Path 329" class="cls-3" d="M35,.1H0V38.72H70V.1Z"/><rect id="Rectangle_429" data-name="Rectangle 429" class="cls-2" x="-0.05" y="46.44" width="70" height="39.57"/><rect id="Rectangle_430" data-name="Rectangle 430" class="cls-2" x="104.95" y="93.74" width="35" height="38.62"/><rect id="Rectangle_431" data-name="Rectangle 431" class="cls-4" x="-0.05" y="93.74" width="35" height="38.62"/><path id="Path_330" data-name="Path 330" class="cls-3" d="M105,46.44H70V86h70V46.44Z"/><path id="Path_331" data-name="Path 331" class="cls-3" d="M70,93.74H35v38.62h70V93.74Z"/><g id="Group_275" data-name="Group 275"><circle id="Ellipse_611" data-name="Ellipse 611" class="cls-5" cx="75.62" cy="10.5" r="2.84"/><circle id="Ellipse_612" data-name="Ellipse 612" class="cls-5" cx="43" cy="58.63" r="2.84"/><circle id="Ellipse_613" data-name="Ellipse 613" class="cls-5" cx="55" cy="76.63" r="2.84"/><circle id="Ellipse_614" data-name="Ellipse 614" class="cls-5" cx="27.86" cy="76.49" r="2.84"/><ellipse id="Ellipse_615" data-name="Ellipse 615" class="cls-5" cx="14.13" cy="55.43" rx="4.73" ry="4.26"/><circle id="Ellipse_616" data-name="Ellipse 616" class="cls-5" cx="27.8" cy="103.65" r="2.84"/><circle id="Ellipse_617" data-name="Ellipse 617" class="cls-5" cx="134.26" cy="125.9" r="2.84"/><ellipse id="Ellipse_618" data-name="Ellipse 618" class="cls-5" cx="15.83" cy="120.23" rx="4.73" ry="4.26"/><circle id="Ellipse_624" data-name="Ellipse 624" class="cls-5" cx="103.99" cy="19.96" r="2.84"/><ellipse id="Ellipse_625" data-name="Ellipse 625" class="cls-5" cx="94.53" cy="8.13" rx="4.73" ry="4.26"/><ellipse id="Ellipse_626" data-name="Ellipse 626" class="cls-5" cx="111.56" cy="30.84" rx="4.73" ry="4.26"/><circle id="Ellipse_627" data-name="Ellipse 627" class="cls-5" cx="128.58" cy="6.72" r="2.84"/><circle id="Ellipse_629" data-name="Ellipse 629" class="cls-5" cx="115.34" cy="102.25" r="3.78"/><circle id="Ellipse_630" data-name="Ellipse 630" class="cls-5" cx="110.99" cy="122.11" r="2.84"/><g id="Group_274" data-name="Group 274"><circle id="Ellipse_608" data-name="Ellipse 608" class="cls-5" cx="19.34" cy="19.49" r="6.15"/><circle id="Ellipse_609" data-name="Ellipse 609" class="cls-5" cx="49.13" cy="29.42" r="2.84"/><circle id="Ellipse_610" data-name="Ellipse 610" class="cls-5" cx="50.08" cy="15.23" r="2.84"/><circle id="Ellipse_619" data-name="Ellipse 619" class="cls-5" cx="124.76" cy="74.35" r="6.15"/><circle id="Ellipse_620" data-name="Ellipse 620" class="cls-5" cx="80.27" cy="77.82" r="2.84"/><circle id="Ellipse_621" data-name="Ellipse 621" class="cls-5" cx="127.13" cy="53.06" r="2.84"/><circle id="Ellipse_622" data-name="Ellipse 622" class="cls-5" cx="86.45" cy="54.96" r="2.84"/><circle id="Ellipse_623" data-name="Ellipse 623" class="cls-5" cx="106.32" cy="71.98" r="2.84"/><circle id="Ellipse_628" data-name="Ellipse 628" class="cls-5" cx="79.87" cy="118.8" r="6.15"/><circle id="Ellipse_631" data-name="Ellipse 631" class="cls-5" cx="53.86" cy="122.11" r="2.84"/><circle id="Ellipse_632" data-name="Ellipse 632" class="cls-5" cx="44.41" cy="104.14" r="2.84"/><rect id="Rectangle_432" data-name="Rectangle 432" class="cls-5" x="4.95" y="40.77" width="43" height="3.78" rx="1.39"/><rect id="Rectangle_433" data-name="Rectangle 433" class="cls-5" x="55.95" y="40.77" width="12" height="3.78" rx="1.39"/><rect id="Rectangle_434" data-name="Rectangle 434" class="cls-5" x="109.95" y="40.77" width="25" height="3.78" rx="1.39"/><rect id="Rectangle_435" data-name="Rectangle 435" class="cls-5" x="76.95" y="88.06" width="12" height="3.78" rx="1.39"/><rect id="Rectangle_436" data-name="Rectangle 436" class="cls-5" x="18.95" y="88.06" width="12" height="3.78" rx="1.39"/><rect id="Rectangle_437" data-name="Rectangle 437" class="cls-5" x="110.95" y="88.06" width="25" height="3.78" rx="1.39"/><rect id="Rectangle_438" data-name="Rectangle 438" class="cls-5" x="76.95" y="134.42" width="12" height="3.78" rx="1.39"/><rect id="Rectangle_439" data-name="Rectangle 439" class="cls-5" x="18.95" y="134.42" width="12" height="3.78" rx="1.39"/><rect id="Rectangle_440" data-name="Rectangle 440" class="cls-5" x="110.95" y="134.42" width="25" height="3.78" rx="1.39"/></g></g></g></svg>