<svg xmlns="http://www.w3.org/2000/svg" viewBox="0 0 140 140"><defs><style>.cls-1{fill:#5e5e5e;}.cls-2{fill:#9b9a9a;}.cls-3{fill:#7c7c7c;}</style></defs><title>Gray Brick Wall Tile</title><g id="Layer_25" data-name="Layer 25"><rect class="cls-1" width="140" height="140"/><rect class="cls-2" x="70" width="70" height="38.62"/><polygon class="cls-3" points="35 0 0 0 0 38.62 35 38.62 70 38.62 70 0 35 0"/><circle class="cls-2" cx="19.39" cy="19.39" r="6.15"/><circle class="cls-2" cx="49.18" cy="29.32" r="2.84"/><circle class="cls-2" cx="50.13" cy="15.13" r="2.84"/><circle class="cls-3" cx="75.67" cy="10.4" r="2.84"/><rect class="cls-2" y="46.35" width="70" height="39.57"/><circle class="cls-3" cx="43.05" cy="58.53" r="2.84"/><circle class="cls-3" cx="55.05" cy="76.53" r="2.84"/><circle class="cls-3" cx="27.92" cy="76.4" r="2.84"/><ellipse class="cls-3" cx="14.19" cy="55.33" rx="4.73" ry="4.26"/><rect class="cls-2" x="105" y="93.64" width="35" height="38.62"/><rect class="cls-2" y="93.64" width="35" height="38.62"/><circle class="cls-3" cx="27.85" cy="103.56" r="2.84"/><circle class="cls-3" cx="134.32" cy="125.8" r="2.84"/><ellipse class="cls-3" cx="15.88" cy="120.14" rx="4.73" ry="4.26"/><polygon class="cls-3" points="105 46.35 70 46.35 70 85.92 105 85.92 140 85.92 140 46.35 105 46.35"/><circle class="cls-2" cx="124.81" cy="74.25" r="6.15"/><circle class="cls-2" cx="80.32" cy="77.72" r="2.84"/><circle class="cls-2" cx="127.18" cy="52.97" r="2.84"/><circle class="cls-2" cx="86.51" cy="54.86" r="2.84"/><circle class="cls-2" cx="106.37" cy="71.89" r="2.84"/><circle class="cls-3" cx="104.04" cy="19.86" r="2.84"/><ellipse class="cls-3" cx="94.59" cy="8.04" rx="4.73" ry="4.26"/><ellipse class="cls-3" cx="111.61" cy="30.74" rx="4.73" ry="4.26"/><circle class="cls-3" cx="128.64" cy="6.62" r="2.84"/><polygon class="cls-3" points="70 93.64 35 93.64 35 132.26 70 132.26 105 132.26 105 93.64 70 93.64"/><circle class="cls-2" cx="79.93" cy="118.71" r="6.15"/><circle class="cls-3" cx="115.4" cy="102.15" r="3.78"/><circle class="cls-3" cx="111.05" cy="122.02" r="2.84"/><circle class="cls-2" cx="53.92" cy="122.02" r="2.84"/><circle class="cls-2" cx="44.46" cy="104.04" r="2.84"/><rect class="cls-2" x="5" y="40.67" width="43" height="3.78" rx="1.39"/><rect class="cls-2" x="56" y="40.67" width="12" height="3.78" rx="1.39"/><rect class="cls-2" x="110" y="40.67" width="25" height="3.78" rx="1.39"/><rect class="cls-2" x="77" y="87.96" width="12" height="3.78" rx="1.39"/><rect class="cls-2" x="19" y="87.96" width="12" height="3.78" rx="1.39"/><rect class="cls-2" x="111" y="87.96" width="25" height="3.78" rx="1.39"/><rect class="cls-2" x="77" y="134.32" width="12" height="3.78" rx="1.39"/><rect class="cls-2" x="19" y="134.32" width="12" height="3.78" rx="1.39"/><rect class="cls-2" x="111" y="134.32" width="25" height="3.78" rx="1.39"/></g></svg>