<svg xmlns="http://www.w3.org/2000/svg" viewBox="0 0 140 38"><defs><style>.cls-1{fill:#c2e207;}.cls-2{fill:#b0c105;}</style></defs><title>Independent Vegetation Tile</title><g id="Layer_25" data-name="Layer 25"><path class="cls-1" d="M.16,35.5A4.39,4.39,0,0,0,.94,38H139.06a4.39,4.39,0,0,0,.78-2.5,4.47,4.47,0,0,0-1.44-3.28A9.28,9.28,0,0,0,140,27a9,9,0,0,0-4.72-8,9.35,9.35,0,0,0-1-.46,6.5,6.5,0,0,0-3-4.62,5.83,5.83,0,0,0-3.75-.82,9.31,9.31,0,0,0-1-2.57,8.57,8.57,0,0,0-4.8-4.06A9.84,9.84,0,0,0,113.1,1c-5.33,0-9.66,4.46-9.89,10.06A8.3,8.3,0,0,0,97.83,14l-.06,0a7,7,0,0,0,.17-1.46A6.5,6.5,0,0,0,91.45,6a6.41,6.41,0,0,0-3.93,1.34A5.54,5.54,0,0,0,83.05,5a5.3,5.3,0,0,0-1.6.25A11.66,11.66,0,0,0,70,3.93,11.66,11.66,0,0,0,58.55,5.25,5.3,5.3,0,0,0,57,5a5.51,5.51,0,0,0-4.44,2.31A6.48,6.48,0,0,0,41.07,11.5a6.33,6.33,0,0,0,.2,1.58,8.16,8.16,0,0,0-4.48-2C36.56,5.46,32.23,1,26.9,1a9.84,9.84,0,0,0-8.67,5.42,8.57,8.57,0,0,0-4.8,4.06,9.31,9.31,0,0,0-.95,2.57,5.83,5.83,0,0,0-3.75.82,6.5,6.5,0,0,0-3,4.62,9.35,9.35,0,0,0-1,.46A9,9,0,0,0,0,27a9.28,9.28,0,0,0,1.6,5.22A4.47,4.47,0,0,0,.16,35.5Z"/><ellipse class="cls-2" cx="32.09" cy="19" rx="4.99" ry="5"/><ellipse class="cls-2" cx="122.88" cy="26" rx="4.99" ry="5"/><ellipse class="cls-2" cx="57.53" cy="23.5" rx="6.48" ry="6.5"/><ellipse class="cls-2" cx="79.98" cy="29" rx="2.99" ry="3"/><ellipse class="cls-2" cx="100.93" cy="22" rx="2.99" ry="3"/><ellipse class="cls-2" cx="72.99" cy="7" rx="2.99" ry="3"/><ellipse class="cls-2" cx="114.9" cy="7" rx="2.99" ry="3"/><ellipse class="cls-2" cx="16.12" cy="26" rx="2.99" ry="3"/></g></svg>