<svg xmlns="http://www.w3.org/2000/svg" viewBox="0 0 140 140"><defs><style>.cls-1{fill:#3d5363;}.cls-2{fill:#664e4e;}.cls-3{fill:#896a6a;}.cls-4{fill:#4f6877;}.cls-5{fill:#a38282;}</style></defs><title>Ladder</title><g id="Layer_25" data-name="Layer 25"><rect class="cls-1" x="11.5" width="22" height="140"/><rect class="cls-1" x="105.5" width="22" height="140"/><rect class="cls-2" y="24" width="140" height="19" rx="9.5"/><rect class="cls-2" y="91" width="140" height="19" rx="9.5"/><rect class="cls-3" x="123" y="27" width="7" height="3" rx="1.5"/><rect class="cls-3" x="93" y="27" width="22" height="3" rx="1.5"/><rect class="cls-4" x="5.5" y="10.5" width="22" height="3" rx="1.5" transform="translate(28.5 -4.5) rotate(90)"/><rect class="cls-4" x="10.5" y="75.5" width="12" height="3" rx="1.5" transform="translate(93.5 60.5) rotate(90)"/><rect class="cls-4" x="15" y="51" width="3" height="7" rx="1.5"/><rect class="cls-4" x="15" y="121" width="3" height="7" rx="1.5"/><rect class="cls-4" x="103.5" y="8.5" width="12" height="3" rx="1.5" transform="translate(119.5 -99.5) rotate(90)"/><rect class="cls-4" x="103.5" y="50.5" width="12" height="3" rx="1.5" transform="translate(161.5 -57.5) rotate(90)"/><rect class="cls-4" x="108" y="80" width="3" height="7" rx="1.5"/><rect class="cls-4" x="108" y="115" width="3" height="7" rx="1.5"/><rect class="cls-4" x="108" y="130" width="3" height="7" rx="1.5"/><rect class="cls-3" x="74.7" y="93.02" width="12.3" height="2.98" rx="1.49"/><rect class="cls-3" x="22" y="93.02" width="38.65" height="2.98" rx="1.49"/><circle class="cls-5" cx="21.5" cy="33.5" r="3.5"/><circle class="cls-5" cx="117.5" cy="33.5" r="3.5"/><circle class="cls-5" cx="21.5" cy="100.5" r="3.5"/><circle class="cls-5" cx="117.5" cy="100.5" r="3.5"/></g></svg>