<svg xmlns="http://www.w3.org/2000/svg" viewBox="0 0 140 140"><defs><style>.cls-1{fill:#3d5363;}.cls-2{fill:#664e4e;}.cls-3{fill:#896a6a;}.cls-4{fill:#c2e207;}.cls-5{fill:#b0c105;}</style></defs><title>Suspended Tile Right End</title><g id="Layer_25" data-name="Layer 25"><path class="cls-1" d="M132.43,36V48.66a10.39,10.39,0,0,1,0,8.68,9.84,9.84,0,0,1-3.36,4A11.39,11.39,0,0,1,130.54,67c0,6.08-4.66,11-10.4,11-.32,0-.64,0-1,0v0a8.84,8.84,0,0,1-7.46,8.92,13,13,0,0,1,1.78,6.58c0,6.9-5.29,12.5-11.82,12.5a11.72,11.72,0,0,1-2.38-.25c0,.08,0,.16,0,.25,0,6.08-4.65,11-10.4,11h-.17a11.55,11.55,0,0,1-11.18,10c-.32,0-.64,0-.95,0v0c0,6.63-5.08,11-11.35,11a10.93,10.93,0,0,1-7-2.56A8.87,8.87,0,0,1,50.61,140a8.75,8.75,0,0,1-6.7-3.18,10.4,10.4,0,0,1-14.18.74,9.89,9.89,0,0,1-11.28-.7,9.91,9.91,0,0,1-12.28,0A8.71,8.71,0,0,1,0,140V36Z"/><path class="cls-2" d="M109,61.12a18.82,18.82,0,0,1-6.81-14.62c0-10.22,7.84-18.5,17.5-18.5s17.5,8.28,17.5,18.5c0,8.79-5.8,16.13-13.58,18a9.22,9.22,0,0,1,.34,2.48,8.53,8.53,0,1,1-17,0A9.27,9.27,0,0,1,109,61.12Z"/><ellipse class="cls-2" cx="126.76" cy="77" rx="4.73" ry="5"/><path class="cls-2" d="M51.55,67a17.57,17.57,0,0,1,7.27,1.57A18.34,18.34,0,0,1,75.2,58c10.19,0,18.45,8.73,18.45,19.5S85.39,97,75.2,97a17.53,17.53,0,0,1-7.26-1.57A18.34,18.34,0,0,1,51.55,106c-10.18,0-18.44-8.73-18.44-19.5S41.37,67,51.55,67Z"/><ellipse class="cls-2" cx="96.49" cy="97" rx="7.57" ry="8"/><ellipse class="cls-2" cx="35" cy="116" rx="10.41" ry="11"/><ellipse class="cls-2" cx="72.36" cy="107.5" rx="8.04" ry="8.5"/><ellipse class="cls-2" cx="118.72" cy="104.5" rx="7.09" ry="7.5"/><ellipse class="cls-2" cx="104.05" cy="110" rx="4.73" ry="5"/><ellipse class="cls-2" cx="64.32" cy="123" rx="4.73" ry="5"/><ellipse class="cls-2" cx="8.51" cy="107" rx="4.73" ry="5"/><ellipse class="cls-2" cx="25.07" cy="129.5" rx="3.31" ry="3.5"/><ellipse class="cls-2" cx="89.39" cy="107.5" rx="3.31" ry="3.5"/><ellipse class="cls-2" cx="126.28" cy="91.5" rx="3.31" ry="3.5"/><path class="cls-2" d="M2.36,46.5c10.19,0,18.45,8.84,18.45,19.75A20.75,20.75,0,0,1,20,72c7.29.34,13.11,6.68,13.11,14.47,0,8-6.14,14.5-13.72,14.5S5.68,94.51,5.68,86.5c0-.28,0-.56,0-.84A17.72,17.72,0,0,1,2.36,86,16.81,16.81,0,0,1,0,85.82V46.68A16.81,16.81,0,0,1,2.36,46.5Z"/><path class="cls-3" d="M.1,25H129.38a6.78,6.78,0,0,1,3.53-1A7.31,7.31,0,0,1,140,31.5a7.31,7.31,0,0,1-7.09,7.5,3.87,3.87,0,0,1-.48,0v0c-7.27,0-13.24,6.23-13.24,13.91V85.25c0,7.59-5.82,13.75-13,13.75h-.47c-7.18,0-13-6.16-13-13.75v-12A6.08,6.08,0,0,0,86.79,67H72.13a6.08,6.08,0,0,0-5.91,6.25v.5A6.09,6.09,0,0,1,60.3,80H45.64a6.09,6.09,0,0,0-5.91,6.25v10c0,7.59-5.82,13.75-13,13.75h-.47c-7.18,0-13-6.16-13-13.75V66.9C13.24,59.22,7.36,53,.1,53a.1.1,0,0,1-.1-.1V25.1A.1.1,0,0,1,.1,25Z"/><path class="cls-4" d="M1.89,3a12.44,12.44,0,0,1,11.89,9.71,8.4,8.4,0,0,1,3.76-2.36A3.61,3.61,0,0,1,17,8.5,3.41,3.41,0,0,1,20.34,5a3.26,3.26,0,0,1,2.87,1.8A7.13,7.13,0,0,1,26.49,6,7.47,7.47,0,0,1,33,9.9a5.38,5.38,0,0,1,6,0A9,9,0,0,1,44.46,8a8.88,8.88,0,0,1,3.88.89A5.78,5.78,0,0,1,53.92,4a5.3,5.3,0,0,1,1.6.25A11.77,11.77,0,0,1,62.43,2,12.31,12.31,0,0,1,73.71,9.81,7.35,7.35,0,0,1,79.46,7,7.48,7.48,0,0,1,86,10.9a5.36,5.36,0,0,1,3-.9,5.56,5.56,0,0,1,4.53,2.4,10.11,10.11,0,0,1,1.44.59,8.34,8.34,0,0,1,5.4-2.93A10.19,10.19,0,0,1,110.2,0a9.86,9.86,0,0,1,8.69,5.42,8.58,8.58,0,0,1,4.81,4.06,9,9,0,0,1,1,2.57,5.83,5.83,0,0,1,3.75.82,6.49,6.49,0,0,1,3,4.62,9.35,9.35,0,0,1,1,.46,9.22,9.22,0,0,1,0,16.1,8.07,8.07,0,0,1-7.11.24,6,6,0,0,1-.88.79l-.46.36a5.65,5.65,0,0,1,.88,3.06,5.35,5.35,0,0,1-5.2,5.5,5,5,0,0,1-2.32-.58,5.52,5.52,0,0,1-.53.43,5.41,5.41,0,0,1-3.3,1.15,5.48,5.48,0,0,1-4.05-1.81,3.2,3.2,0,0,1-2.1.81,3.27,3.27,0,0,1-.7-.08A8.2,8.2,0,0,1,101.22,46a8.3,8.3,0,0,1-6.33-3,8.94,8.94,0,0,1-4.08,1,9.15,9.15,0,0,1-6.55-2.8,5.51,5.51,0,0,1-9.63-.07A5.79,5.79,0,0,1,69.05,46,5.64,5.64,0,0,1,64,42.68a7.26,7.26,0,0,1-10.53.12A7.34,7.34,0,0,1,48.24,45a7.42,7.42,0,0,1-6.05-3.21,5.41,5.41,0,0,1-6.73.07l-.51.08a5.07,5.07,0,0,1,0,.56A3.41,3.41,0,0,1,31.69,46a3.35,3.35,0,0,1-3.24-2.8A7.41,7.41,0,0,1,22.7,46a7.17,7.17,0,0,1-4-1.23,3.24,3.24,0,0,1-6.16,0,7.17,7.17,0,0,1-4,1.23,7.47,7.47,0,0,1-6.27-3.52A3.3,3.3,0,0,1,0,44V3.17A11.86,11.86,0,0,1,1.89,3Z"/><circle class="cls-5" cx="71" cy="21" r="5"/><circle class="cls-5" cx="19.5" cy="24.5" r="6.5"/><circle class="cls-5" cx="86" cy="33" r="3"/><circle class="cls-5" cx="119" cy="25" r="3"/><circle class="cls-5" cx="49" cy="30" r="3"/></g></svg>