<svg xmlns="http://www.w3.org/2000/svg" viewBox="0 0 140 38"><defs><style>.cls-1{fill:#c2e207;}.cls-2{fill:#b0c105;}</style></defs><title>Vegetation Tile Left End</title><g id="Layer_25" data-name="Layer 25"><path class="cls-1" d="M.17,35.5A4.32,4.32,0,0,0,1,38H140V4.17A12.26,12.26,0,0,0,138.07,4a12.62,12.62,0,0,0-12.13,9.71,8.66,8.66,0,0,0-3.84-2.36,3.62,3.62,0,0,0,.52-1.85A3.44,3.44,0,0,0,119.24,6a3.35,3.35,0,0,0-2.93,1.8A7.44,7.44,0,0,0,113,7a7.66,7.66,0,0,0-6.63,3.9,5.57,5.57,0,0,0-6.07,0A9.4,9.4,0,0,0,94.62,9a9.26,9.26,0,0,0-4,.89A5.86,5.86,0,0,0,85,5a5.57,5.57,0,0,0-1.64.25,12.18,12.18,0,0,0-7-2.25,12.55,12.55,0,0,0-11.51,7.81A7.55,7.55,0,0,0,52.28,11.9a5.59,5.59,0,0,0-3-.9,5.74,5.74,0,0,0-4.63,2.4,10.49,10.49,0,0,0-1.47.59,8.53,8.53,0,0,0-5.51-2.93A10.29,10.29,0,0,0,27.52,1a10.09,10.09,0,0,0-8.87,5.42,8.72,8.72,0,0,0-4.91,4.06,9.37,9.37,0,0,0-1,2.57,6.07,6.07,0,0,0-3.83.82,6.5,6.5,0,0,0-3.06,4.62,8.86,8.86,0,0,0-1,.46A9,9,0,0,0,0,27a9.16,9.16,0,0,0,1.64,5.22A4.42,4.42,0,0,0,.17,35.5Z"/><ellipse class="cls-2" cx="30.79" cy="17" rx="5.1" ry="5"/><ellipse class="cls-2" cx="123.67" cy="27" rx="5.1" ry="5"/><ellipse class="cls-2" cx="56.81" cy="21.5" rx="6.63" ry="6.5"/><ellipse class="cls-2" cx="88.97" cy="32" rx="3.06" ry="3"/><ellipse class="cls-2" cx="101.21" cy="20" rx="3.06" ry="3"/><ellipse class="cls-2" cx="15.48" cy="30" rx="3.06" ry="3"/></g></svg>