<svg xmlns="http://www.w3.org/2000/svg" viewBox="0 0 140 38"><defs><style>.cls-1{fill:#c2e207;}.cls-2{fill:#b0c105;}</style></defs><title>Vegetation Tile Right End</title><g id="Layer_25" data-name="Layer 25"><path class="cls-1" d="M139,38a4.32,4.32,0,0,0,.79-2.5,4.42,4.42,0,0,0-1.47-3.28A9.16,9.16,0,0,0,140,27a9,9,0,0,0-4.83-8,8.86,8.86,0,0,0-1-.46,6.5,6.5,0,0,0-3.06-4.62,6.07,6.07,0,0,0-3.83-.82,9.37,9.37,0,0,0-1-2.57,8.72,8.72,0,0,0-4.91-4.06A10.09,10.09,0,0,0,112.48,1a10.29,10.29,0,0,0-10.11,10.06A8.53,8.53,0,0,0,96.86,14a10.49,10.49,0,0,0-1.47-.59A5.74,5.74,0,0,0,90.76,11a5.59,5.59,0,0,0-3,.9,7.55,7.55,0,0,0-12.49-1.09A12.55,12.55,0,0,0,63.72,3a12.18,12.18,0,0,0-7,2.25A5.57,5.57,0,0,0,55,5a5.86,5.86,0,0,0-5.69,4.89,9.26,9.26,0,0,0-4-.89,9.4,9.4,0,0,0-5.65,1.9,5.57,5.57,0,0,0-6.07,0A7.66,7.66,0,0,0,27,7a7.44,7.44,0,0,0-3.34.8A3.35,3.35,0,0,0,20.76,6a3.44,3.44,0,0,0-3.38,3.5,3.62,3.62,0,0,0,.52,1.85,8.66,8.66,0,0,0-3.84,2.36A12.62,12.62,0,0,0,1.93,4,12.26,12.26,0,0,0,0,4.17V38Z"/><ellipse class="cls-2" cx="73.49" cy="23" rx="5.1" ry="5"/><ellipse class="cls-2" cx="20.92" cy="26.5" rx="6.63" ry="6.5"/><ellipse class="cls-2" cx="88.8" cy="31" rx="3.06" ry="3"/><ellipse class="cls-2" cx="122.48" cy="27" rx="3.06" ry="3"/><ellipse class="cls-2" cx="51.03" cy="32" rx="3.06" ry="3"/></g></svg>