<svg xmlns="http://www.w3.org/2000/svg" viewBox="0 0 140 140"><defs><style>.cls-1{fill:#3d5363;}.cls-2{fill:#664e4e;}</style></defs><title>Wall Ending Tile Left</title><g id="Tile_Left_Wall" data-name="Tile Left Wall"><path class="cls-1" d="M0,22a10,10,0,0,1,5.92-9.12A17,17,0,0,1,0,0H140V140H0a17,17,0,0,1,5.81-12.78,18,18,0,0,1,4.86-29.65A9.85,9.85,0,0,1,10,94v0A10,10,0,0,1,5.2,75.87a13.47,13.47,0,0,1,4-18.69A17.81,17.81,0,0,1,6.54,42.7,12.92,12.92,0,0,1,4.8,30.53,10,10,0,0,1,0,22Z"/><ellipse class="cls-2" cx="73.76" cy="61" rx="4.73" ry="5"/><ellipse class="cls-2" cx="35.49" cy="51" rx="7.57" ry="8"/><ellipse class="cls-2" cx="126" cy="34" rx="10.41" ry="11"/><ellipse class="cls-2" cx="106.36" cy="115.5" rx="8.04" ry="8.5"/><ellipse class="cls-2" cx="71.72" cy="23.5" rx="7.09" ry="7.5"/><ellipse class="cls-2" cx="69.05" cy="86" rx="4.73" ry="5"/><ellipse class="cls-2" cx="62.32" cy="126" rx="4.73" ry="5"/><ellipse class="cls-2" cx="18.51" cy="81" rx="4.73" ry="5"/><ellipse class="cls-2" cx="8.07" cy="131.5" rx="3.31" ry="3.5"/><ellipse class="cls-2" cx="48.39" cy="105.5" rx="3.31" ry="3.5"/><ellipse class="cls-2" cx="113.28" cy="82.5" rx="3.31" ry="3.5"/><ellipse class="cls-2" cx="16.28" cy="24.5" rx="3.31" ry="3.5"/></g></svg>