<svg xmlns="http://www.w3.org/2000/svg" viewBox="0 0 140 140"><defs><style>.cls-1{fill:#3d5363;}.cls-2{fill:#664e4e;}</style></defs><title>Wall Ending Tile Right</title><g id="Tile_Right_Wall" data-name="Tile Right Wall"><path class="cls-1" d="M140,22a10,10,0,0,0-5.92-9.12A17,17,0,0,0,140,0H0V140H140a17,17,0,0,0-5.81-12.78,18,18,0,0,0-4.86-29.65A9.85,9.85,0,0,0,130,94v0a10,10,0,0,0,4.8-18.08,13.47,13.47,0,0,0-4-18.69,17.81,17.81,0,0,0,2.62-14.48,12.92,12.92,0,0,0,1.74-12.17A10,10,0,0,0,140,22Z"/><ellipse class="cls-2" cx="66.24" cy="61" rx="4.73" ry="5"/><ellipse class="cls-2" cx="104.51" cy="51" rx="7.57" ry="8"/><ellipse class="cls-2" cx="14" cy="34" rx="10.41" ry="11"/><ellipse class="cls-2" cx="33.64" cy="115.5" rx="8.04" ry="8.5"/><ellipse class="cls-2" cx="68.28" cy="23.5" rx="7.09" ry="7.5"/><ellipse class="cls-2" cx="70.95" cy="86" rx="4.73" ry="5"/><ellipse class="cls-2" cx="77.68" cy="126" rx="4.73" ry="5"/><ellipse class="cls-2" cx="121.49" cy="81" rx="4.73" ry="5"/><ellipse class="cls-2" cx="131.93" cy="131.5" rx="3.31" ry="3.5"/><ellipse class="cls-2" cx="91.61" cy="105.5" rx="3.31" ry="3.5"/><ellipse class="cls-2" cx="26.72" cy="82.5" rx="3.31" ry="3.5"/><ellipse class="cls-2" cx="123.72" cy="24.5" rx="3.31" ry="3.5"/></g></svg>