<svg xmlns="http://www.w3.org/2000/svg" viewBox="0 0 140 140"><defs><style>.cls-1{fill:#664e4e;}.cls-2{fill:#725a5a;}.cls-3{fill:#896a6a;}.cls-4{fill:#3d5363;}.cls-5{fill:#685252;}.cls-6{fill:#a58383;}</style></defs><title>Wood Box</title><g id="Layer_25" data-name="Layer 25"><rect class="cls-1" width="140" height="140" rx="5.39"/><path class="cls-2" d="M11,140H34c.53,0,1-2.42,1-5.39V5.39c0-3-.43-5.39-1-5.39H11c-.53,0-1,2.42-1,5.39V134.61C10,137.58,10.43,140,11,140Z"/><path class="cls-2" d="M41.16,140H68.84c.64,0,1.16-2.42,1.16-5.39V5.39c0-3-.52-5.39-1.16-5.39H41.16C40.52,0,40,2.42,40,5.39V134.61C40,137.58,40.52,140,41.16,140Z"/><path class="cls-2" d="M76.16,140h27.68c.64,0,1.16-2.42,1.16-5.39V5.39c0-3-.52-5.39-1.16-5.39H76.16C75.52,0,75,2.42,75,5.39V134.61C75,137.58,75.52,140,76.16,140Z"/><path class="cls-2" d="M110.73,140h17.54c.4,0,.73-2.42.73-5.39V5.39c0-3-.33-5.39-.73-5.39H110.73c-.4,0-.73,2.42-.73,5.39V134.61C110,137.58,110.33,140,110.73,140Z"/><rect class="cls-3" x="-19.09" y="58.69" width="178.19" height="22.63" rx="4.56" transform="translate(70 -29) rotate(45)"/><rect class="cls-1" x="63" y="63" width="140" height="14" rx="4.56" transform="translate(203 -63) rotate(90)"/><rect class="cls-1" x="-63" y="63" width="140" height="14" rx="4.56" transform="translate(77 63) rotate(90)"/><rect class="cls-3" width="140" height="18" rx="4.56"/><ellipse class="cls-4" cx="133.5" cy="9" rx="2.5" ry="3"/><ellipse class="cls-4" cx="7.5" cy="9" rx="2.5" ry="3"/><rect class="cls-3" y="122" width="140" height="18" rx="4.56"/><circle class="cls-5" cx="89.57" cy="33.74" r="2"/><circle class="cls-2" cx="82" cy="80" r="2"/><circle class="cls-2" cx="45.31" cy="33.39" r="1.27"/><circle class="cls-2" cx="60.31" cy="59.39" r="1.27"/><circle class="cls-5" cx="106.31" cy="30.39" r="1.27"/><circle class="cls-5" cx="86.29" cy="59.22" r="2"/><circle class="cls-2" cx="110.17" cy="118.69" r="2"/><circle class="cls-5" cx="85.1" cy="103.48" r="1.27"/><circle class="cls-5" cx="104.55" cy="79.84" r="1.27"/><circle class="cls-5" cx="83.26" cy="42.43" r="1.27"/><circle class="cls-5" cx="27.7" cy="61.53" r="2"/><circle class="cls-5" cx="53.21" cy="120.31" r="2"/><circle class="cls-5" cx="27.73" cy="105.8" r="1.27"/><circle class="cls-5" cx="46.52" cy="81.63" r="1.27"/><circle class="cls-5" cx="24.2" cy="44.83" r="1.27"/><ellipse class="cls-4" cx="133.5" cy="131" rx="2.5" ry="3"/><ellipse class="cls-4" cx="7.5" cy="131" rx="2.5" ry="3"/><rect class="cls-6" x="17.85" y="3.71" width="38.65" height="2.98" rx="1.49"/><rect class="cls-6" x="58.85" y="3.71" width="3.65" height="2.98" rx="1.49"/><rect class="cls-6" x="64.85" y="9.71" width="3.65" height="2.98" rx="1.49"/><rect class="cls-6" x="69.85" y="9.71" width="29.15" height="2.98" rx="1.49"/><rect class="cls-2" x="-8.9" y="46.46" width="38.65" height="2.98" rx="1.49" transform="translate(58.38 37.52) rotate(90)"/><rect class="cls-2" x="8.94" y="69.63" width="2.98" height="3.65" rx="1.49"/><rect class="cls-2" x="2.94" y="75.63" width="2.98" height="3.65" rx="1.49"/><rect class="cls-2" x="-10.15" y="93.71" width="29.15" height="2.98" rx="1.49" transform="translate(99.63 90.77) rotate(90)"/><rect class="cls-2" x="115.1" y="46.46" width="38.65" height="2.98" rx="1.49" transform="translate(182.38 -86.48) rotate(90)"/><rect class="cls-2" x="132.94" y="69.63" width="2.98" height="3.65" rx="1.49"/><rect class="cls-2" x="132.94" y="97.63" width="2.98" height="3.65" rx="1.49"/><rect class="cls-2" x="115.85" y="93.71" width="29.15" height="2.98" rx="1.49" transform="translate(225.63 -35.23) rotate(90)"/><rect class="cls-6" x="102" y="9.71" width="7" height="2.98" rx="1.49"/><rect class="cls-6" x="15.85" y="127.71" width="38.65" height="2.98" rx="1.49"/><rect class="cls-6" x="56.85" y="127.71" width="3.65" height="2.98" rx="1.49"/><rect class="cls-6" x="67.85" y="133.71" width="29.15" height="2.98" rx="1.49"/><rect class="cls-6" x="100" y="133.71" width="7" height="2.98" rx="1.49"/></g></svg>